<svg xmlns="http://www.w3.org/2000/svg" viewBox="0 0 208.4 208.4"><defs><style>.cls-1{fill:#ddb190;}</style></defs><title>Asset 4</title><g id="Layer_2" data-name="Layer 2"><g id="Layer_2-2" data-name="Layer 2"><path class="cls-1" d="M169.62,29.59a4,4,0,0,0-5.6.24A27.3,27.3,0,0,0,162,32.42c-2.12,2.91-4.75,6.53-10,6.53s-7.9-3.62-10-6.53S138.55,28,136,28s-3.91,1.62-6,4.47S125.22,39,120,39s-7.91-3.62-10-6.53S106.55,28,104,28s-3.9,1.62-6,4.47l-.37.51a2.51,2.51,0,0,1-3.7.38,2.61,2.61,0,0,1-.26-3.45l.28-.38C96.05,26.57,98.68,23,104,23s7.91,3.62,10,6.53S117.35,34,120,34s3.9-1.61,6-4.47S130.67,23,136,23s7.9,3.62,10,6.53,3.37,4.47,6,4.47,3.9-1.61,6-4.47c.57-.78,1.18-1.62,1.87-2.42a3.78,3.78,0,0,0-.82-5.62l-.83-.54a3.82,3.82,0,0,0-3.21-.39,9.89,9.89,0,0,1-3,.44c-5.27,0-7.9-3.62-10-6.53-.43-.59-.82-1.12-1.2-1.6A5.91,5.91,0,0,0,138.08,11h0a6.15,6.15,0,0,0-6.94,2c-.36.45-.73,1-1.13,1.51-2.12,2.91-4.75,6.53-10,6.53s-7.91-3.62-10-6.53c-.35-.48-.71-1-1.07-1.43a2.51,2.51,0,0,1,.63-3.65,2.6,2.6,0,0,1,3.41.7c.37.47.72,1,1.07,1.44,2.08,2.86,3.38,4.47,6,4.47s3.9-1.61,6-4.47l.09-.12a2.74,2.74,0,0,0-1.65-4.29,99.36,99.36,0,0,0-40.78.09A2.74,2.74,0,0,0,82,11.45l0,0C84.05,14.34,85.36,16,88,16s3.89-1.61,6-4.47q.57-.8,1.17-1.56a2.5,2.5,0,0,1,3.72-.26A2.6,2.6,0,0,1,99,13.08c-.34.44-.67.89-1,1.34C95.86,17.33,93.23,21,88,21s-7.91-3.62-10-6.53c-.28-.39-.55-.75-.81-1.09a6.47,6.47,0,0,0-7.41-2.16h0a6.41,6.41,0,0,0-2.89,2.14L66,14.42C63.86,17.33,61.23,21,56,21a10.11,10.11,0,0,1-2.49-.3,4.62,4.62,0,0,0-3.68.56l-.07.05a4.43,4.43,0,0,0-1.07,6.46c.48.59.91,1.19,1.33,1.76C52.06,32.34,53.36,34,56,34s3.9-1.61,6-4.47S66.68,23,72,23s7.9,3.62,10,6.53l.36.49a2.51,2.51,0,0,1-.76,3.64,2.59,2.59,0,0,1-3.36-.8l-.29-.39C75.86,29.57,74.56,28,72,28s-3.9,1.62-6,4.47S61.23,39,56,39s-7.91-3.62-10-6.53c-.49-.67-.94-1.28-1.37-1.81a4.43,4.43,0,0,0-6.37-.51C36.78,31.35,35.38,32.66,34,34A99.07,99.07,0,0,0,22.08,48.49,2.22,2.22,0,0,0,23.92,52h0c2.6,0,3.9-1.61,6-4.47S34.68,41,40,41s7.9,3.62,10,6.53S53.36,52,56,52s3.9-1.61,6-4.47S66.68,41,72,41s7.91,3.62,10,6.53S85.35,52,88,52s3.9-1.61,6-4.47l.37-.51A2.5,2.5,0,0,1,98,46.6,2.6,2.6,0,0,1,98.25,50l-.28.38C95.85,53.33,93.22,57,88,57s-7.91-3.62-10-6.53S74.55,46,72,46s-3.9,1.62-6,4.47S61.23,57,56,57s-7.91-3.62-10-6.53S42.56,46,40,46s-3.9,1.62-6,4.47S29.23,57,24,57a9.49,9.49,0,0,1-3.72-.71,2.83,2.83,0,0,0-3.59,1.25c-.4.75-.79,1.49-1.17,2.25a2.74,2.74,0,0,0,.4,3c.78.89,1.47,1.82,2.1,2.69C20.06,68.34,21.36,70,24,70s3.9-1.61,6-4.47S34.69,59,40,59s7.91,3.62,10,6.53S53.36,70,56,70s3.9-1.61,6-4.47S66.68,59,72,59s7.89,3.63,9.65,6a2.5,2.5,0,0,1-.75,3.63,2.6,2.6,0,0,1-3.38-.8C75.52,65.14,74.23,64,72,64c-2.6,0-3.9,1.62-6,4.47S61.23,75,56,75s-7.91-3.62-10-6.53S42.56,64,40,64s-3.9,1.62-6,4.47S29.24,75,24,75s-7.9-3.62-10-6.53l-.18-.24a1.22,1.22,0,0,0-2.13.28c-.66,1.7-1.26,3.42-1.82,5.15a3.27,3.27,0,0,0,1.82,4c3,1.18,4.79,3.7,6.35,5.84C20.06,86.34,21.36,88,24,88s3.9-1.61,6-4.47S34.69,77,40,77s7.91,3.62,10,6.53S53.36,88,56,88s3.9-1.61,6-4.47S66.69,77,72,77s7.91,3.62,10,6.53S85.36,88,88,88s3.9-1.61,6-4.47S98.68,77,104,77s7.9,3.62,10,6.53S117.36,88,120,88a4.88,4.88,0,0,0,1.57-.25l.27-.1a4.74,4.74,0,0,0,.51-.24l.17-.1a13.68,13.68,0,0,0,3.45-3.78s.38-.49.38-.49a2.49,2.49,0,0,1,3.69-.37,2.6,2.6,0,0,1,.26,3.44l-.28.38a22.33,22.33,0,0,1-3.74,4.26l-.17.14c-.29.22-.58.43-.89.63l-.38.23c-.19.1-.37.21-.57.3a7.32,7.32,0,0,1-.81.35l-.58.19c-.24.07-.48.13-.74.18s-.25.08-.39.1A12.09,12.09,0,0,1,120,93c-5.28,0-7.91-3.62-10-6.53S106.56,82,104,82s-3.9,1.62-6,4.47S93.23,93,88,93s-7.91-3.62-10-6.53S74.56,82,72,82s-3.9,1.62-6,4.47S61.24,93,56,93s-7.9-3.62-10-6.53S42.56,82,40,82s-3.9,1.62-6,4.47S29.23,93,24,93s-7.91-3.62-10-6.53a20.64,20.64,0,0,0-2.63-3.16A2.64,2.64,0,0,0,7,84.77c-.45,2.34-1,5.64-1.29,7.72A2.2,2.2,0,0,0,7.93,95c5.31,0,7.94,3.62,10.05,6.53S21.36,106,24,106s3.9-1.61,6-4.47S34.69,95,40,95s7.91,3.62,10,6.53S53.36,106,56,106s3.9-1.61,6-4.47S66.68,95,72,95s7.9,3.62,10,6.53S85.36,106,88,106s3.89-1.61,6-4.47q.57-.8,1.17-1.56a2.5,2.5,0,0,1,3.72-.26,2.6,2.6,0,0,1,.15,3.42c-.34.44-.67.89-1,1.34-2.11,2.91-4.74,6.53-10,6.53s-7.91-3.62-10-6.53S74.56,100,72,100s-3.9,1.62-6,4.47S61.23,111,56,111s-7.91-3.62-10-6.53S42.56,100,40,100s-3.9,1.62-6,4.47S29.24,111,24,111s-7.9-3.62-10-6.53S10.56,100,8,100a5.24,5.24,0,0,0-.7,0A2.6,2.6,0,0,0,5,102.54c0,2.6,0,5.21.17,7.82A2.75,2.75,0,0,0,7.93,113c5.31,0,7.94,3.62,10.05,6.53S21.36,124,24,124s3.9-1.61,6-4.47S34.69,113,40,113s7.91,3.62,10,6.53S53.36,124,56,124s3.9-1.61,6-4.47S66.68,113,72,113s7.9,3.62,10,6.53l.36.49a2.51,2.51,0,0,1-.76,3.64,2.59,2.59,0,0,1-3.36-.8l-.29-.39c-2.07-2.85-3.37-4.47-6-4.47s-3.9,1.62-6,4.47S61.23,129,56,129s-7.91-3.62-10-6.53S42.56,118,40,118s-3.9,1.62-6,4.47S29.24,129,24,129s-7.9-3.62-10-6.53S10.56,118,8,118A1.75,1.75,0,0,0,6.29,120c.41,2.19.92,4.36,1.46,6.52a8.84,8.84,0,0,0,1.17,3.38c.9,1.15,2.53,1.21,3.79,1.73,2.74,1.12,4.58,3.48,6.27,5.81,2.08,2.86,3.38,4.47,6,4.47s3.9-1.61,6-4.47S35.68,131,41,131s7.9,3.62,10,6.53S54.36,142,57,142s3.9-1.61,6-4.47S67.68,131,73,131s7.91,3.62,10,6.53S86.35,142,89,142s3.9-1.61,6-4.47l.37-.51a2.5,2.5,0,0,1,3.7-.37,2.61,2.61,0,0,1,.26,3.44l-.28.38c-2.12,2.91-4.75,6.53-10,6.53s-7.91-3.62-10-6.53S75.55,136,73,136s-3.9,1.62-6,4.47S62.23,147,57,147s-7.91-3.62-10-6.53S43.56,136,41,136s-3.9,1.62-6,4.47S30.23,147,25,147s-7.91-3.62-10-6.53c-.42-.57-.81-1.1-1.18-1.57a1.22,1.22,0,0,0-2.09,1.2A98.47,98.47,0,0,0,21,158.35a3.56,3.56,0,0,0,3,1.6c2.54,0,3.84-1.66,5.88-4.47S34.69,149,40,149s7.91,3.62,10,6.53S53.36,160,56,160s3.9-1.61,6-4.47S66.68,149,72,149s7.89,3.63,9.65,6a2.5,2.5,0,0,1-.75,3.63,2.6,2.6,0,0,1-3.38-.8c-2-2.66-3.25-3.85-5.52-3.85-2.6,0-3.9,1.62-6,4.47S61.23,165,56,165s-7.91-3.62-10-6.53S42.56,154,40,154s-3.9,1.62-6,4.47a18.39,18.39,0,0,1-4.79,5,3.28,3.28,0,0,0-.68,4.9c.17.21.35.42.53.62a3.28,3.28,0,0,0,4.56.43A9.59,9.59,0,0,1,40,167c5.27,0,7.9,3.62,10,6.52S53.43,178,56,178s3.9-1.62,6-4.47S66.76,167,72,167s7.91,3.62,10,6.53S85.43,178,88,178s3.9-1.62,6-4.48l.37-.5a2.51,2.51,0,0,1,3.7-.38,2.6,2.6,0,0,1,.25,3.44l-.27.39C95.93,179.42,93.3,183,88,183s-7.91-3.63-10-6.54S74.63,172,72,172s-3.9,1.61-6,4.46S61.31,183,56,183s-7.9-3.62-10-6.53S42.64,172,40,172a5.18,5.18,0,0,0-.7,0,3.28,3.28,0,0,0-1.73,5.69,99.36,99.36,0,0,0,133.14,0,3.29,3.29,0,0,0-.67-5.38,4.71,4.71,0,0,0-2.14-.47c-2.6,0-3.9,1.62-6,4.47s-4.75,6.53-10,6.53-7.9-3.62-10-6.53-3.37-4.47-6-4.47-3.91,1.62-6,4.47S125.22,183,120,183s-7.91-3.62-10-6.53a2.49,2.49,0,0,1,.61-3.53,2.59,2.59,0,0,1,3.26.42l.17.17c2.08,2.86,3.38,4.47,6,4.47s3.9-1.61,6-4.47,4.74-6.53,10-6.53,7.9,3.62,10,6.53,3.37,4.47,6,4.47,3.9-1.61,6-4.47,4.75-6.53,10-6.53a9.65,9.65,0,0,1,6.64,2.55,3.32,3.32,0,0,0,4.67-.39l.49-.57a3.29,3.29,0,0,0-.86-5,18.18,18.18,0,0,1-5-5.15c-2.08-2.85-3.38-4.47-6-4.47s-3.9,1.62-6,4.47-4.75,6.53-10,6.53-7.9-3.62-10-6.53-3.37-4.47-6-4.47-3.91,1.62-6,4.47S125.22,165,120,165s-7.91-3.62-10-6.53-3.38-4.47-6-4.47c-2.31,0-3.6,1.23-5.62,4a2.49,2.49,0,0,1-3.69.37,2.6,2.6,0,0,1-.26-3.44c1.76-2.4,4.42-5.91,9.57-5.91s7.91,3.62,10,6.53,3.38,4.47,6,4.47,3.9-1.61,6-4.47,4.74-6.53,10-6.53,7.9,3.62,10,6.53,3.37,4.47,6,4.47,3.9-1.61,6-4.47,4.75-6.53,10-6.53,7.91,3.62,10,6.53,3.38,4.47,6,4.47a4.67,4.67,0,0,0,2.38-.6,3.51,3.51,0,0,0,1.17-1.16,96.52,96.52,0,0,0,8.16-15.4c.73-1.76.38-3.25-1.33-1.6-1,1-1.76,2.38-2.86,3.32a9.88,9.88,0,0,1-6.52,2.44c-5.27,0-7.9-3.62-10-6.53s-3.38-4.47-6-4.47-3.9,1.62-6,4.47-4.75,6.53-10,6.53-7.91-3.62-10-6.53-3.38-4.47-6-4.47-3.9,1.62-6,4.47-4.75,6.53-10,6.53-7.9-3.62-10-6.53l-.36-.49a2.51,2.51,0,0,1,.76-3.64,2.6,2.6,0,0,1,3.36.8l.29.39c2.07,2.86,3.37,4.47,6,4.47s3.9-1.61,6-4.47,4.75-6.53,10-6.53,7.91,3.62,10,6.53,3.38,4.47,6,4.47,3.9-1.61,6-4.47,4.75-6.53,10-6.53,7.91,3.62,10,6.53,3.38,4.47,6,4.47,3.91-1.61,6-4.47a18.15,18.15,0,0,1,5-5.14,11.25,11.25,0,0,0,5.29-7.17c.33-1.54.63-3.09.89-4.65A2.2,2.2,0,0,0,200,118h0c-2.6,0-3.9,1.62-6,4.47s-4.75,6.53-10,6.53-7.91-3.62-10-6.53-3.38-4.47-6-4.47-3.9,1.62-6,4.47-4.75,6.53-10,6.53-7.9-3.62-10-6.53-3.37-4.47-6-4.47-3.91,1.62-6,4.47S125.22,129,120,129s-7.91-3.62-10-6.53-3.38-4.47-6-4.47-3.9,1.62-6,4.47l-.37.51a2.51,2.51,0,0,1-3.7.38,2.61,2.61,0,0,1-.26-3.45l.28-.38c2.12-2.91,4.75-6.53,10-6.53s7.91,3.62,10,6.53,3.38,4.47,6,4.47,3.9-1.61,6-4.47,4.74-6.53,10-6.53,7.9,3.62,10,6.53,3.37,4.47,6,4.47,3.9-1.61,6-4.47,4.75-6.53,10-6.53,7.91,3.62,10,6.53,3.38,4.47,6,4.47,3.9-1.61,6-4.47,4.75-6.53,10-6.53c.28,0,.56,0,.82,0a2.18,2.18,0,0,0,2.4-2q.26-3.77.22-7.54A3.52,3.52,0,0,0,200,100h0c-2.6,0-3.9,1.62-6,4.47s-4.75,6.53-10,6.53-7.9-3.62-10-6.53-3.38-4.47-6-4.47-3.9,1.62-6,4.47-4.75,6.53-10,6.53-7.9-3.62-10-6.53-3.37-4.47-6-4.47-3.91,1.62-6,4.47S125.22,111,120,111s-7.91-3.62-10-6.53c-.35-.48-.71-1-1.07-1.43a2.51,2.51,0,0,1,.63-3.65,2.6,2.6,0,0,1,3.41.7c.37.47.72,1,1.07,1.44,2.08,2.86,3.38,4.47,6,4.47s3.9-1.61,6-4.47S130.67,95,136,95s7.9,3.62,10,6.53,3.37,4.47,6,4.47,3.9-1.61,6-4.47,4.75-6.53,10-6.53,7.91,3.62,10,6.53,3.38,4.47,6,4.47,3.9-1.61,6-4.47,4.75-6.53,10-6.53l.67,0a2,2,0,0,0,2.13-2.15c-.3-2.6-.14-8.42-2.73-10s-4.74,1.77-6,3.57c-2.12,2.91-4.75,6.53-10,6.53s-7.9-3.62-10-6.53S170.55,82,168,82s-3.91,1.62-6,4.47S157.22,93,152,93s-7.91-3.62-10-6.53a2.49,2.49,0,0,1,.61-3.53,2.59,2.59,0,0,1,3.26.42l.17.17c2.08,2.86,3.38,4.47,6,4.47s3.9-1.61,6-4.47S162.67,77,168,77s7.9,3.62,10,6.53,3.37,4.47,6,4.47,3.9-1.61,6-4.47c1.5-2,3.25-4.46,6-5.69a4.22,4.22,0,0,0,2.37-5.05c-.44-1.33-.91-2.64-1.4-3.95A1.67,1.67,0,0,0,194,68.4l0,0c-2.11,2.91-4.75,6.53-10,6.53s-7.91-3.62-10-6.53-3.38-4.47-6-4.47-3.9,1.62-6,4.47-4.75,6.53-10,6.53-7.9-3.62-10-6.53S138.55,64,136,64s-3.91,1.62-6,4.47S125.22,75,120,75s-7.91-3.62-10-6.53S106.55,64,104,64c-2.31,0-3.6,1.23-5.62,4a2.49,2.49,0,0,1-3.69.37,2.6,2.6,0,0,1-.26-3.44C96.14,62.46,98.8,59,104,59s7.91,3.62,10,6.53S117.35,70,120,70s3.9-1.61,6-4.47S130.67,59,136,59s7.9,3.62,10,6.53,3.37,4.47,6,4.47,3.9-1.61,6-4.47,4.75-6.53,10-6.53,7.91,3.62,10,6.53,3.38,4.47,6,4.47,3.9-1.61,6-4.47c.56-.77,1.16-1.59,1.84-2.38a4.18,4.18,0,0,0,.51-4.63l0-.06a4.12,4.12,0,0,0-5-2,9.71,9.71,0,0,1-3.27.53c-5.27,0-7.9-3.62-10-6.53s-3.38-4.47-6-4.47-3.9,1.62-6,4.47-4.75,6.53-10,6.53-7.91-3.62-10-6.53-3.38-4.47-6-4.47-3.9,1.62-6,4.47-4.75,6.53-10,6.53-7.9-3.62-10-6.53l-.36-.49a2.51,2.51,0,0,1,.76-3.64,2.6,2.6,0,0,1,3.36.8l.29.39c2.07,2.86,3.37,4.47,6,4.47s3.9-1.61,6-4.47,4.75-6.53,10-6.53,7.91,3.62,10,6.53,3.38,4.47,6,4.47,3.9-1.61,6-4.47,4.75-6.53,10-6.53,7.91,3.62,10,6.53,3.38,4.47,6,4.47H184a2.49,2.49,0,0,0,2.06-3.88,98.87,98.87,0,0,0-11.67-14Q172.07,31.71,169.62,29.59Z"/><path d="M30.49,30.49a104.25,104.25,0,1,0,147.43,0A104.36,104.36,0,0,0,30.49,30.49ZM184,52h-.05c-2.6,0-3.9-1.61-6-4.47s-4.75-6.53-10-6.53-7.91,3.62-10,6.53-3.38,4.47-6,4.47-3.9-1.61-6-4.47-4.74-6.53-10-6.53-7.9,3.62-10,6.53-3.38,4.47-6,4.47-3.9-1.61-6-4.47l-.29-.39a2.6,2.6,0,0,0-3.36-.8,2.51,2.51,0,0,0-.76,3.64l.36.49c2.12,2.91,4.75,6.53,10,6.53s7.91-3.62,10-6.53,3.37-4.47,6-4.47,3.9,1.62,6,4.47,4.75,6.53,10,6.53,7.91-3.62,10-6.53,3.38-4.47,6-4.47,3.9,1.62,6,4.47,4.75,6.53,10,6.53a9.71,9.71,0,0,0,3.27-.53,4.12,4.12,0,0,1,5,2l0,.06a4.18,4.18,0,0,1-.51,4.63c-.68.79-1.28,1.61-1.84,2.38-2.08,2.86-3.38,4.47-6,4.47s-3.9-1.61-6-4.47-4.74-6.53-10-6.53-7.9,3.62-10,6.53-3.38,4.47-6,4.47-3.9-1.61-6-4.47S141.22,59,136,59s-7.91,3.62-10,6.53S122.55,70,120,70s-3.9-1.61-6-4.47S109.22,59,104,59s-7.81,3.51-9.57,5.91a2.6,2.6,0,0,0,.26,3.44,2.49,2.49,0,0,0,3.69-.37c2-2.75,3.31-4,5.62-4,2.6,0,3.9,1.62,6,4.47S114.68,75,120,75s7.9-3.62,10-6.53S133.35,64,136,64s3.9,1.62,6,4.47,4.75,6.53,10,6.53,7.91-3.62,10-6.53,3.37-4.47,6-4.47,3.9,1.62,6,4.47,4.75,6.53,10,6.53,7.91-3.62,10-6.53l0,0a1.67,1.67,0,0,1,2.92.39c.49,1.31,1,2.62,1.4,3.95a4.22,4.22,0,0,1-2.37,5.05c-2.76,1.23-4.51,3.64-6,5.69-2.08,2.86-3.38,4.47-6,4.47s-3.9-1.61-6-4.47S173.22,77,168,77s-7.91,3.62-10,6.53S154.55,88,152,88s-3.9-1.61-6-4.47l-.17-.17a2.59,2.59,0,0,0-3.26-.42,2.49,2.49,0,0,0-.61,3.53C144,89.33,146.68,93,152,93s7.9-3.62,10-6.53S165.35,82,168,82s3.9,1.62,6,4.47,4.75,6.53,10,6.53,7.91-3.62,10-6.53c1.3-1.8,3.35-5.18,6-3.57s2.43,7.37,2.73,10A2,2,0,0,1,200.61,95l-.67,0c-5.27,0-7.91,3.62-10,6.53s-3.38,4.47-6,4.47-3.9-1.61-6-4.47-4.74-6.53-10-6.53-7.9,3.62-10,6.53-3.38,4.47-6,4.47-3.9-1.61-6-4.47S141.22,95,136,95s-7.91,3.62-10,6.53-3.38,4.47-6,4.47-3.9-1.61-6-4.47c-.35-.48-.7-1-1.07-1.44a2.6,2.6,0,0,0-3.41-.7,2.51,2.51,0,0,0-.63,3.65c.36.47.72,1,1.07,1.43,2.11,2.91,4.75,6.53,10,6.53s7.9-3.62,10-6.53,3.38-4.47,6-4.47,3.9,1.62,6,4.47,4.75,6.53,10,6.53,7.91-3.62,10-6.53,3.37-4.47,6-4.47,3.9,1.62,6,4.47,4.75,6.53,10,6.53,7.91-3.62,10-6.53,3.38-4.47,6-4.47h0a3.52,3.52,0,0,1,3.4,3.51q0,3.78-.22,7.54a2.18,2.18,0,0,1-2.4,2c-.26,0-.54,0-.82,0-5.27,0-7.91,3.62-10,6.53s-3.38,4.47-6,4.47-3.9-1.61-6-4.47-4.74-6.53-10-6.53-7.9,3.62-10,6.53-3.38,4.47-6,4.47-3.9-1.61-6-4.47S141.22,113,136,113s-7.91,3.62-10,6.53-3.38,4.47-6,4.47-3.9-1.61-6-4.47S109.22,113,104,113s-7.9,3.62-10,6.53l-.28.38a2.61,2.61,0,0,0,.26,3.45,2.51,2.51,0,0,0,3.7-.38l.37-.51c2.07-2.85,3.37-4.47,6-4.47s3.9,1.62,6,4.47,4.75,6.53,10,6.53,7.9-3.62,10-6.53,3.38-4.47,6-4.47,3.9,1.62,6,4.47,4.75,6.53,10,6.53,7.91-3.62,10-6.53,3.37-4.47,6-4.47,3.9,1.62,6,4.47,4.75,6.53,10,6.53,7.91-3.62,10-6.53,3.38-4.47,6-4.47h0a2.2,2.2,0,0,1,2.09,2.57c-.26,1.56-.56,3.11-.89,4.65a11.25,11.25,0,0,1-5.29,7.17,18.15,18.15,0,0,0-5,5.14c-2.07,2.86-3.38,4.47-6,4.47s-3.9-1.61-6-4.47-4.75-6.53-10-6.53-7.91,3.62-10,6.53-3.38,4.47-6,4.47-3.9-1.61-6-4.47-4.74-6.53-10-6.53-7.9,3.62-10,6.53-3.38,4.47-6,4.47-3.9-1.61-6-4.47l-.29-.39a2.6,2.6,0,0,0-3.36-.8,2.51,2.51,0,0,0-.76,3.64l.36.49c2.12,2.91,4.75,6.53,10,6.53s7.91-3.62,10-6.53,3.37-4.47,6-4.47,3.9,1.62,6,4.47,4.75,6.53,10,6.53,7.91-3.62,10-6.53,3.38-4.47,6-4.47,3.9,1.62,6,4.47,4.75,6.53,10,6.53a9.88,9.88,0,0,0,6.52-2.44c1.1-.94,1.82-2.31,2.86-3.32,1.71-1.65,2.06-.16,1.33,1.6a96.52,96.52,0,0,1-8.16,15.4,3.51,3.51,0,0,1-1.17,1.16,4.67,4.67,0,0,1-2.38.6c-2.6,0-3.9-1.61-6-4.47s-4.74-6.53-10-6.53-7.9,3.62-10,6.53-3.38,4.47-6,4.47-3.9-1.61-6-4.47S141.22,149,136,149s-7.91,3.62-10,6.53-3.38,4.47-6,4.47-3.9-1.61-6-4.47S109.22,149,104,149s-7.81,3.51-9.57,5.91a2.6,2.6,0,0,0,.26,3.44,2.49,2.49,0,0,0,3.69-.37c2-2.75,3.31-4,5.62-4,2.6,0,3.9,1.62,6,4.47s4.75,6.53,10,6.53,7.9-3.62,10-6.53,3.38-4.47,6-4.47,3.9,1.62,6,4.47,4.75,6.53,10,6.53,7.91-3.62,10-6.53,3.37-4.47,6-4.47,3.9,1.62,6,4.47a18.18,18.18,0,0,0,5,5.15,3.29,3.29,0,0,1,.86,5l-.49.57a3.32,3.32,0,0,1-4.67.39,9.65,9.65,0,0,0-6.64-2.55c-5.27,0-7.9,3.62-10,6.53s-3.38,4.47-6,4.47-3.9-1.61-6-4.47S141.22,167,136,167s-7.91,3.62-10,6.53-3.38,4.47-6,4.47-3.9-1.61-6-4.47l-.17-.17a2.59,2.59,0,0,0-3.26-.42,2.49,2.49,0,0,0-.61,3.53c2.11,2.91,4.75,6.53,10,6.53s7.9-3.62,10-6.53,3.38-4.47,6-4.47,3.9,1.62,6,4.47,4.75,6.53,10,6.53,7.91-3.62,10-6.53,3.37-4.47,6-4.47a4.71,4.71,0,0,1,2.14.47,3.29,3.29,0,0,1,.67,5.38,99.36,99.36,0,0,1-133.14,0,3.28,3.28,0,0,1,1.73-5.69,5.18,5.18,0,0,1,.7,0c2.6,0,3.9,1.61,6,4.47S50.76,183,56,183s7.91-3.63,10-6.54S69.43,172,72,172s3.9,1.61,6,4.46S82.75,183,88,183s7.9-3.62,10-6.53l.27-.39a2.6,2.6,0,0,0-.25-3.44,2.51,2.51,0,0,0-3.7.38l-.37.5c-2.07,2.86-3.37,4.48-6,4.48s-3.9-1.62-6-4.47S77.3,167,72,167s-7.9,3.62-10,6.53S58.63,178,56,178s-3.9-1.62-6-4.48S45.31,167,40,167a9.59,9.59,0,0,0-6.44,2.37A3.28,3.28,0,0,1,29,169c-.18-.2-.36-.41-.53-.62a3.28,3.28,0,0,1,.68-4.9,18.39,18.39,0,0,0,4.79-5c2.08-2.85,3.38-4.47,6-4.47s3.9,1.62,6,4.47S50.69,165,56,165s7.9-3.62,10-6.53S69.36,154,72,154c2.27,0,3.56,1.19,5.52,3.85a2.6,2.6,0,0,0,3.38.8,2.5,2.5,0,0,0,.75-3.63c-1.76-2.39-4.41-6-9.65-6s-7.91,3.62-10,6.53S58.56,160,56,160s-3.9-1.61-6-4.47S45.23,149,40,149s-7.91,3.62-10,6.53S26.6,159.9,24.06,160a3.56,3.56,0,0,1-3-1.6,98.47,98.47,0,0,1-9.36-18.3,1.22,1.22,0,0,1,2.09-1.2c.37.47.76,1,1.18,1.57,2.11,2.91,4.75,6.53,10,6.53s7.9-3.62,10-6.53S38.36,136,41,136s3.9,1.62,6,4.47S51.68,147,57,147s7.9-3.62,10-6.53S70.35,136,73,136s3.9,1.62,6,4.47S83.68,147,89,147s7.9-3.62,10-6.53l.28-.38A2.61,2.61,0,0,0,99,136.6a2.5,2.5,0,0,0-3.7.37l-.37.51c-2.07,2.86-3.37,4.47-6,4.47s-3.9-1.61-6-4.47S78.22,131,73,131s-7.9,3.62-10,6.53S59.55,142,57,142s-3.91-1.61-6-4.47S46.23,131,41,131s-7.91,3.62-10,6.53S27.56,142,25,142s-3.9-1.61-6-4.47c-1.69-2.33-3.53-4.69-6.27-5.81-1.26-.52-2.89-.58-3.79-1.73a8.84,8.84,0,0,1-1.17-3.38c-.54-2.16-1-4.33-1.46-6.52A1.75,1.75,0,0,1,8,118c2.6,0,3.9,1.62,6,4.47S18.69,129,24,129s7.91-3.62,10-6.53S37.36,118,40,118s3.9,1.62,6,4.47S50.69,129,56,129s7.9-3.62,10-6.53S69.36,118,72,118s3.9,1.62,6,4.47l.29.39a2.59,2.59,0,0,0,3.36.8,2.51,2.51,0,0,0,.76-3.64l-.36-.49c-2.12-2.91-4.75-6.53-10-6.53s-7.91,3.62-10,6.53S58.56,124,56,124s-3.9-1.61-6-4.47S45.23,113,40,113s-7.91,3.62-10,6.53S26.56,124,24,124s-3.9-1.61-6-4.47S13.24,113,7.93,113a2.75,2.75,0,0,1-2.73-2.59C5,107.75,5,105.14,5,102.54A2.6,2.6,0,0,1,7.26,100a5.24,5.24,0,0,1,.7,0c2.6,0,3.9,1.62,6,4.47S18.69,111,24,111s7.91-3.62,10-6.53S37.36,100,40,100s3.9,1.62,6,4.47S50.69,111,56,111s7.9-3.62,10-6.53S69.36,100,72,100s3.9,1.62,6,4.47S82.68,111,88,111s7.9-3.62,10-6.53c.33-.45.66-.9,1-1.34a2.6,2.6,0,0,0-.15-3.42,2.5,2.5,0,0,0-3.72.26q-.6.77-1.17,1.56c-2.08,2.86-3.38,4.47-6,4.47s-3.91-1.61-6-4.47S77.23,95,72,95s-7.91,3.62-10,6.53S58.56,106,56,106s-3.9-1.61-6-4.47S45.23,95,40,95s-7.91,3.62-10,6.53S26.56,106,24,106s-3.9-1.61-6-4.47S13.24,95,7.93,95A2.2,2.2,0,0,1,5.7,92.49C6,90.41,6.54,87.11,7,84.77a2.64,2.64,0,0,1,4.32-1.51,20.64,20.64,0,0,1,2.63,3.16C16.05,89.33,18.69,93,24,93s7.91-3.62,10-6.53S37.36,82,40,82s3.9,1.62,6,4.47S50.69,93,56,93s7.91-3.62,10-6.53S69.36,82,72,82s3.9,1.62,6,4.47S82.69,93,88,93s7.9-3.62,10-6.53S101.36,82,104,82s3.9,1.62,6,4.47S114.68,93,120,93a12.09,12.09,0,0,0,1.75-.13c.14,0,.26-.07.39-.1s.5-.11.74-.18l.58-.19a7.32,7.32,0,0,0,.81-.35c.2-.09.38-.2.57-.3l.38-.23c.31-.2.6-.41.89-.63l.17-.14A22.33,22.33,0,0,0,130,86.44l.28-.38a2.6,2.6,0,0,0-.26-3.44,2.49,2.49,0,0,0-3.69.37s-.37.5-.38.49a13.68,13.68,0,0,1-3.45,3.78l-.17.1a4.74,4.74,0,0,1-.51.24l-.27.1A4.88,4.88,0,0,1,120,88c-2.6,0-3.91-1.61-6-4.47S109.23,77,104,77s-7.91,3.62-10,6.53S90.56,88,88,88s-3.9-1.61-6-4.47S77.23,77,72,77s-7.91,3.62-10,6.53S58.56,88,56,88s-3.9-1.61-6-4.47S45.24,77,40,77s-7.91,3.62-10,6.53S26.56,88,24,88s-3.9-1.61-6-4.47c-1.56-2.14-3.39-4.66-6.35-5.84a3.27,3.27,0,0,1-1.82-4c.56-1.73,1.16-3.45,1.82-5.15a1.22,1.22,0,0,1,2.13-.28l.18.24C16.06,71.33,18.69,75,24,75s7.91-3.62,10-6.53S37.36,64,40,64s3.9,1.62,6,4.47S50.69,75,56,75s7.9-3.62,10-6.53S69.36,64,72,64c2.27,0,3.56,1.19,5.52,3.85a2.6,2.6,0,0,0,3.38.8A2.5,2.5,0,0,0,81.61,65c-1.76-2.39-4.41-6-9.65-6s-7.91,3.62-10,6.53S58.56,70,56,70s-3.9-1.61-6-4.47S45.23,59,40,59s-7.91,3.62-10,6.53S26.56,70,24,70s-3.9-1.61-6-4.47c-.63-.87-1.32-1.8-2.1-2.69a2.74,2.74,0,0,1-.4-3c.38-.76.77-1.5,1.17-2.25a2.83,2.83,0,0,1,3.59-1.25A9.49,9.49,0,0,0,24,57c5.27,0,7.9-3.62,10-6.53S37.36,46,40,46s3.9,1.62,6,4.47S50.68,57,56,57s7.9-3.62,10-6.53S69.35,46,72,46s3.9,1.62,6,4.47S82.68,57,88,57s7.9-3.62,10-6.53l.28-.38A2.6,2.6,0,0,0,98,46.6a2.5,2.5,0,0,0-3.7.37l-.37.51C91.85,50.34,90.55,52,88,52s-3.9-1.61-6-4.47S77.22,41,72,41s-7.9,3.62-10,6.53S58.55,52,56,52s-3.91-1.61-6-4.47S45.23,41,40,41s-7.91,3.62-10,6.53S26.56,52,24,52h0a2.22,2.22,0,0,1-1.84-3.46A99.07,99.07,0,0,1,34,34c1.36-1.36,2.76-2.67,4.18-3.92a4.43,4.43,0,0,1,6.37.51c.43.53.88,1.14,1.37,1.81C48.05,35.33,50.69,39,56,39s7.9-3.62,10-6.53S69.36,28,72,28s3.9,1.62,6,4.47l.29.39a2.59,2.59,0,0,0,3.36.8A2.51,2.51,0,0,0,82.34,30L82,29.48C79.86,26.57,77.23,23,72,23s-7.91,3.62-10,6.53S58.56,34,56,34s-3.9-1.61-6-4.47c-.42-.57-.85-1.17-1.33-1.76a4.43,4.43,0,0,1,1.07-6.46l.07-.05a4.62,4.62,0,0,1,3.68-.56A10.11,10.11,0,0,0,56,21c5.27,0,7.9-3.62,10-6.53l.81-1.1a6.41,6.41,0,0,1,2.89-2.14h0a6.47,6.47,0,0,1,7.41,2.16c.26.34.53.7.81,1.09C80.05,17.33,82.68,21,88,21s7.9-3.62,10-6.53c.33-.45.66-.9,1-1.34a2.6,2.6,0,0,0-.15-3.42,2.5,2.5,0,0,0-3.72.26q-.6.76-1.17,1.56C91.85,14.34,90.55,16,88,16s-3.91-1.61-6-4.47l0,0a2.74,2.74,0,0,1,1.64-4.29,99.36,99.36,0,0,1,40.78-.09A2.74,2.74,0,0,1,126,11.36l-.09.12c-2.08,2.86-3.38,4.47-6,4.47s-3.9-1.61-6-4.47c-.35-.48-.7-1-1.07-1.44a2.6,2.6,0,0,0-3.41-.7,2.51,2.51,0,0,0-.63,3.65c.36.47.72.95,1.07,1.43C112,17.33,114.68,21,120,21s7.9-3.62,10-6.53c.4-.55.77-1.06,1.13-1.51a6.15,6.15,0,0,1,6.94-2h0a5.91,5.91,0,0,1,2.64,1.87c.38.48.77,1,1.2,1.6,2.12,2.91,4.75,6.53,10,6.53a9.89,9.89,0,0,0,3-.44,3.82,3.82,0,0,1,3.21.39l.83.54a3.78,3.78,0,0,1,.82,5.62c-.69.8-1.3,1.64-1.87,2.42-2.08,2.86-3.38,4.47-6,4.47s-3.9-1.61-6-4.47S141.22,23,136,23s-7.91,3.62-10,6.53S122.55,34,120,34s-3.9-1.61-6-4.47S109.22,23,104,23s-7.9,3.62-10,6.53l-.28.38a2.61,2.61,0,0,0,.26,3.45,2.51,2.51,0,0,0,3.7-.38l.37-.51c2.07-2.85,3.37-4.47,6-4.47s3.9,1.62,6,4.47S114.68,39,120,39s7.9-3.62,10-6.53S133.35,28,136,28s3.9,1.62,6,4.47,4.75,6.53,10,6.53,7.91-3.62,10-6.53A27.3,27.3,0,0,1,164,29.83a4,4,0,0,1,5.6-.24q2.44,2.11,4.76,4.43a98.87,98.87,0,0,1,11.67,14A2.49,2.49,0,0,1,184,52Z"/></g></g></svg>