<svg xmlns="http://www.w3.org/2000/svg" viewBox="0 0 208.4 208.4"><defs><style>.cls-1{fill:#ddb190;}</style></defs><title>Asset 17</title><g id="Layer_2" data-name="Layer 2"><g id="Layer_2-2" data-name="Layer 2"><path class="cls-1" d="M84.77,10.78a5.56,5.56,0,0,0,1.19.13,5.14,5.14,0,0,0,4.07-2c.27-.3.75-.91,1.21-1.52A.86.86,0,0,0,90.45,6q-2.81.39-5.59.93A2,2,0,0,0,84.77,10.78Z"/><path class="cls-1" d="M113.59,8.55c1.3,1.53,2.49,2.36,4.36,2.36a4.64,4.64,0,0,0,3.15-1.15,2,2,0,0,0-1-3.48q-3.56-.56-7.12-.87a.86.86,0,0,0-.76,1.38C112.77,7.5,113.33,8.25,113.59,8.55Z"/><path class="cls-1" d="M166,26.51a4.17,4.17,0,0,0-6,.83l0,0c-2.12,2.91-4.75,6.53-10,6.53s-7.9-3.62-10-6.53-3.37-4.47-6-4.47-3.9,1.61-6,4.47-4.75,6.53-10,6.53c-4.45,0-7-2.59-9-5.13a2.49,2.49,0,0,1,.67-3.65,2.63,2.63,0,0,1,3.4.74c1.49,1.93,2.8,3,4.91,3,2.6,0,3.9-1.61,6-4.47s4.75-6.53,10-6.53,7.9,3.62,10,6.53,3.37,4.47,6,4.47,3.9-1.61,6-4.47l0,0a3.87,3.87,0,0,0-1.15-5.6,98.88,98.88,0,0,0-21.28-9.39,6.84,6.84,0,0,0-7.25,2.18l0,0c-1.88,2.25-4.35,4.29-8.3,4.29-5.27,0-7.91-3.62-10-6.53a22.22,22.22,0,0,0-2.45-3,5.07,5.07,0,0,0-3.64-1.34h0A5.13,5.13,0,0,0,98.4,6.41a21.69,21.69,0,0,0-2.42,3c-2.12,2.91-4.75,6.53-10,6.53a10,10,0,0,1-7.61-3.49,6.63,6.63,0,0,0-7-1.85A98.24,98.24,0,0,0,50,21.06a3.44,3.44,0,0,0-.82,5h0c1.45,1.82,2.69,2.82,4.74,2.82,2.6,0,3.9-1.61,6-4.47s4.74-6.53,10-6.53,7.9,3.62,10,6.53,3.38,4.47,6,4.47c2.15,0,3.47-1.16,5-3.17a2.51,2.51,0,0,1,3.69-.31,2.59,2.59,0,0,1,.19,3.46c-1.93,2.5-4.51,5-8.89,5-5.28,0-7.91-3.62-10-6.53s-3.37-4.47-6-4.47-3.9,1.61-6,4.47-4.75,6.53-10,6.53c-4.12,0-6.63-2.21-8.54-4.56v0a4,4,0,0,0-5.69-.55c-2,1.66-3.86,3.4-5.7,5.24s-3.46,3.6-5.08,5.49c-.8.93-1.57,1.87-2.33,2.83-.35.43-2.18,2.17-.93,2.49.52.13.79-.45,1.07-.81.41-.51.8-1,1.19-1.58,2.11-2.91,4.75-6.53,10-6.53s7.91,3.62,10,6.53,3.38,4.48,6,4.48,3.9-1.62,6-4.48,4.74-6.53,10-6.53,7.9,3.62,10,6.53,3.38,4.48,6,4.48a4.88,4.88,0,0,0,1.65-.27,2.49,2.49,0,0,1,3.25,1.69A2.67,2.67,0,0,1,89,51.46a10.15,10.15,0,0,1-3,.46c-5.28,0-7.91-3.63-10-6.54s-3.37-4.47-6-4.47-3.9,1.62-6,4.47-4.75,6.54-10,6.54-7.91-3.63-10-6.54-3.38-4.47-6-4.47-3.9,1.62-6,4.47-4.74,6.54-10,6.54a3.51,3.51,0,0,0-3.1,1.66C18,55,17.23,56.4,16.47,57.84a3.4,3.4,0,0,0,.33,3.68c.48.63,1,1.25,1.26,1.55A5,5,0,0,0,22,64.92c2.6,0,3.9-1.62,6-4.47s4.75-6.53,10-6.53,7.91,3.62,10,6.53,3.38,4.47,6,4.47,3.9-1.62,6-4.47,4.74-6.53,10-6.53,7.9,3.62,10,6.53,3.38,4.47,6,4.47c2.15,0,3.47-1.16,5-3.17a2.51,2.51,0,0,1,3.69-.31,2.6,2.6,0,0,1,.2,3.46c-1.94,2.5-4.52,5-8.9,5-5.28,0-7.91-3.62-10-6.53s-3.37-4.47-6-4.47-3.9,1.61-6,4.47-4.75,6.53-10,6.53-7.91-3.62-10-6.53-3.38-4.47-6-4.47-3.9,1.61-6,4.47-4.74,6.53-10,6.53a9.5,9.5,0,0,1-5.65-1.77,3.4,3.4,0,0,0-5.15,1.58l-.17.48A3.38,3.38,0,0,0,12,74,21.34,21.34,0,0,1,16,78.45c2.08,2.86,3.38,4.47,6,4.47s3.9-1.61,6-4.47,4.75-6.53,10-6.53,7.91,3.62,10,6.53,3.38,4.47,6,4.47,3.9-1.61,6-4.47,4.74-6.53,10-6.53,7.9,3.62,10,6.53,3.38,4.47,6,4.47,3.89-1.61,6-4.47a20.64,20.64,0,0,1,4-4.49,2.52,2.52,0,0,1,4,1.65,2.43,2.43,0,0,1-1,2.34,17.18,17.18,0,0,0-3,3.44c-2.11,2.91-4.74,6.53-10,6.53s-7.91-3.62-10-6.53-3.37-4.47-6-4.47-3.9,1.62-6,4.47-4.75,6.53-10,6.53-7.91-3.62-10-6.53-3.38-4.47-6-4.47-3.9,1.62-6,4.47-4.74,6.53-10,6.53-7.9-3.62-10-6.53l0-.07a2.49,2.49,0,0,0-4.44.94c-.16.7-.31,1.39-.45,2.09a5.77,5.77,0,0,0,3.08,6.45c2.7,1.25,4.43,3.63,5.91,5.66,2.07,2.85,3.37,4.47,6,4.47s3.9-1.62,6-4.47,4.75-6.53,10-6.53,7.91,3.62,10,6.53,3.38,4.47,6,4.47,3.9-1.62,6-4.47,4.74-6.53,10-6.53,7.9,3.62,10,6.53,3.38,4.47,6,4.47c2.15,0,3.47-1.17,5-3.17a2.5,2.5,0,0,1,3.69-.31,2.59,2.59,0,0,1,.19,3.46c-1.93,2.5-4.51,5-8.89,5-5.28,0-7.91-3.62-10-6.53s-3.37-4.47-6-4.47-3.9,1.61-6,4.47-4.75,6.53-10,6.53-7.91-3.62-10-6.53-3.38-4.47-6-4.47-3.9,1.61-6,4.47-4.74,6.53-10,6.53-7.9-3.62-10-6.53c-1.57-2.17-2.7-3.62-4.28-4.19a1.77,1.77,0,0,0-2.38,1.51q-.29,4-.26,8a3.43,3.43,0,0,0,2.82,3.38c4.06.75,6.3,3.83,8.15,6.37,2.07,2.86,3.37,4.47,6,4.47s3.9-1.61,6-4.47,4.75-6.53,10-6.53,7.91,3.62,10,6.53,3.38,4.47,6,4.47,3.9-1.61,6-4.47,4.74-6.53,10-6.53,7.9,3.62,10,6.53,3.38,4.47,6,4.47a4.84,4.84,0,0,0,1.65-.27,2.5,2.5,0,0,1,3.25,1.69A2.68,2.68,0,0,1,89,123.48a10.05,10.05,0,0,1-3,.45c-5.28,0-7.91-3.62-10-6.53s-3.37-4.47-6-4.47-3.9,1.62-6,4.47-4.75,6.53-10,6.53-7.91-3.62-10-6.53-3.38-4.47-6-4.47-3.9,1.61-6,4.47-4.74,6.53-10,6.53-7.9-3.62-10-6.53a15.87,15.87,0,0,0-3.14-3.57,1,1,0,0,0-.23-.14,2,2,0,0,0-2.88,2.14c.27,2.28.62,4.56,1,6.82A5.7,5.7,0,0,0,10,126.78c2.75,1.23,4.5,3.63,6,5.68,2.07,2.86,3.37,4.48,6,4.48s3.9-1.62,6-4.48,4.75-6.53,10-6.53,7.91,3.62,10,6.53,3.38,4.48,6,4.48,3.9-1.62,6-4.48,4.74-6.53,10-6.53,7.9,3.62,10,6.53,3.38,4.48,6,4.48c2.15,0,3.47-1.17,5-3.17a2.49,2.49,0,0,1,3.69-.3,2.59,2.59,0,0,1,.19,3.45c-1.94,2.5-4.52,5-8.89,5-5.28,0-7.91-3.62-10-6.53s-3.37-4.48-6-4.48-3.9,1.62-6,4.48-4.75,6.53-10,6.53-7.91-3.62-10-6.53-3.38-4.48-6-4.48-3.9,1.62-6,4.48-4.74,6.53-10,6.53c-4.43,0-7-2.6-9-5.11C12,135.52,10.19,136,10.91,138a99.69,99.69,0,0,0,6.57,14.41c1.34,1.62,2.56,2.51,4.48,2.51,2.6,0,3.9-1.61,6-4.47s4.75-6.53,10-6.53,7.91,3.62,10,6.53,3.38,4.47,6,4.47,3.9-1.61,6-4.47,4.74-6.53,10-6.53,7.9,3.62,10,6.53,3.38,4.47,6,4.47,3.89-1.61,6-4.47a20.64,20.64,0,0,1,4-4.49,2.52,2.52,0,0,1,4,1.64,2.46,2.46,0,0,1-1,2.35,17.18,17.18,0,0,0-3,3.44c-2.11,2.91-4.74,6.53-10,6.53s-7.91-3.62-10-6.53-3.37-4.47-6-4.47-3.9,1.61-6,4.47-4.75,6.53-10,6.53-7.91-3.62-10-6.53-3.38-4.47-6-4.47-3.9,1.61-6,4.47c-1.57,2.16-3.43,4.72-6.45,5.89a2.58,2.58,0,0,0-1.08,3.95c.56.75,1.13,1.5,1.71,2.24a2.64,2.64,0,0,0,4,.11A10.06,10.06,0,0,1,38,161.94c5.27,0,7.91,3.62,10,6.53S51.36,173,54,173s3.9-1.62,6-4.48,4.74-6.53,10-6.53,7.9,3.62,10,6.53S83.36,173,86,173c2.15,0,3.47-1.17,5-3.18a2.5,2.5,0,0,1,3.69-.3,2.59,2.59,0,0,1,.2,3.45c-1.94,2.5-4.52,5-8.9,5-5.28,0-7.91-3.63-10-6.54s-3.37-4.47-6-4.47-3.9,1.62-6,4.47S59.23,178,54,178s-7.91-3.63-10-6.54-3.38-4.47-6-4.47a5.24,5.24,0,0,0-4.2,2.18,3.77,3.77,0,0,0,.12,5.13l.14.13a99.38,99.38,0,0,0,137.38,2.87,4.4,4.4,0,0,0,.54-5.81l0,0c-2.08-2.85-3.38-4.47-6-4.47s-3.9,1.62-6,4.47-4.75,6.54-10,6.54-7.9-3.63-10-6.54-3.37-4.47-6-4.47-3.9,1.62-6,4.47S123.22,178,118,178c-4.45,0-7-2.6-9-5.13a2.49,2.49,0,0,1,.67-3.65,2.62,2.62,0,0,1,3.4.74c1.5,1.92,2.8,3,4.91,3,2.6,0,3.9-1.62,6-4.48s4.75-6.53,10-6.53,7.9,3.62,10,6.53,3.37,4.48,6,4.48,3.9-1.62,6-4.48,4.75-6.53,10-6.53,7.91,3.62,10,6.53l0,0a2.38,2.38,0,0,0,3.73.12c1.79-2.1,3.47-4.26,5.06-6.46a1.47,1.47,0,0,0-1.37-2.32,9.75,9.75,0,0,1-1.46.1c-5.27,0-7.91-3.62-10-6.53s-3.38-4.47-6-4.47-3.9,1.61-6,4.47-4.75,6.53-10,6.53-7.9-3.62-10-6.53-3.37-4.47-6-4.47-3.9,1.61-6,4.47-4.75,6.53-10,6.53a9.78,9.78,0,0,1-3.56-.64,2.5,2.5,0,0,1-1.29-3.54,2.61,2.61,0,0,1,3.18-1.09,4.92,4.92,0,0,0,1.67.27c2.6,0,3.9-1.61,6-4.47s4.75-6.53,10-6.53,7.9,3.62,10,6.53,3.37,4.47,6,4.47,3.9-1.61,6-4.47,4.75-6.53,10-6.53,7.91,3.62,10,6.53,3.38,4.47,6,4.47,3.9-1.61,6-4.47a20.84,20.84,0,0,1,3.94-4.43,15.92,15.92,0,0,0,5.22-6.94q1.2-3.19,2.17-6.45a1.35,1.35,0,0,0-1.29-1.72h0c-2.6,0-3.9,1.62-6,4.48s-4.75,6.53-10,6.53-7.91-3.62-10-6.53-3.38-4.48-6-4.48-3.9,1.62-6,4.48-4.75,6.53-10,6.53-7.9-3.62-10-6.53-3.37-4.48-6-4.48-3.9,1.62-6,4.48-4.75,6.53-10,6.53c-4.45,0-7-2.59-9-5.13a2.5,2.5,0,0,1,.67-3.65,2.63,2.63,0,0,1,3.4.74c1.5,1.93,2.8,3,4.91,3,2.6,0,3.9-1.62,6-4.48s4.75-6.53,10-6.53,7.9,3.62,10,6.53,3.37,4.48,6,4.48,3.9-1.62,6-4.48,4.75-6.53,10-6.53,7.91,3.62,10,6.53,3.38,4.48,6,4.48,3.9-1.62,6-4.48,4.75-6.53,10-6.53h0a3.71,3.71,0,0,0,3.65-3q.47-2.46.81-4.92a4.48,4.48,0,0,0-4.43-5h-.06c-2.6,0-3.9,1.62-6,4.47s-4.75,6.53-10,6.53-7.91-3.62-10-6.53-3.38-4.47-6-4.47-3.9,1.62-6,4.47-4.75,6.53-10,6.53-7.9-3.62-10-6.53-3.37-4.47-6-4.47-3.9,1.62-6,4.47-4.75,6.53-10,6.53-7.91-3.62-10-6.53a16.86,16.86,0,0,0-3-3.46,2.5,2.5,0,0,1-.33-3.66,2.58,2.58,0,0,1,3.49-.22,20.92,20.92,0,0,1,3.88,4.4c2.08,2.86,3.38,4.47,6,4.47s3.9-1.61,6-4.47,4.75-6.53,10-6.53,7.9,3.62,10,6.53,3.37,4.47,6,4.47,3.9-1.61,6-4.47,4.75-6.53,10-6.53,7.91,3.62,10,6.53,3.38,4.47,6,4.47,3.9-1.61,6-4.47,4.75-6.53,10-6.53a10.59,10.59,0,0,1,2.26.24,2.55,2.55,0,0,0,3.18-2.41c0-1.64,0-3.28,0-4.92a6.45,6.45,0,0,0-2.53-5,4.59,4.59,0,0,0-2.86-.91c-2.6,0-3.9,1.61-6,4.47s-4.75,6.53-10,6.53-7.91-3.62-10-6.53-3.38-4.47-6-4.47-3.9,1.61-6,4.47-4.75,6.53-10,6.53-7.9-3.62-10-6.53-3.37-4.47-6-4.47-3.9,1.61-6,4.47-4.75,6.53-10,6.53c-4.45,0-7-2.59-9-5.13a2.49,2.49,0,0,1,.67-3.65,2.63,2.63,0,0,1,3.4.74c1.49,1.93,2.8,3,4.91,3,2.6,0,3.9-1.62,6-4.47s4.75-6.53,10-6.53,7.9,3.62,10,6.53,3.37,4.47,6,4.47,3.9-1.62,6-4.47,4.75-6.53,10-6.53,7.91,3.62,10,6.53,3.38,4.47,6,4.47,3.9-1.62,6-4.47,4.75-6.53,10-6.53a10.32,10.32,0,0,1,1.61.12A2.12,2.12,0,0,0,202,87.63c-.51-3.07-1.18-6.12-2-9.14A2.14,2.14,0,0,0,198,76.92h0c-2.6,0-3.9,1.62-6,4.47s-4.75,6.53-10,6.53-7.91-3.62-10-6.53-3.38-4.47-6-4.47-3.9,1.62-6,4.47-4.75,6.53-10,6.53-7.9-3.62-10-6.53-3.37-4.47-6-4.47-3.9,1.62-6,4.47-4.75,6.53-10,6.53a9.78,9.78,0,0,1-3.56-.64,2.49,2.49,0,0,1-1.29-3.53,2.6,2.6,0,0,1,3.18-1.1,4.92,4.92,0,0,0,1.67.27c2.6,0,3.9-1.61,6-4.47s4.75-6.53,10-6.53,7.9,3.62,10,6.53,3.37,4.47,6,4.47,3.9-1.61,6-4.47,4.75-6.53,10-6.53,7.91,3.62,10,6.53,3.38,4.47,6,4.47,3.9-1.61,6-4.47c1.58-2.18,3.46-4.76,6.53-5.92h0a3.55,3.55,0,0,0,2.08-4.61c-.56-1.43-1.16-2.84-1.79-4.25a1.62,1.62,0,0,0-2.79-.3l0,0c-2.11,2.91-4.75,6.53-10,6.53s-7.91-3.62-10-6.53-3.38-4.47-6-4.47-3.9,1.61-6,4.47-4.75,6.53-10,6.53-7.9-3.62-10-6.53-3.37-4.47-6-4.47-3.9,1.61-6,4.47-4.75,6.53-10,6.53c-4.45,0-7-2.59-9-5.13a2.49,2.49,0,0,1,.67-3.65,2.63,2.63,0,0,1,3.4.74c1.5,1.93,2.8,3,4.91,3,2.6,0,3.9-1.62,6-4.47s4.75-6.53,10-6.53,7.9,3.62,10,6.53,3.37,4.47,6,4.47,3.9-1.62,6-4.47,4.75-6.53,10-6.53,7.91,3.62,10,6.53,3.38,4.47,6,4.47,3.9-1.62,6-4.47c.41-.57.85-1.17,1.33-1.76a4.45,4.45,0,0,0,.35-5l0-.06a4.34,4.34,0,0,0-4.89-2,10.12,10.12,0,0,1-2.73.37c-5.27,0-7.91-3.63-10-6.54s-3.38-4.47-6-4.47-3.9,1.62-6,4.47-4.75,6.54-10,6.54-7.9-3.63-10-6.54-3.37-4.47-6-4.47-3.9,1.62-6,4.47-4.75,6.54-10,6.54-7.91-3.63-10-6.54a17.13,17.13,0,0,0-3-3.46,2.5,2.5,0,0,1-.33-3.66,2.59,2.59,0,0,1,3.49-.22A21.22,21.22,0,0,1,112,42.45c2.08,2.85,3.38,4.47,6,4.47s3.9-1.62,6-4.48,4.75-6.53,10-6.53,7.9,3.62,10,6.53,3.37,4.48,6,4.48,3.9-1.62,6-4.48,4.75-6.53,10-6.53,7.91,3.62,10,6.53,3.38,4.48,6,4.48h0a1.67,1.67,0,0,0,1.32-2.67A99.17,99.17,0,0,0,166,26.51Z"/><path d="M30.49,30.49a104.25,104.25,0,1,0,147.43,0A104.36,104.36,0,0,0,30.49,30.49ZM113,5.41q3.57.31,7.12.87a2,2,0,0,1,1,3.48A4.64,4.64,0,0,1,118,10.91c-1.87,0-3.06-.83-4.36-2.36-.26-.3-.82-1.05-1.35-1.76A.86.86,0,0,1,113,5.41ZM84.86,6.9q2.79-.54,5.59-.93a.86.86,0,0,1,.79,1.38C90.78,8,90.3,8.57,90,8.87a5.14,5.14,0,0,1-4.07,2,5.56,5.56,0,0,1-1.19-.13A2,2,0,0,1,84.86,6.9Zm97.11,40h0c-2.6,0-3.9-1.62-6-4.48s-4.74-6.53-10-6.53-7.9,3.62-10,6.53-3.38,4.48-6,4.48-3.9-1.62-6-4.48-4.75-6.53-10-6.53-7.91,3.62-10,6.53-3.37,4.48-6,4.48-3.9-1.62-6-4.47A21.22,21.22,0,0,0,108.09,38a2.59,2.59,0,0,0-3.49.22,2.5,2.5,0,0,0,.33,3.66,17.13,17.13,0,0,1,3,3.46c2.11,2.91,4.75,6.54,10,6.54s7.9-3.63,10-6.54,3.38-4.47,6-4.47,3.9,1.62,6,4.47,4.75,6.54,10,6.54,7.91-3.63,10-6.54,3.37-4.47,6-4.47,3.9,1.62,6,4.47,4.75,6.54,10,6.54a10.12,10.12,0,0,0,2.73-.37,4.34,4.34,0,0,1,4.89,2l0,.06a4.45,4.45,0,0,1-.35,5c-.48.59-.92,1.19-1.33,1.76-2.08,2.85-3.38,4.47-6,4.47s-3.9-1.62-6-4.47-4.74-6.53-10-6.53-7.9,3.62-10,6.53-3.38,4.47-6,4.47-3.9-1.62-6-4.47-4.75-6.53-10-6.53-7.91,3.62-10,6.53-3.37,4.47-6,4.47c-2.11,0-3.41-1.11-4.91-3a2.63,2.63,0,0,0-3.4-.74,2.49,2.49,0,0,0-.67,3.65c1.94,2.54,4.53,5.13,9,5.13,5.27,0,7.9-3.62,10-6.53s3.38-4.47,6-4.47,3.9,1.61,6,4.47,4.75,6.53,10,6.53,7.91-3.62,10-6.53,3.37-4.47,6-4.47,3.9,1.61,6,4.47,4.75,6.53,10,6.53,7.91-3.62,10-6.53l0,0a1.62,1.62,0,0,1,2.79.3c.63,1.41,1.23,2.82,1.79,4.25a3.55,3.55,0,0,1-2.08,4.61h0c-3.07,1.16-4.95,3.74-6.53,5.92-2.08,2.86-3.38,4.47-6,4.47s-3.9-1.61-6-4.47-4.74-6.53-10-6.53-7.9,3.62-10,6.53-3.38,4.47-6,4.47-3.9-1.61-6-4.47-4.75-6.53-10-6.53-7.91,3.62-10,6.53-3.37,4.47-6,4.47a4.92,4.92,0,0,1-1.67-.27,2.6,2.6,0,0,0-3.18,1.1,2.49,2.49,0,0,0,1.29,3.53,9.78,9.78,0,0,0,3.56.64c5.27,0,7.9-3.62,10-6.53s3.38-4.47,6-4.47,3.9,1.62,6,4.47,4.75,6.53,10,6.53,7.91-3.62,10-6.53,3.37-4.47,6-4.47,3.9,1.62,6,4.47,4.75,6.53,10,6.53,7.91-3.62,10-6.53,3.38-4.47,6-4.47h0A2.14,2.14,0,0,1,200,78.49c.8,3,1.47,6.07,2,9.14a2.12,2.12,0,0,1-2.45,2.42,10.32,10.32,0,0,0-1.61-.12c-5.27,0-7.91,3.62-10,6.53s-3.38,4.47-6,4.47-3.9-1.62-6-4.47-4.74-6.53-10-6.53-7.9,3.62-10,6.53-3.38,4.47-6,4.47-3.9-1.62-6-4.47-4.75-6.53-10-6.53-7.91,3.62-10,6.53-3.37,4.47-6,4.47c-2.11,0-3.42-1.11-4.91-3a2.63,2.63,0,0,0-3.4-.74,2.49,2.49,0,0,0-.67,3.65c1.94,2.54,4.53,5.13,9,5.13,5.27,0,7.9-3.62,10-6.53s3.38-4.47,6-4.47,3.9,1.61,6,4.47,4.75,6.53,10,6.53,7.91-3.62,10-6.53,3.37-4.47,6-4.47,3.9,1.61,6,4.47,4.75,6.53,10,6.53,7.91-3.62,10-6.53,3.38-4.47,6-4.47a4.59,4.59,0,0,1,2.86.91,6.45,6.45,0,0,1,2.53,5c.06,1.64.07,3.28,0,4.92a2.55,2.55,0,0,1-3.18,2.41,10.59,10.59,0,0,0-2.26-.24c-5.27,0-7.91,3.62-10,6.53s-3.38,4.47-6,4.47-3.9-1.61-6-4.47-4.74-6.53-10-6.53-7.9,3.62-10,6.53-3.38,4.47-6,4.47-3.9-1.61-6-4.47-4.75-6.53-10-6.53-7.91,3.62-10,6.53-3.37,4.47-6,4.47-3.9-1.61-6-4.47a20.92,20.92,0,0,0-3.88-4.4,2.58,2.58,0,0,0-3.49.22,2.5,2.5,0,0,0,.33,3.66,16.86,16.86,0,0,1,3,3.46c2.11,2.91,4.75,6.53,10,6.53s7.9-3.62,10-6.53,3.38-4.47,6-4.47,3.9,1.62,6,4.47,4.75,6.53,10,6.53,7.91-3.62,10-6.53,3.37-4.47,6-4.47,3.9,1.61,6,4.47,4.75,6.53,10,6.53,7.91-3.62,10-6.53,3.38-4.47,6-4.47H198a4.48,4.48,0,0,1,4.43,5q-.35,2.46-.81,4.92a3.71,3.71,0,0,1-3.65,3h0c-5.27,0-7.91,3.62-10,6.53s-3.38,4.48-6,4.48-3.9-1.62-6-4.48-4.74-6.53-10-6.53-7.9,3.62-10,6.53-3.38,4.48-6,4.48-3.9-1.62-6-4.48-4.75-6.53-10-6.53-7.91,3.62-10,6.53-3.37,4.48-6,4.48c-2.11,0-3.41-1.11-4.91-3a2.63,2.63,0,0,0-3.4-.74,2.5,2.5,0,0,0-.67,3.65c1.94,2.54,4.53,5.13,9,5.13,5.27,0,7.9-3.62,10-6.53s3.38-4.48,6-4.48,3.9,1.62,6,4.48,4.75,6.53,10,6.53,7.91-3.62,10-6.53,3.37-4.48,6-4.48,3.9,1.62,6,4.48,4.75,6.53,10,6.53,7.91-3.62,10-6.53,3.38-4.48,6-4.48h0a1.35,1.35,0,0,1,1.29,1.72q-1,3.25-2.17,6.45a15.92,15.92,0,0,1-5.22,6.94,20.84,20.84,0,0,0-3.94,4.43c-2.08,2.86-3.38,4.47-6,4.47s-3.9-1.61-6-4.47-4.74-6.53-10-6.53-7.9,3.62-10,6.53-3.38,4.47-6,4.47-3.9-1.61-6-4.47-4.75-6.53-10-6.53-7.91,3.62-10,6.53-3.37,4.47-6,4.47a4.92,4.92,0,0,1-1.67-.27,2.61,2.61,0,0,0-3.18,1.09,2.5,2.5,0,0,0,1.29,3.54,9.78,9.78,0,0,0,3.56.64c5.27,0,7.9-3.62,10-6.53s3.38-4.47,6-4.47,3.9,1.61,6,4.47,4.75,6.53,10,6.53,7.91-3.62,10-6.53,3.37-4.47,6-4.47,3.9,1.61,6,4.47,4.75,6.53,10,6.53a9.75,9.75,0,0,0,1.46-.1,1.47,1.47,0,0,1,1.37,2.32c-1.59,2.2-3.27,4.36-5.06,6.46a2.38,2.38,0,0,1-3.73-.12l0,0c-2.11-2.91-4.74-6.53-10-6.53s-7.9,3.62-10,6.53-3.38,4.48-6,4.48-3.9-1.62-6-4.48-4.75-6.53-10-6.53-7.91,3.62-10,6.53-3.37,4.48-6,4.48c-2.11,0-3.41-1.12-4.91-3a2.62,2.62,0,0,0-3.4-.74,2.49,2.49,0,0,0-.67,3.65c1.94,2.53,4.53,5.13,9,5.13,5.27,0,7.9-3.63,10-6.54s3.38-4.47,6-4.47,3.9,1.62,6,4.47,4.75,6.54,10,6.54,7.91-3.63,10-6.54,3.37-4.47,6-4.47,3.9,1.62,6,4.47l0,0a4.4,4.4,0,0,1-.54,5.81A99.38,99.38,0,0,1,34,174.38l-.14-.13a3.77,3.77,0,0,1-.12-5.13,5.24,5.24,0,0,1,4.2-2.18c2.6,0,3.9,1.62,6,4.47S48.69,178,54,178s7.9-3.63,10-6.54,3.38-4.47,6-4.47,3.9,1.62,6,4.47S80.68,178,86,178c4.38,0,7-2.53,8.9-5a2.59,2.59,0,0,0-.2-3.45,2.5,2.5,0,0,0-3.69.3c-1.54,2-2.86,3.18-5,3.18-2.6,0-3.91-1.62-6-4.48s-4.75-6.53-10-6.53-7.91,3.62-10,6.53S56.56,173,54,173s-3.9-1.62-6-4.48-4.75-6.53-10-6.53a10.06,10.06,0,0,0-7.76,3.66,2.64,2.64,0,0,1-4-.11c-.58-.74-1.15-1.49-1.71-2.24a2.58,2.58,0,0,1,1.08-3.95c3-1.17,4.88-3.73,6.45-5.89,2.08-2.86,3.38-4.47,6-4.47s3.9,1.61,6,4.47,4.75,6.53,10,6.53,7.9-3.62,10-6.53,3.38-4.47,6-4.47,3.9,1.61,6,4.47,4.75,6.53,10,6.53,7.9-3.62,10-6.53a17.18,17.18,0,0,1,3-3.44,2.46,2.46,0,0,0,1-2.35,2.52,2.52,0,0,0-4-1.64,20.64,20.64,0,0,0-4,4.49c-2.08,2.86-3.38,4.47-6,4.47s-3.91-1.61-6-4.47-4.75-6.53-10-6.53-7.91,3.62-10,6.53-3.38,4.47-6,4.47-3.9-1.61-6-4.47-4.75-6.53-10-6.53-7.91,3.62-10,6.53-3.38,4.47-6,4.47c-1.92,0-3.14-.89-4.48-2.51A99.69,99.69,0,0,1,10.91,138c-.72-2,1-2.5,2.09-1.19,2,2.51,4.53,5.11,9,5.11,5.28,0,7.91-3.62,10-6.53s3.38-4.48,6-4.48,3.9,1.62,6,4.48,4.75,6.53,10,6.53,7.9-3.62,10-6.53,3.38-4.48,6-4.48,3.9,1.62,6,4.48,4.75,6.53,10,6.53c4.37,0,7-2.52,8.89-5a2.59,2.59,0,0,0-.19-3.45,2.49,2.49,0,0,0-3.69.3c-1.54,2-2.86,3.17-5,3.17-2.6,0-3.91-1.62-6-4.48s-4.75-6.53-10-6.53-7.91,3.62-10,6.53-3.38,4.48-6,4.48-3.9-1.62-6-4.48-4.75-6.53-10-6.53-7.91,3.62-10,6.53-3.38,4.48-6,4.48-3.9-1.62-6-4.48c-1.5-2.05-3.25-4.45-6-5.68a5.7,5.7,0,0,1-3.25-4.13c-.43-2.26-.78-4.54-1-6.82a2,2,0,0,1,2.88-2.14,1,1,0,0,1,.23.14,15.87,15.87,0,0,1,3.14,3.57c2.12,2.91,4.75,6.53,10,6.53s7.91-3.62,10-6.53,3.38-4.47,6-4.47,3.9,1.62,6,4.47,4.75,6.53,10,6.53,7.9-3.62,10-6.53,3.38-4.47,6-4.47,3.9,1.62,6,4.47,4.75,6.53,10,6.53a10.05,10.05,0,0,0,3-.45,2.68,2.68,0,0,0,1.87-3.13,2.5,2.5,0,0,0-3.25-1.69,4.84,4.84,0,0,1-1.65.27c-2.6,0-3.91-1.61-6-4.47s-4.75-6.53-10-6.53-7.91,3.62-10,6.53-3.38,4.47-6,4.47-3.9-1.61-6-4.47-4.75-6.53-10-6.53-7.91,3.62-10,6.53-3.38,4.47-6,4.47-3.9-1.61-6-4.47c-1.85-2.54-4.09-5.62-8.15-6.37A3.43,3.43,0,0,1,5,104.71q0-4,.26-8a1.77,1.77,0,0,1,2.38-1.51c1.58.57,2.71,2,4.28,4.19,2.12,2.91,4.75,6.53,10,6.53s7.91-3.62,10-6.53,3.38-4.47,6-4.47,3.9,1.61,6,4.47,4.75,6.53,10,6.53,7.9-3.62,10-6.53,3.38-4.47,6-4.47,3.9,1.61,6,4.47,4.75,6.53,10,6.53c4.38,0,7-2.52,8.89-5a2.59,2.59,0,0,0-.19-3.46,2.5,2.5,0,0,0-3.69.31c-1.54,2-2.86,3.17-5,3.17-2.6,0-3.91-1.62-6-4.47s-4.75-6.53-10-6.53-7.91,3.62-10,6.53-3.38,4.47-6,4.47-3.9-1.62-6-4.47-4.75-6.53-10-6.53-7.91,3.62-10,6.53-3.38,4.47-6,4.47-3.9-1.62-6-4.47c-1.48-2-3.21-4.41-5.91-5.66A5.77,5.77,0,0,1,7,84.35c.14-.7.29-1.39.45-2.09a2.49,2.49,0,0,1,4.44-.94l0,.07c2.12,2.91,4.75,6.53,10,6.53s7.91-3.62,10-6.53,3.38-4.47,6-4.47,3.9,1.62,6,4.47,4.75,6.53,10,6.53,7.9-3.62,10-6.53,3.38-4.47,6-4.47,3.9,1.62,6,4.47,4.75,6.53,10,6.53,7.9-3.62,10-6.53a17.18,17.18,0,0,1,3-3.44,2.43,2.43,0,0,0,1-2.34,2.52,2.52,0,0,0-4-1.65,20.64,20.64,0,0,0-4,4.49c-2.08,2.86-3.38,4.47-6,4.47s-3.91-1.61-6-4.47-4.75-6.53-10-6.53-7.91,3.62-10,6.53-3.38,4.47-6,4.47-3.9-1.61-6-4.47-4.75-6.53-10-6.53-7.91,3.62-10,6.53-3.38,4.47-6,4.47-3.9-1.61-6-4.47A21.34,21.34,0,0,0,12,74a3.38,3.38,0,0,1-1-3.81l.17-.48a3.4,3.4,0,0,1,5.15-1.58A9.5,9.5,0,0,0,22,69.92c5.28,0,7.91-3.62,10-6.53s3.38-4.47,6-4.47,3.9,1.61,6,4.47,4.75,6.53,10,6.53,7.9-3.62,10-6.53,3.38-4.47,6-4.47,3.9,1.61,6,4.47,4.75,6.53,10,6.53c4.38,0,7-2.52,8.9-5a2.6,2.6,0,0,0-.2-3.46,2.51,2.51,0,0,0-3.69.31c-1.54,2-2.86,3.17-5,3.17-2.6,0-3.91-1.62-6-4.47s-4.75-6.53-10-6.53-7.91,3.62-10,6.53-3.38,4.47-6,4.47-3.9-1.62-6-4.47-4.75-6.53-10-6.53-7.91,3.62-10,6.53-3.38,4.47-6,4.47a5,5,0,0,1-3.9-1.85c-.29-.3-.78-.92-1.26-1.55a3.4,3.4,0,0,1-.33-3.68C17.23,56.4,18,55,18.86,53.58A3.51,3.51,0,0,1,22,51.92c5.28,0,7.91-3.63,10-6.54s3.38-4.47,6-4.47,3.9,1.62,6,4.47,4.75,6.54,10,6.54,7.9-3.63,10-6.54,3.38-4.47,6-4.47,3.9,1.62,6,4.47,4.75,6.54,10,6.54a10.15,10.15,0,0,0,3-.46,2.67,2.67,0,0,0,1.87-3.12,2.49,2.49,0,0,0-3.25-1.69,4.88,4.88,0,0,1-1.65.27c-2.6,0-3.91-1.62-6-4.48s-4.75-6.53-10-6.53-7.91,3.62-10,6.53-3.38,4.48-6,4.48-3.9-1.62-6-4.48-4.75-6.53-10-6.53-7.91,3.62-10,6.53c-.39.54-.78,1.07-1.19,1.58-.28.36-.55.94-1.07.81-1.25-.32.58-2.06.93-2.49.76-1,1.53-1.9,2.33-2.83C30.56,37.62,32.26,35.79,34,34s3.74-3.58,5.7-5.24a4,4,0,0,1,5.69.55v0c1.91,2.35,4.42,4.56,8.54,4.56,5.27,0,7.9-3.62,10-6.53s3.38-4.47,6-4.47,3.9,1.61,6,4.47,4.75,6.53,10,6.53c4.38,0,7-2.52,8.89-5a2.59,2.59,0,0,0-.19-3.46,2.51,2.51,0,0,0-3.69.31c-1.54,2-2.86,3.17-5,3.17-2.6,0-3.91-1.61-6-4.47s-4.75-6.53-10-6.53-7.91,3.62-10,6.53-3.38,4.47-6,4.47c-2.05,0-3.29-1-4.74-2.82h0a3.44,3.44,0,0,1,.82-5,98.24,98.24,0,0,1,21.3-10.49,6.63,6.63,0,0,1,7,1.85A10,10,0,0,0,86,15.91c5.27,0,7.9-3.62,10-6.53a21.69,21.69,0,0,1,2.42-3,5.13,5.13,0,0,1,3.42-1.36h0a5.07,5.07,0,0,1,3.64,1.34,22.22,22.22,0,0,1,2.45,3c2.11,2.91,4.75,6.53,10,6.53,4,0,6.42-2,8.3-4.29l0,0a6.84,6.84,0,0,1,7.25-2.18,98.88,98.88,0,0,1,21.28,9.39,3.87,3.87,0,0,1,1.15,5.6l0,0c-2.08,2.86-3.38,4.47-6,4.47s-3.9-1.61-6-4.47-4.75-6.53-10-6.53-7.91,3.62-10,6.53-3.37,4.47-6,4.47c-2.11,0-3.42-1.11-4.91-3a2.63,2.63,0,0,0-3.4-.74,2.49,2.49,0,0,0-.67,3.65c1.94,2.54,4.53,5.13,9,5.13,5.27,0,7.9-3.62,10-6.53s3.38-4.47,6-4.47,3.9,1.61,6,4.47,4.75,6.53,10,6.53,7.91-3.62,10-6.53l0,0a4.17,4.17,0,0,1,6-.83,99.17,99.17,0,0,1,17.32,17.74A1.67,1.67,0,0,1,182,46.92Z"/></g></g></svg>