<svg xmlns="http://www.w3.org/2000/svg" viewBox="0 0 208.4 208.4"><defs><style>.cls-1{fill:#ddb190;}</style></defs><title>Asset 2</title><g id="Layer_2" data-name="Layer 2"><g id="Layer_2-2" data-name="Layer 2"><path class="cls-1" d="M166.28,26.78a2.78,2.78,0,0,0-4,.53l-.08.11c-2.12,2.91-4.75,6.53-10,6.53s-7.9-3.62-10-6.53S138.8,23,136.2,23s-3.91,1.62-6,4.47S125.47,34,120.2,34a2.5,2.5,0,1,1,.06-5c2.56,0,3.86-1.64,5.92-4.47s4.74-6.53,10-6.53,7.9,3.62,10,6.53,3.37,4.47,6,4.47,3.9-1.61,6-4.47l0,0a2.81,2.81,0,0,0-.79-4,98.46,98.46,0,0,0-24.17-11.1,3.61,3.61,0,0,0-3.9,1.3h0a2.61,2.61,0,0,1-2,1.1,2.52,2.52,0,0,1-2.56-2.3c-.06-.66.29-1.4-.08-2s-1.62-.62-2.3-.75q-2.91-.54-5.83-.91A98.4,98.4,0,0,0,104.79,5h-.59A99.55,99.55,0,0,0,85.75,6.74a1.71,1.71,0,0,0-.78,3A4.68,4.68,0,0,0,88.21,11a2.51,2.51,0,0,1,2.49,2.72A2.64,2.64,0,0,1,87.92,16c-3.9-.1-6.32-2.2-8.17-4.47A5.37,5.37,0,0,0,74,9.71,98.38,98.38,0,0,0,51,20.43a2.83,2.83,0,0,0-.77,4.05c2.09,2.87,3.39,4.47,6,4.47s3.9-1.61,6-4.47S66.93,18,72.21,18s7.9,3.62,10,6.53c.49.68,1,1.32,1.44,1.9A2.5,2.5,0,0,1,83.15,30a2.6,2.6,0,0,1-3.45-.6c-.54-.66-1-1.35-1.52-2-2.07-2.85-3.37-4.47-6-4.47s-3.9,1.62-6,4.47S61.48,34,56.21,34s-7.91-3.62-10-6.53l0,0a2.87,2.87,0,0,0-4.12-.55A96.42,96.42,0,0,0,34,34a100.53,100.53,0,0,0-8.85,10.17A1.34,1.34,0,0,0,27,46.08l0,0a15.74,15.74,0,0,0,3.15-3.58c2.11-2.91,4.75-6.53,10-6.53s7.91,3.62,10,6.53,3.38,4.47,6,4.47,3.9-1.61,6-4.47S66.93,36,72.21,36s7.9,3.62,10,6.53,3.38,4.47,6,4.47a2.51,2.51,0,0,1,2.49,2.7A2.64,2.64,0,0,1,87.92,52c-5.08-.13-7.66-3.67-9.74-6.53S74.81,41,72.21,41s-3.9,1.62-6,4.47S61.48,52,56.21,52s-7.91-3.62-10-6.53S42.81,41,40.21,41s-3.9,1.62-6,4.47S29.49,52,24.21,52c-.38,0-.74,0-1.09-.05a4.79,4.79,0,0,0-4.66,2.33l-.54.92a4.88,4.88,0,0,0,.3,5.31v0c2.08,2.86,3.38,4.47,6,4.47s3.9-1.61,6-4.47S34.94,54,40.21,54s7.91,3.62,10,6.53,3.38,4.47,6,4.47,3.9-1.61,6-4.47S66.93,54,72.21,54s7.9,3.62,10,6.53c.49.68,1,1.32,1.44,1.9A2.5,2.5,0,0,1,83.15,66a2.6,2.6,0,0,1-3.45-.6c-.54-.66-1-1.35-1.52-2-2.07-2.85-3.37-4.47-6-4.47s-3.9,1.62-6,4.47S61.48,70,56.21,70s-7.91-3.62-10-6.53S42.81,59,40.21,59s-3.9,1.62-6,4.47S29.49,70,24.21,70A9.8,9.8,0,0,1,17,66.86a3.09,3.09,0,0,0-5.07,1c-.06.14-.12.29-.17.43a4.28,4.28,0,0,0,1.76,5.19,18.55,18.55,0,0,1,4.72,5c2.08,2.86,3.38,4.47,6,4.47s3.9-1.61,6-4.47S34.94,72,40.21,72s7.91,3.62,10,6.53,3.38,4.47,6,4.47,3.9-1.61,6-4.47S66.93,72,72.21,72s7.9,3.62,10,6.53,3.38,4.47,6,4.47a2.51,2.51,0,0,1,2.49,2.7A2.64,2.64,0,0,1,87.92,88c-5.08-.13-7.66-3.67-9.74-6.53S74.81,77,72.21,77s-3.9,1.62-6,4.47S61.48,88,56.21,88s-7.91-3.62-10-6.53S42.81,77,40.21,77s-3.9,1.62-6,4.47S29.49,88,24.21,88s-7.9-3.62-10-6.53c-.38-.53-.74-1-1.09-1.46a3.07,3.07,0,0,0-5.39,1.19q-.8,3.3-1.35,6.65A1.87,1.87,0,0,0,8.24,90c5.26,0,7.89,3.63,10,6.53s3.38,4.47,6,4.47,3.9-1.61,6-4.47S34.94,90,40.21,90s7.91,3.62,10,6.53,3.38,4.47,6,4.47,3.9-1.61,6-4.47S66.93,90,72.21,90s7.9,3.62,10,6.53c.49.68,1,1.32,1.44,1.9a2.5,2.5,0,0,1-.52,3.65,2.6,2.6,0,0,1-3.45-.6c-.54-.66-1-1.35-1.52-2-2.07-2.85-3.37-4.47-6-4.47s-3.9,1.62-6,4.47-4.75,6.53-10,6.53-7.91-3.62-10-6.53S42.81,95,40.21,95s-3.9,1.62-6,4.47-4.74,6.53-10,6.53-7.9-3.62-10-6.53S10.81,95,8.21,95H8.13a3,3,0,0,0-2.9,2.77Q5,101.24,5,104.79A3.18,3.18,0,0,0,8.18,108h0c5.28,0,7.91,3.62,10,6.53s3.38,4.47,6,4.47,3.9-1.61,6-4.47,4.75-6.53,10-6.53,7.91,3.62,10,6.53,3.38,4.47,6,4.47,3.9-1.61,6-4.47,4.74-6.53,10-6.53,7.9,3.62,10,6.53,3.38,4.47,6,4.47a2.51,2.51,0,0,1,2.49,2.7,2.64,2.64,0,0,1-2.78,2.3c-5.08-.13-7.66-3.67-9.74-6.53s-3.37-4.47-6-4.47-3.9,1.62-6,4.47-4.75,6.53-10,6.53-7.91-3.62-10-6.53-3.38-4.47-6-4.47-3.9,1.62-6,4.47-4.74,6.53-10,6.53-7.9-3.62-10-6.53-3.38-4.47-6-4.47h0a2.55,2.55,0,0,0-2.51,2.84c.26,2.18.6,4.35,1,6.51a4.9,4.9,0,0,0,3.76,3.89c3.85.85,6,3.83,7.8,6.29,2.08,2.86,3.38,4.47,6,4.47s3.9-1.61,6-4.47,4.75-6.53,10-6.53,7.91,3.62,10,6.53,3.38,4.47,6,4.47,3.9-1.61,6-4.47,4.74-6.53,10-6.53,7.9,3.62,10,6.53,3.38,4.47,6,4.47a2.51,2.51,0,0,1,2.49,2.7,2.64,2.64,0,0,1-2.78,2.3c-5.08-.13-7.66-3.67-9.74-6.53s-3.37-4.47-6-4.47-3.9,1.62-6,4.47-4.75,6.53-10,6.53-7.91-3.62-10-6.53-3.38-4.47-6-4.47-3.9,1.62-6,4.47-4.74,6.53-10,6.53-7.9-3.62-10-6.53a24.09,24.09,0,0,0-2.26-2.8,1.43,1.43,0,0,0-2.34,1.47c.31,1,.64,2,1,3a43.07,43.07,0,0,0,6.67,12.09c.35.45.68.9,1,1.34,2.08,2.86,3.38,4.47,6,4.47s3.9-1.61,6-4.47,4.75-6.53,10-6.53,7.91,3.62,10,6.53,3.38,4.47,6,4.47,3.9-1.61,6-4.47,4.74-6.53,10-6.53,7.9,3.62,10,6.53c.49.68,1,1.32,1.44,1.9a2.5,2.5,0,0,1-.52,3.65,2.6,2.6,0,0,1-3.45-.6c-.54-.66-1-1.35-1.52-2-2.07-2.85-3.37-4.47-6-4.47s-3.9,1.62-6,4.47-4.75,6.53-10,6.53-7.91-3.62-10-6.53-3.38-4.47-6-4.47-3.9,1.62-6,4.47c-1.85,2.55-4.09,5.64-8.16,6.37a2.31,2.31,0,0,0-1.48,3.65c1,1.3,2,2.58,3,3.84a2.25,2.25,0,0,0,3.52-.05c.36-.47.7-.91.93-1.18a10.29,10.29,0,0,1,8.15-4.1c5.27,0,7.91,3.62,10,6.53s3.38,4.47,6,4.47,3.9-1.61,6-4.47,4.74-6.53,10-6.53,7.9,3.62,10,6.53,3.38,4.47,6,4.47a2.51,2.51,0,0,1,2.49,2.7,2.64,2.64,0,0,1-2.78,2.3c-5.08-.13-7.66-3.67-9.74-6.53s-3.37-4.47-6-4.47-3.9,1.62-6,4.47-4.75,6.53-10,6.53-7.91-3.62-10-6.53-3.38-4.47-6-4.47c-2,0-3.18.92-4.55,2.59a5,5,0,0,0,.43,6.85l.07.07a99.38,99.38,0,0,0,136.37-.27l0,0a4.71,4.71,0,0,0,.48-6.26l-.3-.39c-1.37-1.66-2.59-2.57-4.54-2.57-2.6,0-3.9,1.62-6,4.47s-4.75,6.53-10,6.53-7.9-3.62-10-6.53-3.37-4.47-6-4.47-3.91,1.62-6,4.47-4.75,6.53-10,6.53a2.5,2.5,0,1,1,.06-5c2.56,0,3.86-1.64,5.92-4.47s4.74-6.53,10-6.53,7.9,3.62,10,6.53,3.37,4.47,6,4.47,3.9-1.61,6-4.47,4.75-6.53,10-6.53c4.18,0,6.7,2.27,8.62,4.66v0a2.9,2.9,0,0,0,4.5,0c.94-1.16,1.86-2.35,2.75-3.55a2.06,2.06,0,0,0-1.38-3.25h0c-4.28-.62-6.6-3.81-8.5-6.43-2.08-2.85-3.38-4.47-6-4.47s-3.9,1.62-6,4.47-4.75,6.53-10,6.53-7.9-3.62-10-6.53-3.37-4.47-6-4.47-3.91,1.62-6,4.47-4.75,6.53-10,6.53a2.5,2.5,0,1,1,.06-5c2.56,0,3.86-1.64,5.92-4.47s4.74-6.53,10-6.53,7.9,3.62,10,6.53,3.37,4.47,6,4.47,3.9-1.61,6-4.47,4.75-6.53,10-6.53,7.91,3.62,10,6.53,3.38,4.47,6,4.47,3.9-1.61,6-4.47c.45-.62.92-1.27,1.44-1.91a34.78,34.78,0,0,0,5.67-10c.46-1.26.89-2.52,1.3-3.79a1.6,1.6,0,0,0-2.74-1.52c-.51.6-1,1.31-1.63,2.12-2.11,2.91-4.75,6.53-10,6.53s-7.9-3.62-10-6.53-3.38-4.47-6-4.47-3.9,1.62-6,4.47-4.75,6.53-10,6.53-7.9-3.62-10-6.53-3.37-4.47-6-4.47-3.9,1.62-6,4.47l-1,1.33a2.51,2.51,0,0,1-3.72.29,2.6,2.6,0,0,1-.18-3.43c.29-.37.56-.75.84-1.13,2.11-2.91,4.74-6.53,10-6.53s7.9,3.62,10,6.53,3.37,4.47,6,4.47,3.9-1.61,6-4.47,4.75-6.53,10-6.53,7.91,3.62,10,6.53,3.38,4.47,6,4.47,3.9-1.61,6-4.47c1.62-2.22,3.54-4.87,6.71-6l0,0a7.74,7.74,0,0,0,5.15-6c.26-1.56.48-3.12.67-4.68a2.55,2.55,0,0,0-2.51-2.85h0c-2.6,0-3.9,1.62-6,4.47s-4.75,6.53-10,6.53-7.91-3.62-10-6.53-3.38-4.47-6-4.47-3.9,1.62-6,4.47-4.75,6.53-10,6.53-7.9-3.62-10-6.53-3.37-4.47-6-4.47-3.91,1.62-6,4.47-4.75,6.53-10,6.53a2.5,2.5,0,1,1,.06-5c2.56,0,3.86-1.64,5.92-4.47s4.74-6.53,10-6.53,7.9,3.62,10,6.53,3.37,4.47,6,4.47,3.9-1.61,6-4.47,4.75-6.53,10-6.53,7.91,3.62,10,6.53,3.38,4.47,6,4.47,3.9-1.61,6-4.47,4.75-6.53,10-6.53h0a3.17,3.17,0,0,0,3.16-3.16c0-2.35-.06-4.69-.21-7a3,3,0,0,0-3-2.8h0c-2.6,0-3.9,1.62-6,4.47s-4.75,6.53-10,6.53-7.9-3.62-10-6.53-3.38-4.47-6-4.47-3.9,1.62-6,4.47-4.75,6.53-10,6.53-7.9-3.62-10-6.53S138.8,95,136.2,95s-3.9,1.62-6,4.47l-1,1.33a2.51,2.51,0,0,1-3.72.29,2.6,2.6,0,0,1-.18-3.43l.84-1.13c2.11-2.91,4.74-6.53,10-6.53s7.9,3.62,10,6.53,3.37,4.47,6,4.47,3.9-1.61,6-4.47,4.75-6.53,10-6.53,7.91,3.62,10,6.53,3.38,4.47,6,4.47,3.9-1.61,6-4.47,4.75-6.53,10-6.53h0a1.85,1.85,0,0,0,1.83-2.13q-.62-3.7-1.52-7.36a2.72,2.72,0,0,0-4.72-1.12c-.5.6-1,1.29-1.6,2.08-2.11,2.91-4.75,6.53-10,6.53s-7.91-3.62-10-6.53-3.38-4.47-6-4.47-3.9,1.62-6,4.47-4.75,6.53-10,6.53-7.9-3.62-10-6.53S138.8,77,136.2,77s-3.91,1.62-6,4.47S125.47,88,120.2,88a2.5,2.5,0,1,1,.06-5c2.56,0,3.86-1.64,5.92-4.47s4.74-6.53,10-6.53,7.9,3.62,10,6.53,3.37,4.47,6,4.47,3.9-1.61,6-4.47,4.75-6.53,10-6.53,7.91,3.62,10,6.53,3.38,4.47,6,4.47,3.9-1.61,6-4.47a17.54,17.54,0,0,1,5.16-5.26,3.64,3.64,0,0,0,1.56-4.45l0-.09A3.67,3.67,0,0,0,191,67.29,9.64,9.64,0,0,1,184.19,70c-5.27,0-7.91-3.62-10-6.53s-3.38-4.47-6-4.47-3.9,1.62-6,4.47-4.75,6.53-10,6.53-7.9-3.62-10-6.53S138.8,59,136.2,59s-3.91,1.62-6,4.47S125.47,70,120.2,70a2.5,2.5,0,1,1,.06-5c2.56,0,3.86-1.64,5.92-4.47s4.74-6.53,10-6.53,7.9,3.62,10,6.53,3.37,4.47,6,4.47,3.9-1.61,6-4.47,4.75-6.53,10-6.53,7.91,3.62,10,6.53,3.38,4.47,6,4.47,3.9-1.61,6-4.47l0,0a4.9,4.9,0,0,0,.29-5.31c-.18-.31-.35-.62-.53-.92a4.81,4.81,0,0,0-4.66-2.33c-.35,0-.72.05-1.1.05-5.27,0-7.9-3.62-10-6.53s-3.38-4.47-6-4.47-3.9,1.62-6,4.47-4.75,6.53-10,6.53-7.9-3.62-10-6.53S138.8,41,136.2,41s-3.9,1.62-6,4.47l-1,1.33a2.51,2.51,0,0,1-3.72.29,2.6,2.6,0,0,1-.18-3.43c.29-.37.56-.75.84-1.13,2.11-2.91,4.74-6.53,10-6.53s7.9,3.62,10,6.53,3.37,4.47,6,4.47,3.9-1.61,6-4.47,4.75-6.53,10-6.53,7.91,3.62,10,6.53a13.78,13.78,0,0,0,3.49,3.81h0a1.29,1.29,0,0,0,1.68-1.88,97.53,97.53,0,0,0-17.13-17.64Z"/><path d="M30.49,30.49a104.25,104.25,0,1,0,147.43,0A104.36,104.36,0,0,0,30.49,30.49ZM181.73,46.3h0a13.78,13.78,0,0,1-3.49-3.81c-2.11-2.91-4.74-6.53-10-6.53s-7.9,3.62-10,6.53-3.38,4.47-6,4.47-3.9-1.61-6-4.47S141.47,36,136.2,36s-7.91,3.62-10,6.53c-.28.38-.55.76-.84,1.13a2.6,2.6,0,0,0,.18,3.43,2.51,2.51,0,0,0,3.72-.29l1-1.33c2.08-2.85,3.38-4.47,6-4.47s3.9,1.62,6,4.47,4.75,6.53,10,6.53,7.91-3.62,10-6.53,3.37-4.47,6-4.47,3.9,1.62,6,4.47,4.75,6.53,10,6.53c.38,0,.75,0,1.1-.05A4.81,4.81,0,0,1,190,54.23c.18.3.35.61.53.92a4.9,4.9,0,0,1-.29,5.31l0,0c-2.08,2.86-3.38,4.47-6,4.47s-3.9-1.61-6-4.47-4.74-6.53-10-6.53-7.9,3.62-10,6.53-3.38,4.47-6,4.47-3.9-1.61-6-4.47S141.47,54,136.2,54s-7.91,3.62-10,6.53-3.36,4.45-5.92,4.47a2.5,2.5,0,1,0-.06,5c5.27,0,7.9-3.62,10-6.53s3.38-4.47,6-4.47,3.9,1.62,6,4.47,4.75,6.53,10,6.53,7.91-3.62,10-6.53,3.37-4.47,6-4.47,3.9,1.62,6,4.47,4.75,6.53,10,6.53A9.64,9.64,0,0,0,191,67.29a3.67,3.67,0,0,1,5.91,1.39l0,.09a3.64,3.64,0,0,1-1.56,4.45,17.54,17.54,0,0,0-5.16,5.26c-2.08,2.86-3.38,4.47-6,4.47s-3.9-1.61-6-4.47-4.74-6.53-10-6.53-7.9,3.62-10,6.53-3.38,4.47-6,4.47-3.9-1.61-6-4.47S141.47,72,136.2,72s-7.91,3.62-10,6.53-3.36,4.45-5.92,4.47a2.5,2.5,0,1,0-.06,5c5.27,0,7.9-3.62,10-6.53s3.38-4.47,6-4.47,3.9,1.62,6,4.47,4.75,6.53,10,6.53,7.91-3.62,10-6.53,3.37-4.47,6-4.47,3.9,1.62,6,4.47,4.75,6.53,10,6.53,7.91-3.62,10-6.53c.58-.79,1.1-1.48,1.6-2.08a2.72,2.72,0,0,1,4.72,1.12q.9,3.66,1.52,7.36A1.85,1.85,0,0,1,200.22,90h0c-5.27,0-7.91,3.62-10,6.53s-3.38,4.47-6,4.47-3.9-1.61-6-4.47-4.74-6.53-10-6.53-7.9,3.62-10,6.53-3.38,4.47-6,4.47-3.9-1.61-6-4.47S141.47,90,136.2,90s-7.91,3.62-10,6.53l-.84,1.13a2.6,2.6,0,0,0,.18,3.43,2.51,2.51,0,0,0,3.72-.29l1-1.33c2.08-2.85,3.38-4.47,6-4.47s3.9,1.62,6,4.47,4.75,6.53,10,6.53,7.91-3.62,10-6.53,3.37-4.47,6-4.47,3.9,1.62,6,4.47,4.75,6.53,10,6.53,7.91-3.62,10-6.53,3.38-4.47,6-4.47h0a3,3,0,0,1,3,2.8c.15,2.35.22,4.69.21,7a3.17,3.17,0,0,1-3.16,3.16h0c-5.27,0-7.91,3.62-10,6.53s-3.38,4.47-6,4.47-3.9-1.61-6-4.47-4.74-6.53-10-6.53-7.9,3.62-10,6.53-3.38,4.47-6,4.47-3.9-1.61-6-4.47-4.75-6.53-10-6.53-7.91,3.62-10,6.53-3.36,4.45-5.92,4.47a2.5,2.5,0,1,0-.06,5c5.27,0,7.9-3.62,10-6.53s3.38-4.47,6-4.47,3.9,1.62,6,4.47,4.75,6.53,10,6.53,7.91-3.62,10-6.53,3.37-4.47,6-4.47,3.9,1.62,6,4.47,4.75,6.53,10,6.53,7.91-3.62,10-6.53,3.38-4.47,6-4.47h0a2.55,2.55,0,0,1,2.51,2.85c-.19,1.56-.41,3.12-.67,4.68a7.74,7.74,0,0,1-5.15,6l0,0c-3.17,1.11-5.09,3.76-6.71,6-2.08,2.86-3.38,4.47-6,4.47s-3.9-1.61-6-4.47-4.74-6.53-10-6.53-7.9,3.62-10,6.53-3.38,4.47-6,4.47-3.9-1.61-6-4.47-4.75-6.53-10-6.53-7.91,3.62-10,6.53c-.28.38-.55.76-.84,1.13a2.6,2.6,0,0,0,.18,3.43,2.51,2.51,0,0,0,3.72-.29l1-1.33c2.08-2.85,3.38-4.47,6-4.47s3.9,1.62,6,4.47,4.75,6.53,10,6.53,7.91-3.62,10-6.53,3.37-4.47,6-4.47,3.9,1.62,6,4.47,4.75,6.53,10,6.53,7.91-3.62,10-6.53c.59-.81,1.12-1.52,1.63-2.12a1.6,1.6,0,0,1,2.74,1.52c-.41,1.27-.84,2.53-1.3,3.79a34.78,34.78,0,0,1-5.67,10c-.52.64-1,1.29-1.44,1.91-2.08,2.86-3.38,4.47-6,4.47s-3.9-1.61-6-4.47-4.74-6.53-10-6.53-7.9,3.62-10,6.53-3.38,4.47-6,4.47-3.9-1.61-6-4.47-4.75-6.53-10-6.53-7.91,3.62-10,6.53-3.36,4.45-5.92,4.47a2.5,2.5,0,1,0-.06,5c5.27,0,7.9-3.62,10-6.53s3.38-4.47,6-4.47,3.9,1.62,6,4.47,4.75,6.53,10,6.53,7.91-3.62,10-6.53,3.37-4.47,6-4.47,3.9,1.62,6,4.47c1.9,2.62,4.22,5.81,8.5,6.43h0a2.06,2.06,0,0,1,1.38,3.25c-.89,1.2-1.81,2.39-2.75,3.55a2.9,2.9,0,0,1-4.5,0v0c-1.92-2.39-4.44-4.66-8.62-4.66-5.27,0-7.9,3.62-10,6.53s-3.38,4.47-6,4.47-3.9-1.61-6-4.47-4.75-6.53-10-6.53-7.91,3.62-10,6.53-3.36,4.45-5.92,4.47a2.5,2.5,0,1,0-.06,5c5.27,0,7.9-3.62,10-6.53s3.38-4.47,6-4.47,3.9,1.62,6,4.47,4.75,6.53,10,6.53,7.91-3.62,10-6.53,3.37-4.47,6-4.47c1.95,0,3.17.91,4.54,2.57l.3.39a4.71,4.71,0,0,1-.48,6.26l0,0a99.38,99.38,0,0,1-136.37.27l-.07-.07a5,5,0,0,1-.43-6.85C37,167.87,38.25,167,40.21,167c2.6,0,3.9,1.62,6,4.47s4.75,6.53,10,6.53,7.9-3.62,10-6.53,3.38-4.47,6-4.47,3.9,1.62,6,4.47,4.66,6.4,9.74,6.53a2.64,2.64,0,0,0,2.78-2.3,2.51,2.51,0,0,0-2.49-2.7c-2.6,0-3.91-1.61-6-4.47s-4.75-6.53-10-6.53-7.91,3.62-10,6.53-3.38,4.47-6,4.47-3.9-1.61-6-4.47-4.75-6.53-10-6.53a10.29,10.29,0,0,0-8.15,4.1c-.23.27-.57.71-.93,1.18a2.25,2.25,0,0,1-3.52.05c-1.05-1.26-2.05-2.54-3-3.84a2.31,2.31,0,0,1,1.48-3.65c4.07-.73,6.31-3.82,8.16-6.37,2.08-2.85,3.38-4.47,6-4.47s3.9,1.62,6,4.47,4.75,6.53,10,6.53,7.9-3.62,10-6.53,3.38-4.47,6-4.47,3.9,1.62,6,4.47c.48.66,1,1.35,1.52,2a2.6,2.6,0,0,0,3.45.6,2.5,2.5,0,0,0,.52-3.65c-.49-.58-1-1.22-1.44-1.9-2.12-2.91-4.75-6.53-10-6.53s-7.91,3.62-10,6.53-3.38,4.47-6,4.47-3.9-1.61-6-4.47-4.75-6.53-10-6.53-7.91,3.62-10,6.53-3.38,4.47-6,4.47-3.9-1.61-6-4.47c-.31-.44-.64-.89-1-1.34a43.07,43.07,0,0,1-6.67-12.09c-.34-1-.67-2-1-3a1.43,1.43,0,0,1,2.34-1.47,24.09,24.09,0,0,1,2.26,2.8c2.12,2.91,4.75,6.53,10,6.53s7.91-3.62,10-6.53,3.38-4.47,6-4.47,3.9,1.62,6,4.47,4.75,6.53,10,6.53,7.9-3.62,10-6.53,3.38-4.47,6-4.47,3.9,1.62,6,4.47,4.66,6.4,9.74,6.53a2.64,2.64,0,0,0,2.78-2.3,2.51,2.51,0,0,0-2.49-2.7c-2.6,0-3.91-1.61-6-4.47s-4.75-6.53-10-6.53-7.91,3.62-10,6.53-3.38,4.47-6,4.47-3.9-1.61-6-4.47-4.75-6.53-10-6.53-7.91,3.62-10,6.53-3.38,4.47-6,4.47-3.9-1.61-6-4.47c-1.79-2.46-4-5.44-7.8-6.29a4.9,4.9,0,0,1-3.76-3.89c-.4-2.16-.74-4.33-1-6.51A2.55,2.55,0,0,1,8.18,113h0c2.6,0,3.9,1.62,6,4.47s4.75,6.53,10,6.53,7.91-3.62,10-6.53,3.38-4.47,6-4.47,3.9,1.62,6,4.47,4.75,6.53,10,6.53,7.9-3.62,10-6.53,3.38-4.47,6-4.47,3.9,1.62,6,4.47,4.66,6.4,9.74,6.53a2.64,2.64,0,0,0,2.78-2.3,2.51,2.51,0,0,0-2.49-2.7c-2.6,0-3.91-1.61-6-4.47s-4.75-6.53-10-6.53-7.91,3.62-10,6.53-3.38,4.47-6,4.47-3.9-1.61-6-4.47-4.75-6.53-10-6.53-7.91,3.62-10,6.53-3.38,4.47-6,4.47-3.9-1.61-6-4.47S13.49,108,8.21,108h0A3.18,3.18,0,0,1,5,104.79q0-3.54.22-7.07A3,3,0,0,1,8.13,95h.08c2.6,0,3.9,1.62,6,4.47s4.75,6.53,10,6.53,7.91-3.62,10-6.53,3.38-4.47,6-4.47,3.9,1.62,6,4.47,4.75,6.53,10,6.53,7.9-3.62,10-6.53,3.38-4.47,6-4.47,3.9,1.62,6,4.47c.48.66,1,1.35,1.52,2a2.6,2.6,0,0,0,3.45.6,2.5,2.5,0,0,0,.52-3.65c-.49-.58-1-1.22-1.44-1.9-2.12-2.91-4.75-6.53-10-6.53s-7.91,3.62-10,6.53-3.38,4.47-6,4.47-3.9-1.61-6-4.47S45.48,90,40.21,90s-7.91,3.62-10,6.53-3.38,4.47-6,4.47-3.9-1.61-6-4.47S13.5,90,8.24,90A1.87,1.87,0,0,1,6.36,87.8q.56-3.35,1.35-6.65A3.07,3.07,0,0,1,13.1,80c.35.45.71.93,1.09,1.46,2.12,2.91,4.75,6.53,10,6.53s7.91-3.62,10-6.53,3.38-4.47,6-4.47,3.9,1.62,6,4.47S50.94,88,56.21,88s7.9-3.62,10-6.53,3.38-4.47,6-4.47,3.9,1.62,6,4.47,4.66,6.4,9.74,6.53a2.64,2.64,0,0,0,2.78-2.3A2.51,2.51,0,0,0,88.21,83c-2.6,0-3.91-1.61-6-4.47S77.48,72,72.21,72s-7.91,3.62-10,6.53S58.81,83,56.21,83s-3.9-1.61-6-4.47S45.48,72,40.21,72s-7.91,3.62-10,6.53S26.81,83,24.21,83s-3.9-1.61-6-4.47a18.55,18.55,0,0,0-4.72-5,4.28,4.28,0,0,1-1.76-5.19c.05-.14.11-.29.17-.43a3.09,3.09,0,0,1,5.07-1A9.8,9.8,0,0,0,24.21,70c5.28,0,7.91-3.62,10-6.53s3.38-4.47,6-4.47,3.9,1.62,6,4.47S50.94,70,56.21,70s7.9-3.62,10-6.53,3.38-4.47,6-4.47,3.9,1.62,6,4.47c.48.66,1,1.35,1.52,2a2.6,2.6,0,0,0,3.45.6,2.5,2.5,0,0,0,.52-3.65c-.49-.58-1-1.22-1.44-1.9-2.12-2.91-4.75-6.53-10-6.53s-7.91,3.62-10,6.53S58.81,65,56.21,65s-3.9-1.61-6-4.47S45.48,54,40.21,54s-7.91,3.62-10,6.53S26.81,65,24.21,65s-3.9-1.61-6-4.47v0a4.88,4.88,0,0,1-.3-5.31l.54-.92a4.79,4.79,0,0,1,4.66-2.33c.35,0,.71.05,1.09.05,5.28,0,7.91-3.62,10-6.53s3.38-4.47,6-4.47,3.9,1.62,6,4.47S50.94,52,56.21,52s7.9-3.62,10-6.53,3.38-4.47,6-4.47,3.9,1.62,6,4.47,4.66,6.4,9.74,6.53a2.64,2.64,0,0,0,2.78-2.3A2.51,2.51,0,0,0,88.21,47c-2.6,0-3.91-1.61-6-4.47S77.48,36,72.21,36s-7.91,3.62-10,6.53S58.81,47,56.21,47s-3.9-1.61-6-4.47S45.48,36,40.21,36s-7.91,3.62-10,6.53A15.74,15.74,0,0,1,27,46.06l0,0a1.34,1.34,0,0,1-1.85-1.89A100.53,100.53,0,0,1,34,34a96.42,96.42,0,0,1,8-7.17,2.87,2.87,0,0,1,4.12.55l0,0c2.11,2.91,4.75,6.53,10,6.53s7.9-3.62,10-6.53,3.38-4.47,6-4.47,3.9,1.62,6,4.47c.48.66,1,1.35,1.52,2a2.6,2.6,0,0,0,3.45.6,2.5,2.5,0,0,0,.52-3.65c-.49-.58-1-1.22-1.44-1.9-2.12-2.91-4.75-6.53-10-6.53s-7.91,3.62-10,6.53S58.81,29,56.21,29s-3.89-1.6-6-4.47A2.83,2.83,0,0,1,51,20.43,98.38,98.38,0,0,1,74,9.71a5.37,5.37,0,0,1,5.79,1.77C81.6,13.75,84,15.85,87.92,16a2.64,2.64,0,0,0,2.78-2.28A2.51,2.51,0,0,0,88.21,11,4.68,4.68,0,0,1,85,9.74a1.71,1.71,0,0,1,.78-3A99.55,99.55,0,0,1,104.2,5h.59a98.4,98.4,0,0,1,11.76.78q2.92.38,5.83.91c.68.13,1.91.1,2.3.75s0,1.34.08,2a2.52,2.52,0,0,0,2.56,2.3,2.61,2.61,0,0,0,2-1.1h0a3.61,3.61,0,0,1,3.9-1.3,98.46,98.46,0,0,1,24.17,11.1,2.81,2.81,0,0,1,.79,4l0,0c-2.08,2.86-3.38,4.47-6,4.47s-3.9-1.61-6-4.47S141.47,18,136.2,18s-7.91,3.62-10,6.53-3.36,4.45-5.92,4.47a2.5,2.5,0,1,0-.06,5c5.27,0,7.9-3.62,10-6.53s3.38-4.47,6-4.47,3.9,1.62,6,4.47,4.75,6.53,10,6.53,7.91-3.62,10-6.53l.08-.11a2.78,2.78,0,0,1,4-.53,97.53,97.53,0,0,1,17.13,17.64A1.29,1.29,0,0,1,181.73,46.3Z"/></g></g></svg>