<svg xmlns="http://www.w3.org/2000/svg" viewBox="0 0 208.4 208.4"><defs><style>.cls-1{fill:#ddb190;}.cls-2{fill:#d4d1e9;}.cls-3{fill:#fff5e7;}</style></defs><title>Asset 12</title><g id="Layer_2" data-name="Layer 2"><g id="Layer_2-2" data-name="Layer 2"><path class="cls-1" d="M21.9,127c5.67-4.78,12.34-6,17.21-6.9a37.61,37.61,0,0,0,4.37-1,38.63,38.63,0,0,0,2.94-3.25c3.22-3.8,7.63-9,14.65-11.58a26.68,26.68,0,0,1,9.29-1.56,42.85,42.85,0,0,1,6.43.54,3.38,3.38,0,0,0,3.45-1.69l.12-.2a3.35,3.35,0,0,0-2.47-5,65.27,65.27,0,0,0-7.53-.7,33.55,33.55,0,0,0-11.68,2c-8.78,3.21-14.09,9.49-17.6,13.64l-.69.81A2.46,2.46,0,0,1,39,113l-1.08.2c-5.36,1-13.39,2.47-20.49,8.43a33.74,33.74,0,0,0-7.64,9.3,3.46,3.46,0,0,0-.32,2.72l.06.19a3.44,3.44,0,0,0,6.29.63A27,27,0,0,1,21.9,127Z"/><path class="cls-1" d="M160.33,180.93c-1.76-2.09-2.32-4.92-2.85-7.66-.46-2.35-.94-4.77-2.09-5.73s-3.6-1-6-1.06c-2.8-.06-5.69-.12-8.07-1.5s-3.82-3.82-5.25-6.2c-1.24-2.06-2.52-4.19-4-4.71s-3.69.29-5.93,1.05c-2.66.91-5.41,1.85-8.14,1.37s-4.86-2.26-7-4c-1.88-1.52-3.82-3.09-5.38-3.09s-3.51,1.57-5.39,3.09c-2.15,1.73-4.37,3.52-7,4s-5.48-.46-8.13-1.37c-2.24-.76-4.56-1.55-5.94-1.05s-2.7,2.65-3.94,4.71c-1.43,2.38-2.91,4.84-5.26,6.2s-5.27,1.44-8.06,1.5c-2.38.05-4.84.1-6,1.06s-1.62,3.38-2.08,5.73c-.54,2.74-1.1,5.57-2.86,7.66a8.63,8.63,0,0,1-1.6,1.48,2.78,2.78,0,0,0,.06,4.58l.05,0a2.8,2.8,0,0,0,2.36.31c1.56-.5,4-1.36,4.49-1.91.67-.79.9-2.8,1.1-4.57.32-2.83.69-6,3-8s5.5-1.73,8.34-1.56c1.78.11,3.8.23,4.7-.3s1.77-2.3,2.56-3.89c1.27-2.56,2.72-5.47,5.54-6.5s5.73.26,8.33,1.39c1.65.71,3.52,1.52,4.57,1.34s2.41-1.54,3.68-2.74c2.09-2,4.46-4.23,7.5-4.23s5.4,2.25,7.49,4.23c1.27,1.2,2.71,2.57,3.69,2.74s2.91-.62,4.56-1.34c2.6-1.13,5.55-2.4,8.33-1.39s4.27,3.94,5.54,6.5c.79,1.59,1.69,3.39,2.56,3.89s2.92.41,4.71.3c2.83-.17,6.06-.36,8.34,1.56s2.65,5.13,3,8c.2,1.77.43,3.78,1.09,4.57a6,6,0,0,0,2.45,1.28,2.78,2.78,0,0,0,2.44-.32l.79-.55a2.76,2.76,0,0,0,.26-4.28C160.71,181.36,160.52,181.15,160.33,180.93Z"/><path class="cls-2" d="M129.91,176.84a5.61,5.61,0,0,0,1.27-6.74l-.36-.72c-.82-1.64-1.83-3.68-2.78-4s-3,.56-4.63,1.28c-2.4,1-4.89,2.12-7.42,1.68s-4.39-2.27-6.26-4.05c-1.34-1.27-3-2.85-4-2.85s-2.72,1.58-4.06,2.85c-1.87,1.78-3.8,3.62-6.26,4.05s-5-.64-7.42-1.68c-1.65-.72-3.71-1.62-4.62-1.28s-2,2.39-2.78,4l0,0a5.66,5.66,0,0,0,1.17,6.68,35.65,35.65,0,0,0,48.22.75Z"/><path class="cls-3" d="M151.14,188.64c-1.63-1.94-1.93-4.62-2.23-7.21-.21-1.81-.47-4.06-1.23-4.7s-3-.51-4.83-.4l-.89,0a12.11,12.11,0,0,0-7.65,3.21,40.66,40.66,0,0,1-56.08.11,12.53,12.53,0,0,0-8.12-3.29l-1.61-.08c-1.81-.11-4.07-.24-4.83.4s-1,2.89-1.22,4.7c-.3,2.59-.61,5.27-2.24,7.21a6.57,6.57,0,0,1-.88.87,2.07,2.07,0,0,0,.45,3.42,99.65,99.65,0,0,0,90.72-1,2.15,2.15,0,0,0,.66-3.3Z"/><path class="cls-1" d="M37.33,145.33c3-2.5,6.94-3.05,10.77-3.59,2.83-.39,5.5-.76,7.41-1.87s3.51-3.2,5.24-5.44a37,37,0,0,1,4.43-5.06,15.64,15.64,0,0,0,4.1-5.66c.1-.23.2-.46.29-.69a2.09,2.09,0,0,0-2.63-2.79h0c-2.79,1-5.07,3.72-7.49,6.59-2.2,2.6-4.48,5.29-7.4,7s-6.44,2.35-9.82,3c-3.66.68-7.12,1.31-9.36,3.19s-3.47,5.19-4.76,8.69c-1.19,3.21-2.42,6.54-4.62,9.14v0a3.07,3.07,0,0,0-.19,3.78l.57.79a3,3,0,0,0,4.52.43c.17-.17.33-.35.48-.52,1.41-1.68,2.23-4.25,3.11-7C33.11,151.66,34.34,147.84,37.33,145.33Z"/><path class="cls-2" d="M73.34,138.12l.06,0c3.32-1.21,6.84-.26,10.25.66,2.48.67,4.83,1.31,6.68,1s3.69-1.67,5.74-3.12c2.8-2,6-4.21,9.61-4.21s6.81,2.24,9.6,4.21c2.06,1.45,4,2.82,5.74,3.12s4.2-.31,6.69-1c3.4-.92,6.93-1.87,10.25-.66a9.13,9.13,0,0,1,1.15.51,2.22,2.22,0,0,0,3.17-2.57c-2.69-9.5-8.82-22.55-18.13-38.48-3.57-6.11-7.17-11.87-10.3-16.74a9.06,9.06,0,0,0-15.25,0c-3.14,4.87-6.73,10.63-10.3,16.74-9.11,15.59-15.18,28.42-18,37.87A2.24,2.24,0,0,0,73.34,138.12Z"/><path class="cls-1" d="M29.62,136.14c3.25-2.73,7.53-3.52,11.67-4.28,3.09-.56,6-1.1,8.22-2.38s4.07-3.5,6.08-5.88c2.73-3.24,5.56-6.58,9.6-8.06a15.38,15.38,0,0,1,5.94-.81,3.4,3.4,0,0,0,3.15-1.89l.1-.19a3.41,3.41,0,0,0-3-4.92l-1.06,0A21.63,21.63,0,0,0,62.79,109c-5.78,2.11-9.38,6.36-12.55,10.11-2.1,2.49-3.27,3.77-4.23,4.34s-2.72,1-6,1.56c-4.81.88-10.25,1.88-14.92,5.8s-6.6,9.13-8.3,13.71c-.35,1-.66,1.78-.94,2.48a3.24,3.24,0,0,0,.11,2.67l.37.7a3.21,3.21,0,0,0,5.78-.19l0-.05c.43-1,.82-2.08,1.23-3.18C24.84,143,26.36,138.88,29.62,136.14Z"/><path class="cls-1" d="M45,154.52c2.72-2.29,6.37-2.6,9.91-2.91,2.55-.22,5-.42,6.55-1.35A6.83,6.83,0,0,0,63,149.05a2.36,2.36,0,0,0,.65-1.73c0-.64,0-1.27,0-1.9a29.63,29.63,0,0,1,.39-4.54.83.83,0,0,0-1.45-.67,18,18,0,0,1-4.52,4c-2.75,1.6-6,2.05-9.22,2.5s-6.37.88-8.25,2.46-2.84,4.56-3.86,7.71-2,6.21-4,8.64a11.58,11.58,0,0,1-1.29,1.33,3.11,3.11,0,0,0-.27,4.43l.22.24a3.14,3.14,0,0,0,3.78.64A9.87,9.87,0,0,0,38,170c1.18-1.41,1.8-3.74,2.46-6.21C41.36,160.37,42.3,156.82,45,154.52Z"/><path class="cls-3" d="M104.2,5A99.11,99.11,0,0,0,7.29,125.38a38.29,38.29,0,0,1,6.89-7.61c8.1-6.81,16.92-8.43,22.76-9.51l.22,0,.05-.06C41.11,103.55,46.94,96.66,57,93a38.42,38.42,0,0,1,13.4-2.29,56.21,56.21,0,0,1,8.59.72,8.14,8.14,0,0,0,5-.79l1.7-.86A8.25,8.25,0,0,0,89,86.72c7.81-12.7,14.56-22.3,15.23-23.25a2.52,2.52,0,0,1,4.09,0c.68,1,7.72,11,15.75,24.1a8.19,8.19,0,0,0,3.3,3l.06,0a8.21,8.21,0,0,0,5,.8,57,57,0,0,1,8.65-.73A38.42,38.42,0,0,1,154.4,93c10,3.66,15.84,10.54,19.69,15.1l.11.12.11,0c5.94,1.09,14.76,2.72,22.87,9.53a37.75,37.75,0,0,1,4.55,4.58A99.12,99.12,0,0,0,104.2,5Z"/><path class="cls-1" d="M169.52,173.22c-1.9-2.26-2.69-5.25-3.45-8.14s-1.45-5.45-3-6.73-4.24-1.51-7.12-1.76-6.08-.52-8.64-2-4.28-4-6-6.45-3.22-4.65-5.12-5.35-4.45.05-7.23.8-5.91,1.59-8.85,1.08-5.35-2.26-7.76-4-4.67-3.29-6.72-3.29S101.35,139,99,140.7s-4.92,3.47-7.76,4-6-.3-8.86-1.08-5.4-1.46-7.23-.8-3.46,3-5.12,5.35-3.45,5-6,6.45-5.65,1.75-8.64,2-5.6.49-7.12,1.76-2.22,3.92-3,6.73-1.56,5.88-3.46,8.14A11.2,11.2,0,0,1,39.88,175a2.93,2.93,0,0,0-.16,4.59l0,0a2.9,2.9,0,0,0,3,.45c1.59-.67,3.8-1.69,4.39-2.4.93-1.11,1.36-3.3,1.78-5.42.6-3,1.28-6.49,3.78-8.59s6-2.17,9.09-2.23c2.17,0,4.4-.1,5.66-.83S69.88,158,71,156.2c1.61-2.67,3.43-5.7,6.52-6.83s6.34,0,9.26,1c2.06.7,4.19,1.43,5.65,1.17s3.09-1.62,4.74-2.95c2.44-2,5.2-4.2,8.53-4.2s6.09,2.23,8.52,4.2c1.66,1.33,3.37,2.71,4.74,2.95s3.59-.47,5.65-1.17c2.92-1,6.23-2.12,9.26-1s4.91,4.15,6.52,6.82c1.1,1.84,2.25,3.74,3.48,4.45s3.5.78,5.66.83c3.1.06,6.61.14,9.1,2.23s3.17,5.55,3.77,8.59c.42,2.12.85,4.31,1.78,5.42a6.94,6.94,0,0,0,2.3,1.55,2.91,2.91,0,0,0,3.14-.44l.6-.54a2.94,2.94,0,0,0,0-4.32A8.28,8.28,0,0,1,169.52,173.22Z"/><path class="cls-1" d="M194,121.6c-7.09-6-15.14-7.44-20.46-8.42l-1.11-.21a2.46,2.46,0,0,1-1.43-.83l-.69-.81c-3.51-4.16-8.82-10.43-17.59-13.63a33.4,33.4,0,0,0-11.68-2,57.57,57.57,0,0,0-6.5.54,3.35,3.35,0,0,0-2.5,5l.12.21a3.4,3.4,0,0,0,3.42,1.7,40.72,40.72,0,0,1,5.46-.4,26.63,26.63,0,0,1,9.28,1.56c7,2.57,11.43,7.78,14.65,11.58a38.66,38.66,0,0,0,2.95,3.25,37.69,37.69,0,0,0,4.35,1c4.88.9,11.55,2.13,17.23,6.9a25.6,25.6,0,0,1,4.25,4.58,3.47,3.47,0,0,0,6.17-1.09l0-.1a3.48,3.48,0,0,0-.55-2.93A32.09,32.09,0,0,0,194,121.6Z"/><path class="cls-1" d="M178.71,165.51c-2-2.43-3.06-5.58-4-8.64s-2-6.12-3.86-7.71-5-2-8.24-2.46-6.47-.9-9.23-2.5a15.23,15.23,0,0,1-3.27-2.63.83.83,0,0,0-1.41.68,27.25,27.25,0,0,1,.2,3.17c0,.93,0,1.87-.09,2.81a2.19,2.19,0,0,0,1.07,2h0c1.6.93,4,1.13,6.56,1.35,3.53.31,7.18.62,9.91,2.91s3.67,5.85,4.58,9.28c.65,2.47,1.27,4.8,2.45,6.21a5,5,0,0,0,.51.53,3.1,3.1,0,0,0,4.38-.27c.17-.19.34-.39.52-.58a3.16,3.16,0,0,0,0-4.15Z"/><path class="cls-1" d="M183.29,148.66c-1.3-3.5-2.52-6.8-4.77-8.69s-5.7-2.51-9.36-3.19c-3.37-.62-6.86-1.26-9.82-3s-5.19-4.38-7.39-7c-2.42-2.87-4.71-5.57-7.5-6.59h0a1.5,1.5,0,0,0-1.89,2l.07.15a36.19,36.19,0,0,0,5.8,9.3c.76.89,1.49,1.83,2.21,2.75,1.73,2.24,3.36,4.36,5.24,5.44s4.58,1.48,7.41,1.87c3.83.54,7.79,1.09,10.77,3.59s4.21,6.33,5.4,10a27,27,0,0,0,1.81,4,3.09,3.09,0,0,0,5.27.3c.05-.07.1-.14.14-.21a3.07,3.07,0,0,0,0-3.38A38.17,38.17,0,0,1,183.29,148.66Z"/><path class="cls-1" d="M193,140.54a24.76,24.76,0,0,0-6.77-9.75c-4.67-3.93-10.1-4.93-14.9-5.81-3.28-.6-5-1-6-1.55s-2.14-1.86-4.25-4.35c-3.17-3.75-6.76-8-12.54-10.11a21.67,21.67,0,0,0-7.57-1.26h-.06a3.3,3.3,0,0,0-3,4.76l.18.36a3.33,3.33,0,0,0,3,1.88,15,15,0,0,1,5,.83c4,1.48,6.86,4.82,9.6,8.06,2,2.38,3.91,4.62,6.08,5.88s5.12,1.82,8.22,2.39c4.14.76,8.42,1.54,11.67,4.27s4.77,6.83,6.24,10.78a.14.14,0,0,0,0,.07,3,3,0,0,0,5.6.28c.19-.39.38-.79.56-1.18a3.05,3.05,0,0,0,.08-2.39C193.87,142.71,193.34,141.34,193,140.54Z"/><path d="M30.49,30.49a104.25,104.25,0,1,0,147.43,0A104.36,104.36,0,0,0,30.49,30.49Zm-21,103.32-.06-.19a3.46,3.46,0,0,1,.32-2.72,33.74,33.74,0,0,1,7.64-9.3c7.1-6,15.13-7.44,20.49-8.43L39,113a2.46,2.46,0,0,0,1.43-.83l.69-.81c3.51-4.15,8.82-10.43,17.6-13.64a33.55,33.55,0,0,1,11.68-2,65.27,65.27,0,0,1,7.53.7,3.35,3.35,0,0,1,2.47,5l-.12.2a3.38,3.38,0,0,1-3.45,1.69,42.85,42.85,0,0,0-6.43-.54,26.68,26.68,0,0,0-9.29,1.56c-7,2.57-11.43,7.78-14.65,11.58a38.63,38.63,0,0,1-2.94,3.25,37.61,37.61,0,0,1-4.37,1c-4.87.9-11.54,2.12-17.21,6.9a27,27,0,0,0-6.12,7.48A3.44,3.44,0,0,1,9.49,133.81ZM88.3,97.56c3.57-6.11,7.16-11.87,10.3-16.74a9.06,9.06,0,0,1,15.25,0c3.13,4.87,6.73,10.63,10.3,16.74,9.31,15.93,15.44,29,18.13,38.48a2.22,2.22,0,0,1-3.17,2.57,9.13,9.13,0,0,0-1.15-.51c-3.32-1.21-6.85-.26-10.25.66-2.49.67-4.84,1.3-6.69,1s-3.68-1.67-5.74-3.12c-2.79-2-6-4.21-9.6-4.21s-6.81,2.24-9.61,4.21c-2,1.45-4,2.82-5.74,3.12s-4.2-.31-6.68-1c-3.41-.92-6.93-1.87-10.25-.66l-.06,0a2.24,2.24,0,0,1-3-2.69C73.12,126,79.19,113.15,88.3,97.56ZM22.13,150.15a3.21,3.21,0,0,1-5.78.19l-.37-.7a3.24,3.24,0,0,1-.11-2.67c.28-.7.59-1.52.94-2.48,1.7-4.58,3.62-9.77,8.3-13.71S35.22,125.86,40,125c3.26-.6,5-1,6-1.56s2.13-1.85,4.23-4.34c3.17-3.75,6.77-8,12.55-10.11a21.63,21.63,0,0,1,7.57-1.26l1.06,0a3.41,3.41,0,0,1,3,4.92l-.1.19a3.4,3.4,0,0,1-3.15,1.89,15.38,15.38,0,0,0-5.94.81c-4,1.48-6.87,4.82-9.6,8.06-2,2.38-3.91,4.62-6.08,5.88s-5.13,1.82-8.22,2.38c-4.14.76-8.42,1.55-11.67,4.28s-4.78,6.83-6.24,10.78c-.41,1.1-.8,2.17-1.23,3.18Zm6.21,12.67a3,3,0,0,1-4.52-.43l-.57-.79a3.07,3.07,0,0,1,.19-3.78v0c2.2-2.6,3.43-5.93,4.62-9.14,1.29-3.5,2.52-6.8,4.76-8.69s5.7-2.51,9.36-3.19c3.38-.62,6.87-1.26,9.82-3s5.2-4.38,7.4-7c2.42-2.87,4.7-5.57,7.49-6.59h0A2.09,2.09,0,0,1,69.57,123c-.09.23-.19.46-.29.69a15.64,15.64,0,0,1-4.1,5.66,37,37,0,0,0-4.43,5.06c-1.73,2.24-3.37,4.36-5.24,5.44s-4.58,1.48-7.41,1.87c-3.83.54-7.79,1.09-10.77,3.59s-4.22,6.33-5.4,10c-.88,2.71-1.7,5.28-3.11,7C28.67,162.47,28.51,162.65,28.34,162.82Zm6.74,9.33a3.14,3.14,0,0,1-3.78-.64l-.22-.24a3.11,3.11,0,0,1,.27-4.43,11.58,11.58,0,0,0,1.29-1.33c2-2.43,3.06-5.58,4-8.64s2-6.12,3.86-7.71,5-2,8.25-2.46,6.47-.9,9.22-2.5a18,18,0,0,0,4.52-4,.83.83,0,0,1,1.45.67,29.63,29.63,0,0,0-.39,4.54c0,.63,0,1.26,0,1.9a2.36,2.36,0,0,1-.65,1.73,6.83,6.83,0,0,1-1.49,1.21c-1.59.93-4,1.13-6.55,1.35-3.54.31-7.19.62-9.91,2.91s-3.68,5.85-4.58,9.28c-.66,2.47-1.28,4.8-2.46,6.21A9.87,9.87,0,0,1,35.08,172.15ZM150.5,192a99.65,99.65,0,0,1-90.72,1,2.07,2.07,0,0,1-.45-3.42,6.57,6.57,0,0,0,.88-.87c1.63-1.94,1.94-4.62,2.24-7.21.2-1.81.46-4.06,1.22-4.7s3-.51,4.83-.4l1.61.08a12.53,12.53,0,0,1,8.12,3.29,40.66,40.66,0,0,0,56.08-.11,12.11,12.11,0,0,1,7.65-3.21l.89,0c1.82-.11,4.08-.24,4.83.4s1,2.89,1.23,4.7c.3,2.59.6,5.27,2.23,7.21l0,0A2.15,2.15,0,0,1,150.5,192Zm-70-22.56,0,0c.81-1.64,1.83-3.68,2.78-4s3,.56,4.62,1.28c2.41,1,4.89,2.12,7.42,1.68s4.39-2.27,6.26-4.05c1.34-1.27,3-2.85,4.06-2.85s2.71,1.58,4,2.85c1.87,1.78,3.8,3.62,6.26,4.05s5-.64,7.42-1.68c1.66-.72,3.71-1.62,4.63-1.28s2,2.39,2.78,4l.36.72a5.61,5.61,0,0,1-1.27,6.74,35.65,35.65,0,0,1-48.22-.75A5.66,5.66,0,0,1,80.52,169.41Zm80.13,16.43-.79.55a2.78,2.78,0,0,1-2.44.32,6,6,0,0,1-2.45-1.28c-.66-.79-.89-2.8-1.09-4.57-.33-2.83-.7-6-3-8s-5.51-1.73-8.34-1.56c-1.79.11-3.81.23-4.71-.3s-1.77-2.3-2.56-3.89c-1.27-2.56-2.71-5.47-5.54-6.5s-5.73.26-8.33,1.39c-1.65.72-3.51,1.53-4.56,1.34s-2.42-1.54-3.69-2.74c-2.09-2-4.45-4.23-7.49-4.23s-5.41,2.25-7.5,4.23c-1.27,1.2-2.71,2.57-3.68,2.74s-2.92-.63-4.57-1.34c-2.6-1.13-5.54-2.4-8.33-1.39s-4.27,3.94-5.54,6.5c-.79,1.59-1.68,3.39-2.56,3.89s-2.92.41-4.7.3c-2.84-.17-6.06-.36-8.34,1.56s-2.66,5.13-3,8c-.2,1.77-.43,3.78-1.1,4.57-.47.55-2.93,1.41-4.49,1.91a2.8,2.8,0,0,1-2.36-.31l-.05,0a2.78,2.78,0,0,1-.06-4.58,8.63,8.63,0,0,0,1.6-1.48c1.76-2.09,2.32-4.92,2.86-7.66.46-2.35.93-4.77,2.08-5.73s3.61-1,6-1.06c2.79-.06,5.69-.12,8.06-1.5s3.83-3.82,5.26-6.2c1.24-2.06,2.51-4.19,3.94-4.71s3.7.29,5.94,1.05c2.65.91,5.41,1.85,8.13,1.37s4.86-2.26,7-4c1.88-1.52,3.83-3.09,5.39-3.09s3.5,1.57,5.38,3.09c2.15,1.73,4.37,3.52,7,4s5.48-.46,8.14-1.37c2.24-.76,4.55-1.55,5.93-1.05s2.71,2.65,4,4.71c1.43,2.38,2.91,4.84,5.25,6.2s5.27,1.44,8.07,1.5c2.38.05,4.84.1,6,1.06s1.63,3.38,2.09,5.73c.53,2.74,1.09,5.57,2.85,7.66.19.22.38.43.58.63A2.76,2.76,0,0,1,160.65,185.84Zm9.55-7.55-.6.54a2.91,2.91,0,0,1-3.14.44,6.94,6.94,0,0,1-2.3-1.55c-.93-1.11-1.36-3.3-1.78-5.42-.6-3-1.27-6.49-3.77-8.59s-6-2.17-9.1-2.23c-2.16,0-4.4-.1-5.66-.83s-2.38-2.61-3.48-4.45c-1.61-2.67-3.43-5.7-6.52-6.82s-6.34,0-9.26,1c-2.06.7-4.19,1.43-5.65,1.17s-3.08-1.62-4.74-2.95c-2.43-2-5.2-4.2-8.52-4.2s-6.09,2.23-8.53,4.2c-1.65,1.33-3.36,2.71-4.74,2.95s-3.59-.47-5.65-1.17c-2.92-1-6.22-2.12-9.26-1s-4.91,4.16-6.52,6.83c-1.1,1.84-2.24,3.74-3.48,4.45s-3.49.78-5.66.83c-3.09.06-6.6.14-9.09,2.23s-3.18,5.55-3.78,8.59c-.42,2.12-.85,4.31-1.78,5.42-.59.71-2.8,1.73-4.39,2.4a2.9,2.9,0,0,1-3-.45l0,0a2.93,2.93,0,0,1,.16-4.59,11.2,11.2,0,0,0,1.95-1.82c1.9-2.26,2.69-5.25,3.46-8.14s1.44-5.45,3-6.73,4.24-1.51,7.12-1.76,6.08-.52,8.64-2,4.29-4,6-6.45,3.23-4.66,5.12-5.35,4.45.05,7.23.8,5.91,1.6,8.86,1.08,5.34-2.26,7.76-4,4.66-3.29,6.72-3.29,4.32,1.6,6.72,3.29,4.91,3.47,7.76,4,6-.3,8.85-1.08,5.4-1.46,7.23-.8,3.46,3,5.12,5.35,3.45,5,6,6.45,5.65,1.75,8.64,2,5.61.49,7.12,1.76,2.22,3.93,3,6.73,1.55,5.88,3.45,8.14a8.28,8.28,0,0,0,.7.75A2.94,2.94,0,0,1,170.2,178.29Zm8.56-8.6c-.18.19-.35.39-.52.58a3.1,3.1,0,0,1-4.38.27,5,5,0,0,1-.51-.53c-1.18-1.41-1.8-3.74-2.45-6.21-.91-3.43-1.85-7-4.58-9.28s-6.38-2.6-9.91-2.91c-2.55-.22-5-.42-6.56-1.35h0a2.19,2.19,0,0,1-1.07-2c0-.94.09-1.88.09-2.81a27.25,27.25,0,0,0-.2-3.17.83.83,0,0,1,1.41-.68,15.23,15.23,0,0,0,3.27,2.63c2.76,1.6,6,2.05,9.23,2.5s6.36.88,8.24,2.46,2.85,4.56,3.86,7.71,2,6.21,4,8.64l0,0A3.16,3.16,0,0,1,178.76,169.69Zm7.89-10.26c0,.07-.09.14-.14.21a3.09,3.09,0,0,1-5.27-.3,27,27,0,0,1-1.81-4c-1.19-3.68-2.41-7.5-5.4-10s-6.94-3.05-10.77-3.59c-2.83-.39-5.5-.76-7.41-1.87s-3.51-3.2-5.24-5.44c-.72-.92-1.45-1.86-2.21-2.75a36.19,36.19,0,0,1-5.8-9.3l-.07-.15a1.5,1.5,0,0,1,1.89-2h0c2.79,1,5.08,3.72,7.5,6.59,2.2,2.6,4.47,5.29,7.39,7s6.45,2.35,9.82,3c3.66.68,7.12,1.31,9.36,3.19s3.47,5.19,4.77,8.69a38.17,38.17,0,0,0,3.34,7.39A3.07,3.07,0,0,1,186.65,159.43Zm7.51-13.34c-.18.39-.37.79-.56,1.18A3,3,0,0,1,188,147a.14.14,0,0,1,0-.07c-1.47-3.95-3-8-6.24-10.78s-7.53-3.51-11.67-4.27c-3.1-.57-6-1.11-8.22-2.39s-4.07-3.5-6.08-5.88c-2.74-3.24-5.57-6.58-9.6-8.06a15,15,0,0,0-5-.83,3.33,3.33,0,0,1-3-1.88l-.18-.36a3.3,3.3,0,0,1,3-4.76H141a21.67,21.67,0,0,1,7.57,1.26c5.78,2.11,9.37,6.36,12.54,10.11,2.11,2.49,3.28,3.78,4.25,4.35s2.7.95,6,1.55c4.8.88,10.23,1.88,14.9,5.81a24.76,24.76,0,0,1,6.77,9.75c.33.8.86,2.17,1.23,3.16A3.05,3.05,0,0,1,194.16,146.09Zm5.75-15.74,0,.1a3.47,3.47,0,0,1-6.17,1.09,25.6,25.6,0,0,0-4.25-4.58c-5.68-4.77-12.35-6-17.23-6.9a37.69,37.69,0,0,1-4.35-1,38.66,38.66,0,0,1-2.95-3.25c-3.22-3.8-7.62-9-14.65-11.58a26.63,26.63,0,0,0-9.28-1.56,40.72,40.72,0,0,0-5.46.4,3.4,3.4,0,0,1-3.42-1.7l-.12-.21a3.35,3.35,0,0,1,2.5-5,57.57,57.57,0,0,1,6.5-.54,33.4,33.4,0,0,1,11.68,2c8.77,3.2,14.08,9.47,17.59,13.63l.69.81a2.46,2.46,0,0,0,1.43.83l1.11.21c5.32,1,13.37,2.46,20.46,8.42a32.09,32.09,0,0,1,5.4,5.82A3.48,3.48,0,0,1,199.91,130.35Zm1.82-8a37.75,37.75,0,0,0-4.55-4.58c-8.11-6.81-16.93-8.44-22.87-9.53l-.11,0-.11-.12c-3.85-4.56-9.67-11.44-19.69-15.1A38.42,38.42,0,0,0,141,90.71a57,57,0,0,0-8.65.73,8.21,8.21,0,0,1-5-.8l-.06,0a8.19,8.19,0,0,1-3.3-3c-8-13.12-15.07-23.13-15.75-24.1a2.52,2.52,0,0,0-4.09,0c-.67,1-7.42,10.55-15.23,23.25a8.25,8.25,0,0,1-3.33,3.06l-1.7.86a8.14,8.14,0,0,1-5,.79,56.21,56.21,0,0,0-8.59-.72A38.42,38.42,0,0,0,57,93c-10,3.66-15.85,10.55-19.75,15.16l-.05.06-.22,0c-5.84,1.08-14.66,2.7-22.76,9.51a38.29,38.29,0,0,0-6.89,7.61,99.21,99.21,0,1,1,194.44-3Z"/></g></g></svg>