<svg xmlns="http://www.w3.org/2000/svg" viewBox="0 0 208.4 208.4"><defs><style>.cls-1{fill:#f8ac59;}.cls-2{fill:#fff5e7;}</style></defs><title>Asset 13</title><g id="Layer_2" data-name="Layer 2"><g id="Layer_2-2" data-name="Layer 2"><path class="cls-1" d="M169.88,29.81l-.06,0a3.47,3.47,0,0,0-4.76.14L29.91,165.06a3.47,3.47,0,0,0-.14,4.76l0,.06a3.47,3.47,0,0,0,5,.13L170,34.85A3.47,3.47,0,0,0,169.88,29.81Z"/><path class="cls-1" d="M160,22.12l-.06,0a3.48,3.48,0,0,0-4.41.41l-133,133a3.47,3.47,0,0,0-.41,4.41l0,.06a3.47,3.47,0,0,0,5.31.49l133-133A3.47,3.47,0,0,0,160,22.12Z"/><path class="cls-2" d="M70.55,192.3A3.48,3.48,0,0,0,71.9,198,99.24,99.24,0,0,0,198,71.9a3.48,3.48,0,0,0-5.74-1.35Z"/><path class="cls-1" d="M148.94,15.62l-.07,0a3.49,3.49,0,0,0-4.05.63L16.21,144.82a3.49,3.49,0,0,0-.63,4.05.25.25,0,0,0,0,.07,3.46,3.46,0,0,0,5.52.85L149.79,21.14A3.46,3.46,0,0,0,148.94,15.62Z"/><path class="cls-1" d="M48.43,186.29l.06,0a3.48,3.48,0,0,0,4.41-.42l133-133a3.47,3.47,0,0,0,.41-4.41l0-.06a3.45,3.45,0,0,0-5.31-.49l-133,133A3.46,3.46,0,0,0,48.43,186.29Z"/><path class="cls-1" d="M59.47,192.79l.06,0a3.47,3.47,0,0,0,4-.62L192.2,63.58a3.49,3.49,0,0,0,.62-4l0-.06a3.46,3.46,0,0,0-5.53-.85L58.62,187.26A3.46,3.46,0,0,0,59.47,192.79Z"/><path class="cls-1" d="M173.55,38.39,38.39,173.55a3.46,3.46,0,0,0,.14,5l0,0a3.47,3.47,0,0,0,4.76-.14L178.5,43.34a3.47,3.47,0,0,0,.14-4.76l0,0A3.46,3.46,0,0,0,173.55,38.39Z"/><path class="cls-2" d="M137.85,16.1a3.45,3.45,0,0,0-1.28-5.71A99.23,99.23,0,0,0,10.37,136.51a3.47,3.47,0,0,0,5.74,1.34Z"/><path d="M30.49,30.49a104.25,104.25,0,1,0,147.43,0A104.36,104.36,0,0,0,30.49,30.49Zm-20.12,106A99.3,99.3,0,0,1,136.57,10.39a3.45,3.45,0,0,1,1.28,5.71L16.11,137.85A3.47,3.47,0,0,1,10.37,136.51Zm5.25,12.43a.25.25,0,0,1,0-.07,3.49,3.49,0,0,1,.63-4.05L144.82,16.21a3.49,3.49,0,0,1,4.05-.63l.07,0a3.46,3.46,0,0,1,.85,5.52L21.14,149.79A3.46,3.46,0,0,1,15.62,148.94Zm6.5,11,0-.06a3.47,3.47,0,0,1,.41-4.41l133-133a3.48,3.48,0,0,1,4.41-.41l.06,0a3.47,3.47,0,0,1,.49,5.31l-133,133A3.47,3.47,0,0,1,22.12,160Zm7.69,9.9,0-.06a3.47,3.47,0,0,1,.14-4.76L165.06,29.91a3.47,3.47,0,0,1,4.76-.14l.06,0a3.47,3.47,0,0,1,.13,5L34.85,170A3.47,3.47,0,0,1,29.81,169.88ZM198,71.9A99.24,99.24,0,0,1,71.9,198a3.48,3.48,0,0,1-1.35-5.74L192.3,70.55A3.48,3.48,0,0,1,198,71.9Zm-5.25-12.43,0,.06a3.49,3.49,0,0,1-.62,4L63.58,192.2a3.47,3.47,0,0,1-4,.62l-.06,0a3.46,3.46,0,0,1-.85-5.53L187.26,58.62A3.46,3.46,0,0,1,192.79,59.47Zm-6.51-11,0,.06a3.47,3.47,0,0,1-.41,4.41l-133,133a3.48,3.48,0,0,1-4.41.42l-.06,0a3.46,3.46,0,0,1-.49-5.32l133-133A3.45,3.45,0,0,1,186.28,48.43Zm-7.64-9.85a3.47,3.47,0,0,1-.14,4.76L43.34,178.5a3.47,3.47,0,0,1-4.76.14l0,0a3.46,3.46,0,0,1-.14-5L173.55,38.39a3.46,3.46,0,0,1,5,.14Z"/></g></g></svg>