<svg xmlns="http://www.w3.org/2000/svg" viewBox="0 0 208.4 208.4"><defs><style>.cls-1{fill:#ddb190;}.cls-2{fill:#fff5e7;}.cls-3{fill:#c6df9e;}.cls-4{fill:#9c9bcc;}</style></defs><title>Asset 11</title><g id="Layer_2" data-name="Layer 2"><g id="Layer_2-2" data-name="Layer 2"><path class="cls-1" d="M150.85,188.9a12.6,12.6,0,0,1-5-1.79,24.05,24.05,0,0,1-6-6.44c-1.66-2.4-3.23-4.66-5.12-5.35s-4.45,0-7.23.79-5.92,1.6-8.86,1.08-5.34-2.26-7.76-4-4.66-3.29-6.72-3.29-4.32,1.6-6.72,3.29-4.91,3.47-7.76,4-6-.29-8.85-1.08-5.41-1.46-7.23-.79-3.46,3-5.12,5.35-3.45,5-6,6.44A13.65,13.65,0,0,1,58,188.65a1.64,1.64,0,0,0-.47,3c1,.57,2.14,1.15,3.1,1.64a5.06,5.06,0,0,0,2.78.52,6.85,6.85,0,0,0,2.66-.68c1.23-.72,2.37-2.62,3.48-4.46,1.6-2.67,3.42-5.69,6.51-6.82s6.35,0,9.27,1c2.06.71,4.19,1.43,5.65,1.18s3.08-1.62,4.73-3c2.44-2,5.21-4.2,8.53-4.2s6.09,2.23,8.53,4.2c1.65,1.34,3.36,2.71,4.73,3s3.59-.47,5.66-1.18c2.92-1,6.22-2.12,9.26-1s4.91,4.15,6.51,6.82c1.11,1.84,2.25,3.74,3.49,4.46a4.58,4.58,0,0,0,1.31.47,7.2,7.2,0,0,0,4.78-.62c.95-.48,1.9-1,2.84-1.47A1.43,1.43,0,0,0,150.85,188.9Z"/><path class="cls-1" d="M161.38,179.26l-.29,0c-3.18-.44-6.47-.9-9.22-2.5s-4.74-4.18-6.69-6.71-4-5.11-6.31-6-5.31-.18-8.52.51-6.42,1.38-9.58.82-5.84-2.28-8.51-4c-2.84-1.78-5.51-3.47-8.06-3.47s-5.22,1.69-8.06,3.47c-2.67,1.69-5.44,3.43-8.5,4s-6.43-.14-9.59-.82-6.25-1.34-8.52-.51-4.27,3.34-6.3,6-4,5.13-6.69,6.71-6,2.06-9.23,2.5l-.29,0a2.86,2.86,0,0,0-1.28,5.13l.07,0a2.81,2.81,0,0,0,2.33.45,34.89,34.89,0,0,1,5.33-.74c2.55-.22,5-.43,6.56-1.35s2.93-2.88,4.38-5c2-2.93,4.13-6,7.51-7.2s6.84-.26,10.25.66c2.49.68,4.84,1.31,6.68,1s3.69-1.68,5.75-3.13c2.79-2,6-4.21,9.6-4.21s6.81,2.24,9.6,4.21c2.06,1.45,4,2.82,5.75,3.13s4.2-.31,6.68-1c3.41-.92,6.93-1.87,10.25-.66s5.49,4.27,7.52,7.2c1.44,2.09,2.81,4.06,4.38,5s4,1.13,6.55,1.35a34.55,34.55,0,0,1,5.33.74,2.83,2.83,0,0,0,2.34-.45l.06,0A2.85,2.85,0,0,0,161.38,179.26Z"/><path class="cls-1" d="M172.37,170.41a42.48,42.48,0,0,0-4.68-1.1c-3.38-.62-6.87-1.27-9.83-3s-5.19-4.38-7.39-7c-2.42-2.86-4.7-5.57-7.5-6.59s-6.16-.4-9.81.22c-3.4.58-6.91,1.17-10.31.57s-6.32-2.3-9.25-4c-3.28-1.87-6.37-3.64-9.4-3.64s-6.12,1.77-9.4,3.64c-2.93,1.68-6,3.41-9.25,4s-6.91,0-10.31-.57c-3.65-.62-7.1-1.21-9.81-.22s-5.08,3.73-7.5,6.59c-2.2,2.6-4.47,5.29-7.39,7s-6.45,2.35-9.82,3c-1.44.27-2.84.53-4.15.86a3.14,3.14,0,0,0-1.41,5.27l.06.06a3.09,3.09,0,0,0,3.46.63,29.66,29.66,0,0,1,7.94-1.85c2.83-.4,5.5-.77,7.41-1.88s3.51-3.2,5.24-5.44c2.38-3.07,4.85-6.26,8.55-7.61s7.52-.49,11.28.32c2.81.61,5.46,1.18,7.67.79s4.34-1.78,6.71-3.28c3.31-2.08,6.73-4.24,10.72-4.24s7.41,2.16,10.72,4.24c2.37,1.5,4.62,2.91,6.71,3.28s4.86-.18,7.67-.79c3.76-.81,7.66-1.64,11.29-.32s6.16,4.54,8.54,7.62c1.73,2.23,3.37,4.35,5.24,5.44s4.58,1.47,7.41,1.87a29.31,29.31,0,0,1,8.24,2.15,3.12,3.12,0,0,0,3.5-.62l.16-.15A3.14,3.14,0,0,0,172.37,170.41Z"/><path class="cls-1" d="M134.61,191.3c-1.24-2.06-2.52-4.18-4-4.71s-3.69.29-5.93,1.06c-2.66.9-5.41,1.84-8.13,1.36s-4.87-2.26-7-4c-1.88-1.52-3.83-3.09-5.39-3.09s-3.5,1.57-5.39,3.09c-2.14,1.73-4.36,3.53-7,4s-5.47-.46-8.13-1.36c-2.24-.77-4.55-1.56-5.93-1.06s-2.71,2.65-3.95,4.71a36.61,36.61,0,0,1-2.1,3.24,2.45,2.45,0,0,0,1.17,3.8l.06,0a2.47,2.47,0,0,0,2.93-1.09,8.62,8.62,0,0,1,4.28-4.1c2.78-1,5.72.27,8.32,1.39,1.65.72,3.52,1.52,4.57,1.35s2.42-1.54,3.69-2.75c2.09-2,4.45-4.23,7.49-4.23s5.41,2.25,7.49,4.23c1.28,1.21,2.72,2.57,3.69,2.75s2.92-.63,4.57-1.35c2.6-1.12,5.55-2.4,8.32-1.39a8.64,8.64,0,0,1,4.27,4.08,2.5,2.5,0,0,0,2.94,1.11l.06,0a2.44,2.44,0,0,0,1.18-3.79A37.69,37.69,0,0,1,134.61,191.3Z"/><path class="cls-1" d="M126.81,198a1.49,1.49,0,0,0-.25-.13c-.91-.33-3,.56-4.62,1.28-2.41,1-4.9,2.12-7.43,1.68s-4.39-2.27-6.26-4c-1.34-1.27-3-2.86-4-2.86s-2.71,1.59-4,2.86c-1.87,1.77-3.81,3.61-6.26,4s-5-.64-7.42-1.68c-1.66-.72-3.72-1.61-4.63-1.28a2,2,0,0,0-.25.13,1.66,1.66,0,0,0,.65,2.95,100.14,100.14,0,0,0,43.92,0A1.66,1.66,0,0,0,126.81,198Z"/><path class="cls-2" d="M104.2,5A99.18,99.18,0,0,0,28.53,168.38c3.2-2.49,7.3-3.26,11.28-4,3.09-.57,6-1.11,8.22-2.39s4.07-3.5,6.08-5.88c2.74-3.24,5.57-6.58,9.6-8.05s8.23-.72,12.37,0c3.12.53,6.06,1,8.61.58s5-1.87,7.64-3.4l2.06-1.16c-18.53-4.94-32.3-22.83-32.3-44.09,0-24.23,38.94-79.6,40.59-81.94a2.5,2.5,0,0,1,4.09,0c1.65,2.34,40.59,57.71,40.59,81.94,0,21.54-14.13,39.61-33,44.27l1.74,1c2.68,1.53,5.21,3,7.64,3.4s5.49,0,8.6-.58c4.14-.7,8.41-1.43,12.37,0s6.87,4.82,9.6,8.05c2,2.38,3.91,4.63,6.08,5.88s5.13,1.82,8.22,2.39c4,.73,8.08,1.5,11.28,4A99.18,99.18,0,0,0,104.2,5Z"/><path class="cls-3" d="M111.11,33.48a7.62,7.62,0,0,0-12.77,0C86.69,51.42,67.09,84,67.09,100a42.73,42.73,0,0,0,.44,6.13,1.44,1.44,0,0,0,2.86,0c0-.21.06-.42.1-.63,2-11.38,8-20.79,16.67-25.8a19.89,19.89,0,0,1,10.18-2.77c7.25.13,11.5,6,12.39,11.44.85,5.18-1.6,8.8-3.76,12-1.59,2.35-3,4.39-2.9,6.76a8.82,8.82,0,0,0,1.83,5.35,8.45,8.45,0,0,0,4.79,2.74c4.35.69,9.13-2.32,10.22-3.58a2.2,2.2,0,0,1,.26-.27c1-.85,23.78-21.42,1.9-60.2h0C118.2,44.58,114.35,38.46,111.11,33.48Z"/><path class="cls-4" d="M104.72,140.43c20.75,0,37.64-18.15,37.64-40.45,0-4-1.21-8.93-3.19-14.44a1.44,1.44,0,0,0-2.8.4,47.22,47.22,0,0,1-2.26,11.88A41.42,41.42,0,0,1,123.57,115c-2.14,2.35-8.41,6.11-14.66,5.12a13.53,13.53,0,0,1-7.71-4.31,13.92,13.92,0,0,1-3.13-8.58c-.11-4,1.94-7,3.76-9.7s3.49-5.17,3-8.39c-.44-2.65-2.51-7.16-7.55-7.25A14.64,14.64,0,0,0,89.67,84c-7.36,4.26-12.55,12.4-14.25,22.32-1.6,9.32,1,21.81,9,27.66h0A35.47,35.47,0,0,0,104.72,140.43Z"/><path d="M30.49,30.49a104.25,104.25,0,1,0,147.43,0A104.36,104.36,0,0,0,30.49,30.49ZM126.16,201a100.14,100.14,0,0,1-43.92,0,1.66,1.66,0,0,1-.65-2.95,2,2,0,0,1,.25-.13c.91-.33,3,.56,4.63,1.28,2.4,1,4.89,2.12,7.42,1.68s4.39-2.27,6.26-4c1.34-1.27,3-2.86,4-2.86s2.71,1.59,4,2.86c1.87,1.77,3.81,3.61,6.26,4s5-.64,7.43-1.68c1.65-.72,3.71-1.61,4.62-1.28a1.49,1.49,0,0,1,.25.13A1.66,1.66,0,0,1,126.16,201Zm9.38-2.61-.06,0a2.5,2.5,0,0,1-2.94-1.11,8.64,8.64,0,0,0-4.27-4.08c-2.77-1-5.72.27-8.32,1.39-1.65.72-3.52,1.53-4.57,1.35s-2.41-1.54-3.69-2.75c-2.08-2-4.45-4.23-7.49-4.23s-5.4,2.25-7.49,4.23c-1.27,1.21-2.72,2.57-3.69,2.75s-2.92-.63-4.57-1.35c-2.6-1.12-5.54-2.4-8.32-1.39a8.62,8.62,0,0,0-4.28,4.1,2.47,2.47,0,0,1-2.93,1.09l-.06,0a2.45,2.45,0,0,1-1.17-3.8,36.61,36.61,0,0,0,2.1-3.24c1.24-2.06,2.52-4.18,3.95-4.71s3.69.29,5.93,1.06c2.66.9,5.41,1.84,8.13,1.36s4.87-2.26,7-4c1.89-1.52,3.83-3.09,5.39-3.09s3.51,1.57,5.39,3.09c2.14,1.73,4.36,3.53,7,4s5.47-.46,8.13-1.36c2.24-.77,4.56-1.56,5.93-1.06s2.71,2.65,4,4.71a37.69,37.69,0,0,0,2.11,3.25A2.44,2.44,0,0,1,135.54,198.34Zm15.77-6.78c-.94.5-1.89,1-2.84,1.47a7.2,7.2,0,0,1-4.78.62,4.58,4.58,0,0,1-1.31-.47c-1.24-.72-2.38-2.62-3.49-4.46-1.6-2.67-3.42-5.69-6.51-6.82s-6.34,0-9.26,1c-2.07.71-4.2,1.43-5.66,1.18s-3.08-1.62-4.73-3c-2.44-2-5.2-4.2-8.53-4.2s-6.09,2.23-8.53,4.2c-1.65,1.34-3.36,2.71-4.73,3s-3.59-.47-5.65-1.18c-2.92-1-6.23-2.12-9.27-1s-4.91,4.15-6.51,6.82c-1.11,1.84-2.25,3.74-3.48,4.46a6.85,6.85,0,0,1-2.66.68,5.06,5.06,0,0,1-2.78-.52c-1-.49-2.05-1.07-3.1-1.64a1.64,1.64,0,0,1,.47-3,13.65,13.65,0,0,0,4.57-1.54c2.54-1.47,4.29-4,6-6.44s3.22-4.66,5.12-5.35,4.45,0,7.23.79,5.91,1.6,8.85,1.08,5.35-2.26,7.76-4,4.66-3.29,6.72-3.29,4.32,1.6,6.72,3.29,4.91,3.47,7.76,4,5.95-.29,8.86-1.08,5.4-1.46,7.23-.79,3.46,3,5.12,5.35a24.05,24.05,0,0,0,6,6.44,12.6,12.6,0,0,0,5,1.79A1.43,1.43,0,0,1,151.31,191.56Zm11.35-7.17-.06,0a2.83,2.83,0,0,1-2.34.45,34.55,34.55,0,0,0-5.33-.74c-2.55-.22-5-.43-6.55-1.35s-2.94-2.88-4.38-5c-2-2.93-4.13-6-7.52-7.2s-6.84-.26-10.25.66c-2.48.68-4.84,1.31-6.68,1s-3.69-1.68-5.75-3.13c-2.79-2-6-4.21-9.6-4.21s-6.81,2.24-9.6,4.21c-2.06,1.45-4,2.82-5.75,3.13s-4.19-.31-6.68-1c-3.41-.92-6.93-1.87-10.25-.66s-5.48,4.27-7.51,7.2c-1.45,2.09-2.82,4.06-4.38,5s-4,1.13-6.56,1.35a34.89,34.89,0,0,0-5.33.74,2.81,2.81,0,0,1-2.33-.45l-.07,0A2.86,2.86,0,0,1,47,179.26l.29,0c3.18-.44,6.47-.9,9.23-2.5s4.74-4.18,6.69-6.71,4-5.11,6.3-6,5.31-.18,8.52.51,6.42,1.38,9.59.82,5.83-2.28,8.5-4c2.84-1.78,5.52-3.47,8.06-3.47s5.22,1.69,8.06,3.47c2.67,1.69,5.44,3.43,8.51,4s6.42-.14,9.58-.82,6.25-1.34,8.52-.51,4.27,3.34,6.31,6,4,5.13,6.69,6.71,6,2.06,9.22,2.5l.29,0A2.85,2.85,0,0,1,162.66,184.39Zm11-8.74-.16.15a3.12,3.12,0,0,1-3.5.62,29.31,29.31,0,0,0-8.24-2.15c-2.83-.4-5.5-.77-7.41-1.87s-3.51-3.21-5.24-5.44c-2.38-3.08-4.84-6.27-8.54-7.62s-7.53-.49-11.29.32c-2.81.61-5.46,1.17-7.67.79s-4.34-1.78-6.71-3.28c-3.31-2.08-6.73-4.24-10.72-4.24s-7.41,2.16-10.72,4.24c-2.37,1.5-4.61,2.91-6.71,3.28s-4.86-.18-7.67-.79c-3.76-.81-7.66-1.64-11.28-.32s-6.17,4.54-8.55,7.61c-1.73,2.24-3.37,4.36-5.24,5.44s-4.58,1.48-7.41,1.88a29.66,29.66,0,0,0-7.94,1.85,3.09,3.09,0,0,1-3.46-.63l-.06-.06a3.14,3.14,0,0,1,1.41-5.27c1.31-.33,2.71-.59,4.15-.86,3.37-.62,6.86-1.26,9.82-3s5.19-4.38,7.39-7c2.42-2.86,4.71-5.57,7.5-6.59s6.16-.4,9.81.22c3.4.58,6.91,1.17,10.31.57s6.32-2.3,9.25-4c3.28-1.87,6.38-3.64,9.4-3.64s6.12,1.77,9.4,3.64c2.93,1.68,6,3.41,9.25,4s6.91,0,10.31-.57c3.65-.62,7.1-1.21,9.81-.22s5.08,3.73,7.5,6.59c2.2,2.6,4.47,5.29,7.39,7s6.45,2.36,9.83,3a42.48,42.48,0,0,1,4.68,1.1A3.14,3.14,0,0,1,173.68,175.65ZM75.42,106.34c1.7-9.92,6.89-18.06,14.25-22.32a14.64,14.64,0,0,1,7.58-2.1c5,.09,7.11,4.6,7.55,7.25.52,3.22-1.1,5.61-3,8.39s-3.87,5.72-3.76,9.7a13.92,13.92,0,0,0,3.13,8.58,13.53,13.53,0,0,0,7.71,4.31c6.25,1,12.52-2.77,14.66-5.12a41.42,41.42,0,0,0,10.54-17.21,47.22,47.22,0,0,0,2.26-11.88,1.44,1.44,0,0,1,2.8-.4c2,5.51,3.19,10.48,3.19,14.44,0,22.3-16.89,40.45-37.64,40.45A35.47,35.47,0,0,1,84.43,134h0C76.4,128.15,73.82,115.66,75.42,106.34Zm44.75,5a2.2,2.2,0,0,0-.26.27c-1.09,1.26-5.87,4.27-10.22,3.58a8.45,8.45,0,0,1-4.79-2.74,8.82,8.82,0,0,1-1.83-5.35c-.07-2.37,1.31-4.41,2.9-6.76,2.16-3.2,4.61-6.82,3.76-12-.89-5.42-5.14-11.31-12.39-11.44a19.89,19.89,0,0,0-10.18,2.77c-8.64,5-14.72,14.42-16.67,25.8,0,.21-.07.42-.1.63a1.44,1.44,0,0,1-2.86,0,42.73,42.73,0,0,1-.44-6.13c0-16,19.6-48.56,31.25-66.51a7.62,7.62,0,0,1,12.77,0c3.24,5,7.09,11.1,11,17.67h0C144,89.94,121.14,110.51,120.17,111.36Zm59.7,57c-3.2-2.49-7.3-3.26-11.28-4-3.09-.57-6-1.11-8.22-2.39s-4.07-3.5-6.08-5.88c-2.73-3.23-5.56-6.58-9.6-8.05s-8.23-.72-12.37,0c-3.11.53-6.06,1-8.6.58s-5-1.87-7.64-3.4l-1.74-1c18.89-4.66,33-22.73,33-44.27,0-24.23-38.94-79.6-40.59-81.94a2.5,2.5,0,0,0-4.09,0C101,20.38,62.09,75.75,62.09,100c0,21.26,13.77,39.15,32.3,44.09l-2.06,1.16c-2.69,1.53-5.22,3-7.64,3.4s-5.49,0-8.61-.58c-4.14-.7-8.41-1.43-12.37,0s-6.86,4.81-9.6,8.05c-2,2.38-3.91,4.63-6.08,5.88s-5.13,1.82-8.22,2.39c-4,.73-8.08,1.5-11.28,4a99.24,99.24,0,1,1,151.34,0Z"/></g></g></svg>