<svg xmlns="http://www.w3.org/2000/svg" viewBox="0 0 208.4 208.4"><defs><style>.cls-1{fill:#ddb190;}.cls-2{fill:#fff5e7;}</style></defs><title>Asset 5</title><g id="Layer_2" data-name="Layer 2"><g id="Layer_2-2" data-name="Layer 2"><path class="cls-1" d="M178.5,56c0,3.23,2.26,4.88,4.88,6.79,2.87,2.08,6.12,4.44,6.12,9.21s-3.25,7.12-6.12,9.21c-2.62,1.91-4.88,3.55-4.88,6.79s2.26,4.88,4.88,6.78c2.87,2.09,6.12,4.45,6.12,9.21s-3.25,7.13-6.12,9.21c-2.62,1.91-4.88,3.55-4.88,6.79s2.26,4.88,4.88,6.78c2.87,2.09,6.12,4.45,6.12,9.22s-3.25,7.12-6.12,9.21c-2.59,1.88-4.82,3.51-4.88,6.66A6.52,6.52,0,0,0,181,157l.07.06a5.39,5.39,0,0,0,8-1.4,83.76,83.76,0,0,0,10-22.43v0a5.57,5.57,0,0,0-1.74-5.77c-2.07-1.75-3.82-4-3.82-7.45,0-4.76,3.25-7.13,6.12-9.21l.54-.4a7.85,7.85,0,0,0,3.22-6.36v-.07a7.86,7.86,0,0,0-3.22-6.34l-.54-.4c-2.87-2.09-6.12-4.45-6.12-9.21A9,9,0,0,1,196.72,81a7,7,0,0,0,1.82-7.26c-.8-2.45-1.77-5.34-2.55-7.24a98.67,98.67,0,0,0-8.74-16.64,2.7,2.7,0,0,0-3.85-.73l-2.08,1.51A6.63,6.63,0,0,0,178.5,56Z"/><path class="cls-1" d="M162.9,24.17a1.4,1.4,0,0,0-2.16,1.52h0c.66,2.16,2.53,3.52,4.64,5.05,2.87,2.08,6.12,4.45,6.12,9.21s-3.25,7.13-6.12,9.21c-2.62,1.91-4.88,3.55-4.88,6.79s2.26,4.88,4.88,6.79c2.87,2.08,6.12,4.44,6.12,9.21s-3.25,7.12-6.12,9.21c-2.62,1.91-4.88,3.55-4.88,6.79s2.26,4.88,4.88,6.78c2.87,2.09,6.12,4.45,6.12,9.21s-3.25,7.13-6.12,9.21c-2.62,1.91-4.88,3.55-4.88,6.79s2.26,4.88,4.88,6.78c2.87,2.09,6.12,4.45,6.12,9.22s-3.25,7.12-6.12,9.21c-2.62,1.9-4.88,3.55-4.88,6.78s2.26,4.89,4.88,6.79c2.87,2.09,6.12,4.45,6.12,9.21s-3.25,7.13-6.12,9.22c-2,1.44-3.76,2.73-4.51,4.68a1.56,1.56,0,0,0-.05.16,1.73,1.73,0,0,0,2.74,1.72,98.71,98.71,0,0,0,18.68-18.19,3,3,0,0,0-.6-4.35l0,0c-2.87-2.09-6.12-4.45-6.12-9.22s3.25-7.12,6.11-9.21c2.63-1.9,4.89-3.55,4.89-6.78s-2.26-4.88-4.88-6.79c-2.87-2.08-6.12-4.45-6.12-9.21s3.25-7.13,6.12-9.21c2.62-1.91,4.88-3.55,4.88-6.79s-2.26-4.88-4.88-6.78c-2.87-2.09-6.12-4.45-6.12-9.21s3.25-7.13,6.12-9.22c2.62-1.9,4.88-3.55,4.88-6.78s-2.26-4.88-4.88-6.79c-2.87-2.08-6.12-4.45-6.12-9.21s3.25-7.13,6.12-9.21l0,0a2.75,2.75,0,0,0,.53-3.93A98.46,98.46,0,0,0,174.38,34,100,100,0,0,0,162.9,24.17Z"/><path class="cls-1" d="M196.5,88c0,2.7,1.57,4.29,3.62,5.85h0a1.59,1.59,0,0,0,2.55-1.45q-.51-4.34-1.41-8.63A1.38,1.38,0,0,0,199,83,6.27,6.27,0,0,0,196.5,88Z"/><path class="cls-1" d="M109.62,193.15c-2.87-2.08-6.12-4.45-6.12-9.21s3.25-7.13,6.12-9.21c2.62-1.91,4.88-3.55,4.88-6.79s-2.26-4.88-4.88-6.78c-2.87-2.09-6.12-4.45-6.12-9.22s3.25-7.12,6.11-9.21c2.63-1.9,4.89-3.55,4.89-6.78s-2.26-4.88-4.88-6.79c-2.87-2.08-6.12-4.45-6.12-9.21s3.25-7.13,6.12-9.21c2.62-1.91,4.88-3.55,4.88-6.79s-2.26-4.88-4.88-6.78c-2.87-2.09-6.12-4.45-6.12-9.21s3.25-7.13,6.12-9.22c2.62-1.9,4.88-3.55,4.88-6.78s-2.26-4.88-4.88-6.79c-2.87-2.08-6.12-4.45-6.12-9.21s3.25-7.13,6.12-9.21c2.62-1.91,4.88-3.55,4.88-6.79s-2.26-4.88-4.88-6.79c-2.87-2.08-6.12-4.44-6.12-9.21s3.25-7.13,6.12-9.21c2.62-1.91,4.88-3.55,4.88-6.79v0a2.61,2.61,0,0,0-2.4-2.61Q108.16,5,104.2,5c-.61,0-1.22,0-1.84,0A2.93,2.93,0,0,0,99.5,7.93V8c0,4.77-3.25,7.13-6.12,9.22-2.62,1.9-4.88,3.55-4.88,6.78s2.26,4.88,4.88,6.79C96.25,32.83,99.5,35.2,99.5,40s-3.25,7.13-6.12,9.21C90.76,51.08,88.5,52.72,88.5,56s2.26,4.88,4.88,6.79c2.87,2.08,6.12,4.44,6.12,9.21s-3.25,7.12-6.12,9.21C90.76,83.08,88.5,84.72,88.5,88s2.26,4.88,4.88,6.78c2.87,2.09,6.12,4.45,6.12,9.21s-3.25,7.13-6.12,9.21c-2.62,1.91-4.88,3.55-4.88,6.79s2.26,4.88,4.88,6.78c2.87,2.09,6.12,4.45,6.12,9.22s-3.25,7.12-6.12,9.21c-2.62,1.9-4.88,3.55-4.88,6.78s2.26,4.89,4.88,6.79c2.87,2.09,6.12,4.45,6.12,9.21s-3.25,7.13-6.12,9.22c-2.62,1.9-4.88,3.55-4.88,6.78s2.26,4.88,4.88,6.79c2.87,2.08,6.12,4.45,6.12,9.21v0a3.42,3.42,0,0,0,3.36,3.41c2.89,0,5.79,0,8.68-.26a3.18,3.18,0,0,0,3-3.15v0C114.5,196.71,112.24,195.06,109.62,193.15Z"/><path class="cls-1" d="M91.62,193.15c-2.87-2.08-6.12-4.45-6.12-9.21s3.25-7.13,6.12-9.21c2.62-1.91,4.88-3.55,4.88-6.79s-2.26-4.88-4.88-6.78c-2.87-2.09-6.12-4.45-6.12-9.22s3.25-7.12,6.11-9.21c2.63-1.9,4.89-3.55,4.89-6.78s-2.26-4.88-4.88-6.79c-2.87-2.08-6.12-4.45-6.12-9.21s3.25-7.13,6.12-9.21c2.62-1.91,4.88-3.55,4.88-6.79s-2.26-4.88-4.88-6.78C88.75,95.08,85.5,92.72,85.5,88s3.25-7.13,6.12-9.22c2.62-1.9,4.88-3.55,4.88-6.78s-2.26-4.88-4.88-6.79C88.75,63.09,85.5,60.72,85.5,56s3.25-7.13,6.12-9.21C94.24,44.84,96.5,43.2,96.5,40s-2.26-4.88-4.88-6.79C88.75,31.09,85.5,28.73,85.5,24s3.25-7.13,6.12-9.21C94.24,12.84,96.5,11.2,96.5,8v0a2.36,2.36,0,0,0-2.67-2.37Q89.89,6,86,6.69a6.81,6.81,0,0,0-5.13,4.64q-.06.16-.12.3c-1.13,2.48-3.34,4.08-5.35,5.55-2.62,1.9-4.88,3.55-4.88,6.78s2.26,4.88,4.88,6.79C78.25,32.83,81.5,35.2,81.5,40s-3.25,7.13-6.12,9.21C72.76,51.08,70.5,52.72,70.5,56s2.26,4.88,4.88,6.79c2.87,2.08,6.12,4.44,6.12,9.21s-3.25,7.12-6.12,9.21C72.76,83.08,70.5,84.72,70.5,88s2.26,4.88,4.88,6.78c2.87,2.09,6.12,4.45,6.12,9.21s-3.25,7.13-6.12,9.21c-2.62,1.91-4.88,3.55-4.88,6.79s2.26,4.88,4.88,6.78c2.87,2.09,6.12,4.45,6.12,9.22s-3.25,7.12-6.12,9.21c-2.62,1.9-4.88,3.55-4.88,6.78s2.26,4.89,4.88,6.79c2.87,2.09,6.12,4.45,6.12,9.21s-3.25,7.13-6.12,9.22c-2.62,1.9-4.88,3.55-4.88,6.78s2.26,4.88,4.88,6.79,5.5,4,6,7.9v0a3.14,3.14,0,0,0,2.44,2.65c3.14.65,6.31,1.15,9.49,1.5A2.8,2.8,0,0,0,96.5,200v0C96.5,196.71,94.24,195.06,91.62,193.15Z"/><path class="cls-1" d="M73.62,193.15c-2.87-2.08-6.12-4.45-6.12-9.21s3.25-7.13,6.12-9.21c2.62-1.91,4.88-3.55,4.88-6.79s-2.26-4.88-4.88-6.78c-2.87-2.09-6.12-4.45-6.12-9.22s3.25-7.12,6.11-9.21c2.63-1.9,4.89-3.55,4.89-6.78s-2.26-4.88-4.88-6.79c-2.87-2.08-6.12-4.45-6.12-9.21s3.25-7.13,6.12-9.21c2.62-1.91,4.88-3.55,4.88-6.79s-2.26-4.88-4.88-6.78C70.75,95.08,67.5,92.72,67.5,88s3.25-7.13,6.12-9.22c2.62-1.9,4.88-3.55,4.88-6.78s-2.26-4.88-4.88-6.79C70.75,63.09,67.5,60.72,67.5,56s3.25-7.13,6.12-9.21C76.24,44.84,78.5,43.2,78.5,40s-2.26-4.88-4.88-6.79C70.75,31.09,67.5,28.73,67.5,24s3.25-7.13,6.12-9.21c.83-.61,1.63-1.19,2.32-1.81a1.93,1.93,0,0,0-1.86-3.27,99.34,99.34,0,0,0-11.4,4.41,30.59,30.59,0,0,0-5.28,3.08l-2.08,1.52A6.63,6.63,0,0,0,52.5,24c0,3.24,2.26,4.88,4.88,6.79C60.25,32.83,63.5,35.2,63.5,40s-3.25,7.13-6.12,9.21C54.76,51.08,52.5,52.72,52.5,56s2.26,4.88,4.88,6.79c2.87,2.08,6.12,4.44,6.12,9.21s-3.25,7.12-6.12,9.21C54.76,83.08,52.5,84.72,52.5,88s2.26,4.88,4.88,6.78c2.87,2.09,6.12,4.45,6.12,9.21s-3.25,7.13-6.12,9.21c-2.62,1.91-4.88,3.55-4.88,6.79s2.26,4.88,4.88,6.78c2.87,2.09,6.12,4.45,6.12,9.22s-3.25,7.12-6.12,9.21c-2.62,1.9-4.88,3.55-4.88,6.78s2.26,4.89,4.88,6.79c2.87,2.09,6.12,4.45,6.12,9.21s-3.25,7.13-6.12,9.22c-2.62,1.9-4.88,3.55-4.88,6.78s2.26,4.88,4.88,6.79l.82.6a33.83,33.83,0,0,0,6.83,4,99.13,99.13,0,0,0,9.36,3.45,2.05,2.05,0,0,0,2-3.44A26.45,26.45,0,0,0,73.62,193.15Z"/><path class="cls-1" d="M129.76,194.8c-.65-.56-1.38-1.09-2.14-1.65-2.87-2.08-6.12-4.45-6.12-9.21s3.25-7.13,6.12-9.21c2.62-1.91,4.88-3.55,4.88-6.79s-2.26-4.88-4.88-6.78c-2.87-2.09-6.12-4.45-6.12-9.22s3.25-7.12,6.11-9.21c2.63-1.9,4.89-3.55,4.89-6.78s-2.26-4.88-4.88-6.79c-2.87-2.08-6.12-4.45-6.12-9.21s3.25-7.13,6.12-9.21c2.62-1.91,4.88-3.55,4.88-6.79s-2.26-4.88-4.88-6.78c-2.87-2.09-6.12-4.45-6.12-9.21s3.25-7.13,6.12-9.22c2.62-1.9,4.88-3.55,4.88-6.78s-2.26-4.88-4.88-6.79c-2.87-2.08-6.12-4.45-6.12-9.21s3.25-7.13,6.12-9.21c2.62-1.91,4.88-3.55,4.88-6.79s-2.26-4.88-4.88-6.79c-2.87-2.08-6.12-4.44-6.12-9.21s3.25-7.13,6.12-9.21c.79-.58,1.56-1.14,2.24-1.72a2.9,2.9,0,0,0-1.19-5c-3-.76-6.09-1.37-9.16-1.84a1.75,1.75,0,0,0-2,1.74V8c0,4.77-3.25,7.13-6.12,9.22-2.62,1.9-4.88,3.55-4.88,6.78s2.26,4.88,4.88,6.79c2.87,2.08,6.12,4.45,6.12,9.21s-3.25,7.13-6.12,9.21c-2.62,1.91-4.88,3.55-4.88,6.79s2.26,4.88,4.88,6.79c2.87,2.08,6.12,4.44,6.12,9.21s-3.25,7.12-6.12,9.21c-2.62,1.91-4.88,3.55-4.88,6.79s2.26,4.88,4.88,6.78c2.87,2.09,6.12,4.45,6.12,9.21s-3.25,7.13-6.12,9.21c-2.62,1.91-4.88,3.55-4.88,6.79s2.26,4.88,4.88,6.78c2.87,2.09,6.12,4.45,6.12,9.22s-3.25,7.12-6.12,9.21c-2.62,1.9-4.88,3.55-4.88,6.78s2.26,4.89,4.88,6.79c2.87,2.09,6.12,4.45,6.12,9.21s-3.25,7.13-6.12,9.22c-2.62,1.9-4.88,3.55-4.88,6.78s2.26,4.88,4.88,6.79c2.87,2.08,6.12,4.45,6.12,9.21v0a2.17,2.17,0,0,0,2.49,2.16c2.82-.44,5.61-1,8.38-1.69A3.28,3.28,0,0,0,129.76,194.8Z"/><path class="cls-1" d="M200.4,113.86l-.85.59a6.76,6.76,0,0,0-3,5.86,6.3,6.3,0,0,0,2.41,4.51,1.51,1.51,0,0,0,2.48-.8c.58-2.9,1-5.83,1.37-8.76A1.51,1.51,0,0,0,200.4,113.86Z"/><path class="cls-1" d="M163.62,174.73c2.62-1.91,4.88-3.55,4.88-6.79s-2.26-4.88-4.88-6.78c-2.87-2.09-6.12-4.45-6.12-9.22s3.25-7.12,6.11-9.21c2.63-1.9,4.89-3.55,4.89-6.78s-2.26-4.88-4.88-6.79c-2.87-2.08-6.12-4.45-6.12-9.21s3.25-7.13,6.12-9.21c2.62-1.91,4.88-3.55,4.88-6.79s-2.26-4.88-4.88-6.78c-2.87-2.09-6.12-4.45-6.12-9.21s3.25-7.13,6.12-9.22c2.62-1.9,4.88-3.55,4.88-6.78s-2.26-4.88-4.88-6.79c-2.87-2.08-6.12-4.45-6.12-9.21s3.25-7.13,6.12-9.21c2.62-1.91,4.88-3.55,4.88-6.79s-2.26-4.88-4.88-6.79c-2.87-2.08-6.12-4.44-6.12-9.21v0a6.14,6.14,0,0,0-3-5.29l-.5-.29a7.88,7.88,0,0,0-9.11.79l-.18.16A6.12,6.12,0,0,0,142.5,24c0,3.24,2.26,4.88,4.88,6.79,2.87,2.08,6.12,4.45,6.12,9.21s-3.25,7.13-6.12,9.21c-2.62,1.91-4.88,3.55-4.88,6.79s2.26,4.88,4.88,6.79c2.87,2.08,6.12,4.44,6.12,9.21s-3.25,7.12-6.12,9.21c-2.62,1.91-4.88,3.55-4.88,6.79s2.26,4.88,4.88,6.78c2.87,2.09,6.12,4.45,6.12,9.21s-3.25,7.13-6.12,9.21c-2.62,1.91-4.88,3.55-4.88,6.79s2.26,4.88,4.88,6.78c2.87,2.09,6.12,4.45,6.12,9.22s-3.25,7.12-6.12,9.21c-2.62,1.9-4.88,3.55-4.88,6.78s2.26,4.89,4.88,6.79c2.87,2.09,6.12,4.45,6.12,9.21s-3.25,7.13-6.12,9.22c-2.62,1.9-4.89,3.55-4.88,6.78a6.63,6.63,0,0,0,2.82,5.29l2.08,1.51a4.54,4.54,0,0,0,4.87.29c1-.54,2-1.1,2.92-1.68a4.92,4.92,0,0,0,2.33-4.66c0-.24,0-.49,0-.75C157.5,179.18,160.75,176.81,163.62,174.73Z"/><path class="cls-1" d="M143.41,191.47c-2.11-1.76-3.91-4-3.91-7.53,0-4.76,3.25-7.13,6.12-9.21,2.62-1.91,4.88-3.55,4.88-6.79s-2.26-4.88-4.88-6.78c-2.87-2.09-6.12-4.45-6.12-9.22s3.25-7.12,6.11-9.21c2.63-1.9,4.89-3.55,4.89-6.78s-2.26-4.88-4.88-6.79c-2.87-2.08-6.12-4.45-6.12-9.21s3.25-7.13,6.12-9.21c2.62-1.91,4.88-3.55,4.88-6.79s-2.26-4.88-4.88-6.78c-2.87-2.09-6.12-4.45-6.12-9.21s3.25-7.13,6.12-9.22c2.62-1.9,4.88-3.55,4.88-6.78s-2.26-4.88-4.88-6.79c-2.87-2.08-6.12-4.45-6.12-9.21s3.25-7.13,6.12-9.21c2.62-1.91,4.88-3.55,4.88-6.79s-2.26-4.88-4.88-6.79c-2.87-2.08-6.12-4.44-6.12-9.21A8.65,8.65,0,0,1,141.75,18a3.84,3.84,0,0,0-1.37-6.15L138,11a3,3,0,0,0-3.66,1.34,16.68,16.68,0,0,1-5,4.87c-2.62,1.9-4.88,3.55-4.88,6.78s2.26,4.88,4.88,6.79c2.87,2.08,6.12,4.45,6.12,9.21s-3.25,7.13-6.12,9.21c-2.62,1.91-4.88,3.55-4.88,6.79s2.26,4.88,4.88,6.79c2.87,2.08,6.12,4.44,6.12,9.21s-3.25,7.12-6.12,9.21c-2.62,1.91-4.88,3.55-4.88,6.79s2.26,4.88,4.88,6.78c2.87,2.09,6.12,4.45,6.12,9.21s-3.25,7.13-6.12,9.21c-2.62,1.91-4.88,3.55-4.88,6.79s2.26,4.88,4.88,6.78c2.87,2.09,6.12,4.45,6.12,9.22s-3.25,7.12-6.12,9.21c-2.62,1.9-4.88,3.55-4.88,6.78s2.26,4.89,4.88,6.79c2.87,2.09,6.12,4.45,6.12,9.21s-3.25,7.13-6.12,9.22c-2.62,1.9-4.88,3.55-4.88,6.78s2.26,4.88,4.88,6.79c2,1.47,4.24,3.09,5.37,5.59a2.41,2.41,0,0,0,3,1.24q2.53-.9,5-1.95a2.44,2.44,0,0,0,.61-4.12Z"/><path class="cls-2" d="M55.62,174.73c2.62-1.91,4.88-3.55,4.88-6.79s-2.26-4.88-4.88-6.78c-2.87-2.09-6.12-4.45-6.12-9.22s3.25-7.12,6.11-9.21c2.63-1.9,4.89-3.55,4.89-6.78s-2.26-4.88-4.88-6.79c-2.87-2.08-6.12-4.45-6.12-9.21s3.25-7.13,6.12-9.21c2.62-1.91,4.88-3.55,4.88-6.79s-2.26-4.88-4.88-6.78C52.75,95.08,49.5,92.72,49.5,88s3.25-7.13,6.12-9.22c2.62-1.9,4.88-3.55,4.88-6.78s-2.26-4.88-4.88-6.79C52.75,63.09,49.5,60.72,49.5,56s3.25-7.13,6.12-9.21C58.24,44.84,60.5,43.2,60.5,40s-2.26-4.88-4.88-6.79C52.75,31.09,49.5,28.73,49.5,24v0a1.33,1.33,0,0,0-2.08-1.13,99.25,99.25,0,0,0,2.79,164.68,8.79,8.79,0,0,1-.71-3.54C49.5,179.18,52.75,176.81,55.62,174.73Z"/><path d="M30.49,30.49a104.25,104.25,0,1,0,147.43,0A104.36,104.36,0,0,0,30.49,30.49Zm19.72,157A99.24,99.24,0,0,1,47.42,22.8a1.33,1.33,0,0,1,2.08,1.13v0c0,4.77,3.25,7.13,6.12,9.21,2.62,1.91,4.88,3.55,4.88,6.79s-2.26,4.88-4.88,6.79C52.75,48.83,49.5,51.2,49.5,56s3.25,7.13,6.12,9.21c2.62,1.91,4.88,3.55,4.88,6.79s-2.26,4.88-4.88,6.78C52.75,80.83,49.5,83.19,49.5,88s3.25,7.12,6.12,9.21c2.62,1.9,4.88,3.55,4.88,6.78s-2.26,4.88-4.88,6.79c-2.87,2.08-6.12,4.45-6.12,9.21s3.25,7.13,6.12,9.21c2.62,1.91,4.88,3.55,4.88,6.79s-2.26,4.88-4.89,6.78c-2.86,2.09-6.11,4.45-6.11,9.21s3.25,7.13,6.12,9.22c2.62,1.9,4.88,3.55,4.88,6.78s-2.26,4.88-4.88,6.79c-2.87,2.08-6.12,4.45-6.12,9.21A8.79,8.79,0,0,0,50.21,187.48Zm24.18,11.34A99.13,99.13,0,0,1,65,195.37a33.83,33.83,0,0,1-6.83-4l-.82-.6c-2.62-1.91-4.88-3.55-4.88-6.79s2.26-4.88,4.88-6.78c2.87-2.09,6.12-4.45,6.12-9.22s-3.25-7.12-6.12-9.21c-2.62-1.9-4.88-3.55-4.88-6.79s2.26-4.88,4.88-6.78c2.87-2.09,6.12-4.45,6.12-9.21s-3.25-7.13-6.12-9.22c-2.62-1.9-4.88-3.55-4.88-6.78s2.26-4.88,4.88-6.79c2.87-2.08,6.12-4.45,6.12-9.21s-3.25-7.12-6.12-9.21c-2.62-1.9-4.88-3.55-4.88-6.78s2.26-4.88,4.88-6.79c2.87-2.09,6.12-4.45,6.12-9.21s-3.25-7.13-6.12-9.21C54.76,60.84,52.5,59.2,52.5,56s2.26-4.88,4.88-6.79c2.87-2.08,6.12-4.45,6.12-9.21s-3.25-7.13-6.12-9.21C54.76,28.84,52.5,27.2,52.5,24a6.63,6.63,0,0,1,2.82-5.28l2.08-1.52a30.59,30.59,0,0,1,5.28-3.08,99.34,99.34,0,0,1,11.4-4.41,1.93,1.93,0,0,1,1.86,3.27c-.69.62-1.49,1.2-2.32,1.81C70.75,16.83,67.5,19.2,67.5,24s3.25,7.13,6.12,9.21c2.62,1.91,4.88,3.55,4.88,6.79s-2.26,4.88-4.88,6.79C70.75,48.83,67.5,51.2,67.5,56s3.25,7.13,6.12,9.21c2.62,1.91,4.88,3.55,4.88,6.79s-2.26,4.88-4.88,6.78C70.75,80.83,67.5,83.19,67.5,88s3.25,7.12,6.12,9.21c2.62,1.9,4.88,3.55,4.88,6.78s-2.26,4.88-4.88,6.79c-2.87,2.08-6.12,4.45-6.12,9.21s3.25,7.13,6.12,9.21c2.62,1.91,4.88,3.55,4.88,6.79s-2.26,4.88-4.89,6.78c-2.86,2.09-6.11,4.45-6.11,9.21s3.25,7.13,6.12,9.22c2.62,1.9,4.88,3.55,4.88,6.78s-2.26,4.88-4.88,6.79c-2.87,2.08-6.12,4.45-6.12,9.21s3.25,7.13,6.12,9.21a26.45,26.45,0,0,1,2.79,2.23A2.05,2.05,0,0,1,74.39,198.82ZM96.5,200a2.8,2.8,0,0,1-3.16,2.82c-3.18-.35-6.35-.85-9.49-1.5a3.14,3.14,0,0,1-2.44-2.65v0c-.53-3.9-3.44-6-6-7.9s-4.88-3.55-4.88-6.79,2.26-4.88,4.88-6.78c2.87-2.09,6.12-4.45,6.12-9.22s-3.25-7.12-6.12-9.21c-2.62-1.9-4.88-3.55-4.88-6.79s2.26-4.88,4.88-6.78c2.87-2.09,6.12-4.45,6.12-9.21s-3.25-7.13-6.12-9.22c-2.62-1.9-4.88-3.55-4.88-6.78s2.26-4.88,4.88-6.79c2.87-2.08,6.12-4.45,6.12-9.21s-3.25-7.12-6.12-9.21c-2.62-1.9-4.88-3.55-4.88-6.78s2.26-4.88,4.88-6.79c2.87-2.09,6.12-4.45,6.12-9.21s-3.25-7.13-6.12-9.21C72.76,60.84,70.5,59.2,70.5,56s2.26-4.88,4.88-6.79c2.87-2.08,6.12-4.45,6.12-9.21s-3.25-7.13-6.12-9.21C72.76,28.84,70.5,27.2,70.5,24s2.26-4.88,4.88-6.78c2-1.47,4.22-3.07,5.35-5.55q.06-.14.12-.3A6.81,6.81,0,0,1,86,6.69q3.9-.72,7.85-1.13A2.36,2.36,0,0,1,96.5,7.93V8c0,3.24-2.26,4.88-4.88,6.79C88.75,16.83,85.5,19.2,85.5,24s3.25,7.13,6.12,9.21c2.62,1.91,4.88,3.55,4.88,6.79s-2.26,4.88-4.88,6.79C88.75,48.83,85.5,51.2,85.5,56s3.25,7.13,6.12,9.21c2.62,1.91,4.88,3.55,4.88,6.79s-2.26,4.88-4.88,6.78C88.75,80.83,85.5,83.19,85.5,88s3.25,7.12,6.12,9.21c2.62,1.9,4.88,3.55,4.88,6.78s-2.26,4.88-4.88,6.79c-2.87,2.08-6.12,4.45-6.12,9.21s3.25,7.13,6.12,9.21c2.62,1.91,4.88,3.55,4.88,6.79s-2.26,4.88-4.89,6.78c-2.86,2.09-6.11,4.45-6.11,9.21s3.25,7.13,6.12,9.22c2.62,1.9,4.88,3.55,4.88,6.78s-2.26,4.88-4.88,6.79c-2.87,2.08-6.12,4.45-6.12,9.21s3.25,7.13,6.12,9.21c2.62,1.91,4.88,3.56,4.88,6.79Zm18,0a3.18,3.18,0,0,1-3,3.15c-2.89.22-5.79.3-8.68.26A3.42,3.42,0,0,1,99.5,200v0c0-4.76-3.25-7.13-6.12-9.21-2.62-1.91-4.88-3.55-4.88-6.79s2.26-4.88,4.88-6.78c2.87-2.09,6.12-4.45,6.12-9.22s-3.25-7.12-6.12-9.21c-2.62-1.9-4.88-3.55-4.88-6.79s2.26-4.88,4.88-6.78c2.87-2.09,6.12-4.45,6.12-9.21s-3.25-7.13-6.12-9.22c-2.62-1.9-4.88-3.55-4.88-6.78s2.26-4.88,4.88-6.79c2.87-2.08,6.12-4.45,6.12-9.21s-3.25-7.12-6.12-9.21c-2.62-1.9-4.88-3.55-4.88-6.78s2.26-4.88,4.88-6.79c2.87-2.09,6.12-4.45,6.12-9.21s-3.25-7.13-6.12-9.21C90.76,60.84,88.5,59.2,88.5,56s2.26-4.88,4.88-6.79c2.87-2.08,6.12-4.45,6.12-9.21s-3.25-7.13-6.12-9.21C90.76,28.84,88.5,27.2,88.5,24s2.26-4.88,4.88-6.78C96.25,15.09,99.5,12.73,99.5,8v0A2.93,2.93,0,0,1,102.36,5c.62,0,1.23,0,1.84,0q4,0,7.9.32a2.61,2.61,0,0,1,2.4,2.61V8c0,3.24-2.26,4.88-4.88,6.79-2.87,2.08-6.12,4.45-6.12,9.21s3.25,7.13,6.12,9.21c2.62,1.91,4.88,3.55,4.88,6.79s-2.26,4.88-4.88,6.79c-2.87,2.08-6.12,4.45-6.12,9.21s3.25,7.13,6.12,9.21c2.62,1.91,4.88,3.55,4.88,6.79s-2.26,4.88-4.88,6.78c-2.87,2.09-6.12,4.45-6.12,9.22s3.25,7.12,6.12,9.21c2.62,1.9,4.88,3.55,4.88,6.78s-2.26,4.88-4.88,6.79c-2.87,2.08-6.12,4.45-6.12,9.21s3.25,7.13,6.12,9.21c2.62,1.91,4.88,3.55,4.88,6.79s-2.26,4.88-4.89,6.78c-2.86,2.09-6.11,4.45-6.11,9.21s3.25,7.13,6.12,9.22c2.62,1.9,4.88,3.55,4.88,6.78s-2.26,4.88-4.88,6.79c-2.87,2.08-6.12,4.45-6.12,9.21s3.25,7.13,6.12,9.21c2.62,1.91,4.88,3.56,4.88,6.79Zm13.87.46c-2.77.68-5.56,1.25-8.38,1.69A2.17,2.17,0,0,1,117.5,200v0c0-4.76-3.25-7.13-6.12-9.21-2.62-1.91-4.88-3.55-4.88-6.79s2.26-4.88,4.88-6.78c2.87-2.09,6.12-4.45,6.12-9.22s-3.25-7.12-6.12-9.21c-2.62-1.9-4.88-3.55-4.88-6.79s2.26-4.88,4.88-6.78c2.87-2.09,6.12-4.45,6.12-9.21s-3.25-7.13-6.12-9.22c-2.62-1.9-4.88-3.55-4.88-6.78s2.26-4.88,4.88-6.79c2.87-2.08,6.12-4.45,6.12-9.21s-3.25-7.12-6.12-9.21c-2.62-1.9-4.88-3.55-4.88-6.78s2.26-4.88,4.88-6.79c2.87-2.09,6.12-4.45,6.12-9.21s-3.25-7.13-6.12-9.21c-2.62-1.91-4.88-3.55-4.88-6.79s2.26-4.88,4.88-6.79c2.87-2.08,6.12-4.45,6.12-9.21s-3.25-7.13-6.12-9.21c-2.62-1.91-4.88-3.55-4.88-6.79s2.26-4.88,4.88-6.78c2.87-2.09,6.12-4.45,6.12-9.22v0a1.75,1.75,0,0,1,2-1.74c3.07.47,6.13,1.08,9.16,1.84a2.9,2.9,0,0,1,1.19,5c-.68.58-1.45,1.14-2.24,1.72-2.87,2.08-6.12,4.45-6.12,9.21s3.25,7.13,6.12,9.21c2.62,1.91,4.88,3.55,4.88,6.79s-2.26,4.88-4.88,6.79c-2.87,2.08-6.12,4.45-6.12,9.21s3.25,7.13,6.12,9.21c2.62,1.91,4.88,3.55,4.88,6.79s-2.26,4.88-4.88,6.78c-2.87,2.09-6.12,4.45-6.12,9.22s3.25,7.12,6.12,9.21c2.62,1.9,4.88,3.55,4.88,6.78s-2.26,4.88-4.88,6.79c-2.87,2.08-6.12,4.45-6.12,9.21s3.25,7.13,6.12,9.21c2.62,1.91,4.88,3.55,4.88,6.79s-2.26,4.88-4.89,6.78c-2.86,2.09-6.11,4.45-6.11,9.21s3.25,7.13,6.12,9.22c2.62,1.9,4.88,3.55,4.88,6.78s-2.26,4.88-4.88,6.79c-2.87,2.08-6.12,4.45-6.12,9.21s3.25,7.13,6.12,9.21c.76.56,1.49,1.09,2.14,1.65A3.28,3.28,0,0,1,128.37,200.44Zm14.46-4.83q-2.51,1-5,1.95a2.41,2.41,0,0,1-3-1.24c-1.13-2.5-3.34-4.12-5.37-5.59-2.62-1.91-4.88-3.55-4.88-6.79s2.26-4.88,4.88-6.78c2.87-2.09,6.12-4.45,6.12-9.22s-3.25-7.12-6.12-9.21c-2.62-1.9-4.88-3.55-4.88-6.79s2.26-4.88,4.88-6.78c2.87-2.09,6.12-4.45,6.12-9.21s-3.25-7.13-6.12-9.22c-2.62-1.9-4.88-3.55-4.88-6.78s2.26-4.88,4.88-6.79c2.87-2.08,6.12-4.45,6.12-9.21s-3.25-7.12-6.12-9.21c-2.62-1.9-4.88-3.55-4.88-6.78s2.26-4.88,4.88-6.79c2.87-2.09,6.12-4.45,6.12-9.21s-3.25-7.13-6.12-9.21c-2.62-1.91-4.88-3.55-4.88-6.79s2.26-4.88,4.88-6.79c2.87-2.08,6.12-4.45,6.12-9.21s-3.25-7.13-6.12-9.21c-2.62-1.91-4.88-3.55-4.88-6.79s2.26-4.88,4.88-6.78a16.68,16.68,0,0,0,5-4.87A3,3,0,0,1,138,11l2.34.91A3.84,3.84,0,0,1,141.75,18,8.65,8.65,0,0,0,139.5,24c0,4.77,3.25,7.13,6.12,9.21,2.62,1.91,4.88,3.55,4.88,6.79s-2.26,4.88-4.88,6.79c-2.87,2.08-6.12,4.45-6.12,9.21s3.25,7.13,6.12,9.21c2.62,1.91,4.88,3.55,4.88,6.79s-2.26,4.88-4.88,6.78c-2.87,2.09-6.12,4.45-6.12,9.22s3.25,7.12,6.12,9.21c2.62,1.9,4.88,3.55,4.88,6.78s-2.26,4.88-4.88,6.79c-2.87,2.08-6.12,4.45-6.12,9.21s3.25,7.13,6.12,9.21c2.62,1.91,4.88,3.55,4.88,6.79s-2.26,4.88-4.89,6.78c-2.86,2.09-6.11,4.45-6.11,9.21s3.25,7.13,6.12,9.22c2.62,1.9,4.88,3.55,4.88,6.78s-2.26,4.88-4.88,6.79c-2.87,2.08-6.12,4.45-6.12,9.21,0,3.55,1.8,5.77,3.91,7.53l0,0A2.44,2.44,0,0,1,142.83,195.61Zm14.69-10.92a4.92,4.92,0,0,1-2.33,4.66c-1,.58-1.94,1.14-2.92,1.68a4.54,4.54,0,0,1-4.87-.29l-2.08-1.51a6.63,6.63,0,0,1-2.82-5.29c0-3.23,2.26-4.88,4.88-6.78,2.87-2.09,6.12-4.45,6.12-9.22s-3.25-7.12-6.12-9.21c-2.62-1.9-4.88-3.55-4.88-6.79s2.26-4.88,4.88-6.78c2.87-2.09,6.12-4.45,6.12-9.21s-3.25-7.13-6.12-9.22c-2.62-1.9-4.88-3.55-4.88-6.78s2.26-4.88,4.88-6.79c2.87-2.08,6.12-4.45,6.12-9.21s-3.25-7.12-6.12-9.21c-2.62-1.9-4.88-3.55-4.88-6.78s2.26-4.88,4.88-6.79c2.87-2.09,6.12-4.45,6.12-9.21s-3.25-7.13-6.12-9.21c-2.62-1.91-4.88-3.55-4.88-6.79s2.26-4.88,4.88-6.79c2.87-2.08,6.12-4.45,6.12-9.21s-3.25-7.13-6.12-9.21c-2.62-1.91-4.88-3.55-4.88-6.79a6.12,6.12,0,0,1,2.19-4.66l.18-.16a7.88,7.88,0,0,1,9.11-.79l.5.29a6.14,6.14,0,0,1,3,5.29v0c0,4.77,3.25,7.13,6.12,9.21,2.62,1.91,4.88,3.55,4.88,6.79s-2.26,4.88-4.88,6.79c-2.87,2.08-6.12,4.45-6.12,9.21s3.25,7.13,6.12,9.21c2.62,1.91,4.88,3.55,4.88,6.79s-2.26,4.88-4.88,6.78c-2.87,2.09-6.12,4.45-6.12,9.22s3.25,7.12,6.12,9.21c2.62,1.9,4.88,3.55,4.88,6.78s-2.26,4.88-4.88,6.79c-2.87,2.08-6.12,4.45-6.12,9.21s3.25,7.13,6.12,9.21c2.62,1.91,4.88,3.55,4.88,6.79s-2.26,4.88-4.89,6.78c-2.86,2.09-6.11,4.45-6.11,9.21s3.25,7.13,6.12,9.22c2.62,1.9,4.88,3.55,4.88,6.78s-2.26,4.88-4.88,6.79c-2.87,2.08-6.12,4.45-6.12,9.21C157.5,184.2,157.51,184.45,157.52,184.69ZM201.4,124a1.51,1.51,0,0,1-2.48.8,6.3,6.3,0,0,1-2.41-4.51,6.76,6.76,0,0,1,3-5.86l.85-.59a1.51,1.51,0,0,1,2.37,1.4C202.44,118.19,202,121.12,201.4,124Zm-.13-40.28q.9,4.29,1.41,8.63a1.59,1.59,0,0,1-2.55,1.45h0c-2.05-1.56-3.62-3.15-3.62-5.85A6.27,6.27,0,0,1,199,83,1.38,1.38,0,0,1,201.27,83.74Zm-14-33.85A98.67,98.67,0,0,1,196,66.53c.78,1.9,1.75,4.79,2.55,7.24A7,7,0,0,1,196.72,81,9,9,0,0,0,193.5,88c0,4.76,3.25,7.12,6.12,9.21l.54.4a7.86,7.86,0,0,1,3.22,6.34V104a7.85,7.85,0,0,1-3.22,6.36l-.54.4c-2.87,2.08-6.12,4.45-6.12,9.21,0,3.5,1.75,5.7,3.82,7.45a5.57,5.57,0,0,1,1.74,5.77v0a83.76,83.76,0,0,1-10,22.43,5.39,5.39,0,0,1-8,1.4L181,157a6.52,6.52,0,0,1-2.51-5.14c.06-3.15,2.29-4.78,4.88-6.66,2.87-2.09,6.12-4.45,6.12-9.21s-3.25-7.13-6.12-9.22c-2.62-1.9-4.88-3.55-4.88-6.78s2.26-4.88,4.88-6.79c2.87-2.08,6.12-4.45,6.12-9.21s-3.25-7.12-6.12-9.21c-2.62-1.9-4.88-3.55-4.88-6.78s2.26-4.88,4.88-6.79c2.87-2.09,6.12-4.45,6.12-9.21s-3.25-7.13-6.12-9.21c-2.62-1.91-4.89-3.56-4.88-6.79a6.63,6.63,0,0,1,2.82-5.29l2.08-1.51A2.7,2.7,0,0,1,187.25,49.89Zm-5.61-3.16,0,0c-2.87,2.08-6.12,4.45-6.12,9.21s3.25,7.13,6.12,9.21c2.62,1.91,4.88,3.55,4.88,6.79s-2.26,4.88-4.88,6.78c-2.87,2.09-6.12,4.45-6.12,9.22s3.25,7.12,6.12,9.21c2.62,1.9,4.88,3.55,4.88,6.78s-2.26,4.88-4.88,6.79c-2.87,2.08-6.12,4.45-6.12,9.21s3.25,7.13,6.12,9.21c2.62,1.91,4.88,3.55,4.88,6.79s-2.26,4.88-4.89,6.78c-2.86,2.09-6.11,4.45-6.11,9.21s3.25,7.13,6.12,9.22l0,0a3,3,0,0,1,.6,4.35,98.71,98.71,0,0,1-18.68,18.19,1.73,1.73,0,0,1-2.74-1.72,1.56,1.56,0,0,1,.05-.16c.75-2,2.53-3.24,4.51-4.68,2.87-2.09,6.12-4.45,6.12-9.22s-3.25-7.12-6.12-9.21c-2.62-1.9-4.88-3.55-4.88-6.79s2.26-4.88,4.88-6.78c2.87-2.09,6.12-4.45,6.12-9.21s-3.25-7.13-6.12-9.22c-2.62-1.9-4.88-3.55-4.88-6.78s2.26-4.88,4.88-6.79c2.87-2.08,6.12-4.45,6.12-9.21s-3.25-7.12-6.12-9.21c-2.62-1.9-4.88-3.55-4.88-6.78s2.26-4.88,4.88-6.79c2.87-2.09,6.12-4.45,6.12-9.21s-3.25-7.13-6.12-9.21c-2.62-1.91-4.88-3.55-4.88-6.79s2.26-4.88,4.88-6.79c2.87-2.08,6.12-4.45,6.12-9.21s-3.25-7.13-6.12-9.21c-2.11-1.53-4-2.89-4.64-5.05h0a1.4,1.4,0,0,1,2.16-1.52A100,100,0,0,1,174.38,34a98.46,98.46,0,0,1,7.79,8.78A2.75,2.75,0,0,1,181.64,46.73Z"/></g></g></svg>