<svg xmlns="http://www.w3.org/2000/svg" viewBox="0 0 208.4 208.4"><defs><style>.cls-1{fill:#fff5e7;}.cls-2{fill:#ddb190;}</style></defs><title>Asset 7</title><g id="Layer_2" data-name="Layer 2"><g id="Layer_2-2" data-name="Layer 2"><path class="cls-1" d="M55,173.92c2.85-2.08,4.47-3.38,4.47-6S57.88,164,55,162s-6.53-4.75-6.53-10,3.62-7.9,6.53-10,4.47-3.37,4.47-6S57.88,132,55,130s-6.53-4.75-6.53-10,3.62-7.91,6.53-10,4.47-3.38,4.47-6-1.62-3.9-4.47-6S48.5,93.23,48.5,88s3.62-7.91,6.53-10,4.47-3.37,4.47-6-1.62-3.9-4.47-6S48.5,61.23,48.5,56s3.62-7.91,6.53-10,4.47-3.38,4.47-6-1.62-3.9-4.47-6S48.5,29.24,48.5,24a10.74,10.74,0,0,1,.19-2,99.22,99.22,0,0,0,.15,164.63,10.28,10.28,0,0,1-.34-2.63C48.5,178.67,52.12,176,55,173.92Z"/><path class="cls-2" d="M73,194c-2.91-2.11-6.53-4.75-6.53-10s3.62-7.9,6.53-10,4.47-3.38,4.47-6S75.88,164,73,162s-6.53-4.75-6.53-10,3.62-7.9,6.53-10,4.47-3.37,4.47-6S75.88,132,73,130s-6.53-4.75-6.53-10,3.62-7.91,6.53-10,4.47-3.38,4.47-6-1.62-3.9-4.47-6S66.5,93.23,66.5,88s3.62-7.91,6.53-10,4.47-3.37,4.47-6-1.62-3.9-4.47-6S66.5,61.23,66.5,56s3.62-7.91,6.53-10,4.47-3.38,4.47-6-1.62-3.9-4.47-6S66.5,29.24,66.5,24s3.62-7.9,6.53-10l.86-.63a1.75,1.75,0,0,0-1.6-3.06l-.2.07a49.75,49.75,0,0,0-13.5,7.21L58,18c-2.86,2.08-4.47,3.38-4.47,6s1.61,3.9,4.47,6,6.53,4.75,6.53,10S60.88,47.87,58,50s-4.47,3.38-4.47,6,1.61,3.9,4.47,6,6.53,4.75,6.53,10S60.88,79.86,58,82s-4.47,3.38-4.47,6,1.61,3.9,4.47,6,6.53,4.75,6.53,10-3.62,7.91-6.53,10-4.47,3.38-4.47,6,1.61,3.9,4.47,6,6.53,4.75,6.53,10-3.62,7.9-6.53,10-4.47,3.37-4.47,6,1.61,3.91,4.47,6,6.53,4.75,6.53,10-3.62,7.91-6.53,10-4.47,3.38-4.47,6,1.61,3.9,4.47,6l1.26.93a49.67,49.67,0,0,0,8,5q2.16,1.08,4.4,2c1.07.42,3.26,1.79,4.18.45C77.12,196.37,74.23,194.84,73,194Z"/><path class="cls-2" d="M91,194c-2.91-2.11-6.53-4.75-6.53-10s3.62-7.9,6.53-10,4.47-3.38,4.47-6S93.88,164,91,162s-6.53-4.75-6.53-10,3.62-7.9,6.53-10,4.47-3.37,4.47-6S93.88,132,91,130s-6.53-4.75-6.53-10,3.62-7.91,6.53-10,4.47-3.38,4.47-6-1.62-3.9-4.47-6S84.5,93.23,84.5,88s3.62-7.91,6.53-10,4.47-3.37,4.47-6-1.62-3.9-4.47-6S84.5,61.23,84.5,56s3.62-7.91,6.53-10,4.47-3.38,4.47-6-1.62-3.9-4.47-6S84.5,29.24,84.5,24s3.62-7.9,6.53-10,4.47-3.38,4.47-6v0A2.27,2.27,0,0,0,93,5.64c-1.89.21-3.78.49-5.67.82A7,7,0,0,0,81.9,11.4c0,.1-.06.18-.09.26C80.62,14.6,78.1,16.43,76,18c-2.86,2.08-4.47,3.38-4.47,6s1.61,3.9,4.47,6,6.53,4.75,6.53,10S78.88,47.87,76,50s-4.47,3.38-4.47,6,1.61,3.9,4.47,6,6.53,4.75,6.53,10S78.88,79.86,76,82s-4.47,3.38-4.47,6,1.61,3.9,4.47,6,6.53,4.75,6.53,10-3.62,7.91-6.53,10-4.47,3.38-4.47,6,1.61,3.9,4.47,6,6.53,4.75,6.53,10-3.62,7.9-6.53,10-4.47,3.37-4.47,6,1.61,3.91,4.47,6,6.53,4.75,6.53,10-3.62,7.91-6.53,10-4.47,3.38-4.47,6,1.61,3.9,4.47,6c2.35,1.71,5.16,3.75,6.16,7.25a12.81,12.81,0,0,1,.23,1.69,2.85,2.85,0,0,0,2.25,2.58c2.58.52,5.18.95,7.79,1.26A2.76,2.76,0,0,0,95.5,200v0C95.5,197.34,93.88,196,91,194Z"/><path class="cls-2" d="M109,194c-2.91-2.11-6.53-4.75-6.53-10s3.62-7.9,6.53-10,4.47-3.38,4.47-6-1.62-3.9-4.47-6-6.53-4.75-6.53-10,3.62-7.9,6.53-10,4.47-3.37,4.47-6-1.62-3.91-4.47-6-6.53-4.75-6.53-10,3.62-7.91,6.53-10,4.47-3.38,4.47-6-1.62-3.9-4.47-6-6.53-4.75-6.53-10,3.62-7.91,6.53-10,4.47-3.37,4.47-6-1.62-3.9-4.47-6-6.53-4.75-6.53-10,3.62-7.91,6.53-10,4.47-3.38,4.47-6-1.62-3.9-4.47-6-6.53-4.74-6.53-10,3.62-7.9,6.53-10,4.47-3.38,4.47-6v0a2.78,2.78,0,0,0-2.64-2.69c-2.21-.16-4.44-.24-6.66-.24h-.92a2.86,2.86,0,0,0-2.78,2.93V8c0,5.28-3.62,7.91-6.53,10s-4.47,3.38-4.47,6,1.61,3.9,4.47,6,6.53,4.75,6.53,10S96.88,47.87,94,50s-4.47,3.38-4.47,6,1.61,3.9,4.47,6,6.53,4.75,6.53,10S96.88,79.86,94,82s-4.47,3.38-4.47,6,1.61,3.9,4.47,6,6.53,4.75,6.53,10-3.62,7.91-6.53,10-4.47,3.38-4.47,6,1.61,3.9,4.47,6,6.53,4.75,6.53,10-3.62,7.9-6.53,10-4.47,3.37-4.47,6,1.61,3.91,4.47,6,6.53,4.75,6.53,10-3.62,7.91-6.53,10-4.47,3.38-4.47,6,1.61,3.9,4.47,6,6.53,4.75,6.53,10v0a3.41,3.41,0,0,0,3.41,3.41c2.18,0,4.37-.06,6.55-.2a3.24,3.24,0,0,0,3-3.21v0C113.5,197.34,111.88,196,109,194Z"/><path class="cls-2" d="M142,191.54a10,10,0,0,1-3.48-7.6c0-5.27,3.62-7.9,6.53-10s4.47-3.38,4.47-6-1.62-3.9-4.47-6-6.53-4.75-6.53-10,3.62-7.9,6.53-10,4.47-3.37,4.47-6-1.62-3.91-4.47-6-6.53-4.75-6.53-10,3.62-7.91,6.53-10,4.47-3.38,4.47-6-1.62-3.9-4.47-6-6.53-4.75-6.53-10,3.62-7.91,6.53-10,4.47-3.37,4.47-6-1.62-3.9-4.47-6-6.53-4.75-6.53-10,3.62-7.91,6.53-10,4.47-3.38,4.47-6-1.62-3.9-4.47-6-6.53-4.74-6.53-10A9.62,9.62,0,0,1,141,17.33a3.62,3.62,0,0,0-1.39-5.76l-.12-.05a3.6,3.6,0,0,0-4.4,1.47A17.94,17.94,0,0,1,130,18c-2.86,2.08-4.47,3.38-4.47,6s1.61,3.9,4.47,6,6.53,4.75,6.53,10-3.62,7.91-6.53,10-4.47,3.38-4.47,6,1.61,3.9,4.47,6,6.53,4.75,6.53,10-3.62,7.9-6.53,10-4.47,3.38-4.47,6,1.61,3.9,4.47,6,6.53,4.75,6.53,10-3.62,7.91-6.53,10-4.47,3.38-4.47,6,1.61,3.9,4.47,6,6.53,4.75,6.53,10-3.62,7.9-6.53,10-4.47,3.37-4.47,6,1.61,3.91,4.47,6,6.53,4.75,6.53,10-3.62,7.91-6.53,10-4.47,3.38-4.47,6,1.61,3.9,4.47,6c2,1.45,4.32,3.14,5.58,5.76a2.84,2.84,0,0,0,3.56,1.41c.68-.25,1.35-.51,2-.78a2.86,2.86,0,0,0,.87-4.74Z"/><path class="cls-2" d="M128.9,195.39c-.55-.45-1.17-.92-1.87-1.43-2.91-2.11-6.53-4.75-6.53-10s3.62-7.9,6.53-10,4.47-3.38,4.47-6-1.62-3.9-4.47-6-6.53-4.75-6.53-10,3.62-7.9,6.53-10,4.47-3.37,4.47-6-1.62-3.91-4.47-6-6.53-4.75-6.53-10,3.62-7.91,6.53-10,4.47-3.38,4.47-6-1.62-3.9-4.47-6-6.53-4.75-6.53-10,3.62-7.91,6.53-10,4.47-3.37,4.47-6-1.62-3.9-4.47-6-6.53-4.75-6.53-10,3.62-7.91,6.53-10,4.47-3.38,4.47-6-1.62-3.9-4.47-6-6.53-4.74-6.53-10,3.62-7.9,6.53-10l.81-.6a3.26,3.26,0,0,0-1.21-5.78q-3.1-.72-6.24-1.24a1.64,1.64,0,0,0-1.89,1.62V8c0,5.28-3.62,7.91-6.53,10s-4.47,3.38-4.47,6,1.61,3.9,4.47,6,6.53,4.75,6.53,10-3.62,7.91-6.53,10-4.47,3.38-4.47,6,1.61,3.9,4.47,6,6.53,4.75,6.53,10-3.62,7.9-6.53,10-4.47,3.38-4.47,6,1.61,3.9,4.47,6,6.53,4.75,6.53,10-3.62,7.91-6.53,10-4.47,3.38-4.47,6,1.61,3.9,4.47,6,6.53,4.75,6.53,10-3.62,7.9-6.53,10-4.47,3.37-4.47,6,1.61,3.91,4.47,6,6.53,4.75,6.53,10-3.62,7.91-6.53,10-4.47,3.38-4.47,6,1.61,3.9,4.47,6,6.53,4.75,6.53,10v0a2,2,0,0,0,2.37,2c2.28-.39,4.54-.85,6.79-1.4A3,3,0,0,0,128.9,195.39Z"/><path class="cls-2" d="M163,173.92c2.85-2.08,4.47-3.38,4.47-6s-1.62-3.9-4.47-6-6.53-4.75-6.53-10,3.62-7.9,6.53-10,4.47-3.37,4.47-6-1.62-3.91-4.47-6-6.53-4.75-6.53-10,3.62-7.91,6.53-10,4.47-3.38,4.47-6-1.62-3.9-4.47-6-6.53-4.75-6.53-10,3.62-7.91,6.53-10,4.47-3.37,4.47-6-1.62-3.9-4.47-6-6.53-4.75-6.53-10,3.62-7.91,6.53-10,4.47-3.38,4.47-6-1.62-3.9-4.47-6-6.53-4.74-6.53-10a10.42,10.42,0,0,1,.14-1.72,3.06,3.06,0,0,0-1.4-3.15c-1.09-.65-2.19-1.29-3.3-1.9a3,3,0,0,0-3.23.25L148,18c-2.86,2.08-4.47,3.38-4.47,6s1.61,3.9,4.47,6,6.53,4.75,6.53,10-3.62,7.91-6.53,10-4.47,3.38-4.47,6,1.61,3.9,4.47,6,6.53,4.75,6.53,10-3.62,7.9-6.53,10-4.47,3.38-4.47,6,1.61,3.9,4.47,6,6.53,4.75,6.53,10-3.62,7.91-6.53,10-4.47,3.38-4.47,6,1.61,3.9,4.47,6,6.53,4.75,6.53,10-3.62,7.9-6.53,10-4.47,3.37-4.47,6,1.61,3.91,4.47,6,6.53,4.75,6.53,10-3.62,7.91-6.53,10-4.47,3.38-4.47,6,1.61,3.9,4.47,6l0,0a5.21,5.21,0,0,0,5.67.31l.39-.23a5.2,5.2,0,0,0,2.5-5,9.08,9.08,0,0,1-.05-1.06C156.5,178.67,160.12,176,163,173.92Z"/><path class="cls-2" d="M200.61,115h0c-2,1.55-3.1,2.81-3.1,5a4.89,4.89,0,0,0,1.66,3.72,1.44,1.44,0,0,0,2.44-.71c.44-2.26.8-4.52,1.07-6.8A1.29,1.29,0,0,0,200.61,115Z"/><path class="cls-2" d="M164.89,25.69c-.31-.24-.62-.48-.94-.71a1.15,1.15,0,0,0-1.64,1.57A13.07,13.07,0,0,0,166,29.94c3,2,6.53,4.75,6.53,10s-3.62,7.91-6.53,10-4.47,3.38-4.47,6,1.61,3.9,4.47,6,6.53,4.75,6.53,10-3.62,7.9-6.53,10-4.47,3.38-4.47,6,1.61,3.9,4.47,6,6.53,4.75,6.53,10-3.62,7.91-6.53,10-4.47,3.38-4.47,6,1.61,3.9,4.47,6,6.53,4.75,6.53,10-3.62,7.9-6.53,10-4.47,3.37-4.47,6,1.61,3.91,4.47,6,6.53,4.75,6.53,10-3.62,7.91-6.53,10a27.1,27.1,0,0,0-2.73,2.17l0,0a1.53,1.53,0,0,0,2,2.29,97.71,97.71,0,0,0,9.16-8.08,96.67,96.67,0,0,0,7.25-8.11,3,3,0,0,0-.57-4.28l0,0c-2.91-2.12-6.53-4.75-6.53-10s3.62-7.9,6.53-10,4.47-3.37,4.47-6-1.62-3.91-4.47-6-6.53-4.75-6.53-10,3.62-7.91,6.53-10,4.47-3.38,4.47-6-1.62-3.9-4.47-6-6.53-4.75-6.53-10,3.62-7.91,6.53-10,4.47-3.37,4.47-6-1.62-3.9-4.47-6-6.53-4.75-6.53-10,3.62-7.91,6.53-10l0,0a2.68,2.68,0,0,0,.51-3.86,96.43,96.43,0,0,0-16.67-16.37Z"/><path class="cls-2" d="M179.5,56c0,2.6,1.61,3.9,4.47,6s6.53,4.75,6.53,10-3.62,7.9-6.53,10-4.47,3.38-4.47,6,1.61,3.9,4.47,6,6.53,4.75,6.53,10-3.62,7.91-6.53,10-4.47,3.38-4.47,6,1.61,3.9,4.47,6,6.53,4.75,6.53,10-3.62,7.9-6.53,10-4.47,3.37-4.47,6,1.61,3.91,4.47,6l0,0a2.9,2.9,0,0,0,4.16-.82,98.16,98.16,0,0,0,10.09-21.29,7.82,7.82,0,0,0-2.16-8.19l0,0A10,10,0,0,1,192.5,120c0-5.27,3.62-7.91,6.53-10,2.43-1.77,4-3,4.36-4.92,0-.72,0-1.44,0-2.17-.41-1.9-1.93-3.11-4.34-4.86-2.91-2.12-6.53-4.75-6.53-10a10,10,0,0,1,3.44-7.57l0,0a7.85,7.85,0,0,0,2.11-8.28,98.47,98.47,0,0,0-10.31-21.4A2.64,2.64,0,0,0,184,50h0C181.11,52.06,179.5,53.36,179.5,56Z"/><path class="cls-2" d="M200.68,93h0a1.22,1.22,0,0,0,1.95-1.13q-.39-3.07-1-6.12a1.78,1.78,0,0,0-3.13-.79,4.61,4.61,0,0,0-1,3C197.5,90.13,198.63,91.4,200.68,93Z"/><path d="M30.49,30.49a104.25,104.25,0,1,0,147.43,0A104.36,104.36,0,0,0,30.49,30.49ZM48.84,186.57a99.2,99.2,0,0,1-.15-164.63,10.74,10.74,0,0,0-.19,2c0,5.28,3.62,7.91,6.53,10s4.47,3.38,4.47,6-1.62,3.9-4.47,6S48.5,50.69,48.5,56,52.12,63.87,55,66s4.47,3.38,4.47,6-1.62,3.9-4.47,6S48.5,82.68,48.5,88s3.62,7.9,6.53,10,4.47,3.37,4.47,6-1.62,3.9-4.47,6-6.53,4.75-6.53,10,3.62,7.9,6.53,10,4.47,3.38,4.47,6-1.62,3.9-4.47,6-6.53,4.75-6.53,10,3.62,7.91,6.53,10,4.47,3.37,4.47,6-1.62,3.9-4.47,6-6.53,4.75-6.53,10A10.28,10.28,0,0,0,48.84,186.57Zm27,11.71c-.92,1.34-3.11,0-4.18-.45q-2.24-.89-4.4-2a49.67,49.67,0,0,1-8-5L58,189.92c-2.86-2.08-4.47-3.38-4.47-6s1.61-3.9,4.47-6,6.53-4.74,6.53-10-3.62-7.9-6.53-10-4.47-3.38-4.47-6,1.61-3.9,4.47-6,6.53-4.75,6.53-10-3.62-7.91-6.53-10-4.47-3.37-4.47-6,1.61-3.9,4.47-6,6.53-4.75,6.53-10-3.62-7.9-6.53-10-4.47-3.38-4.47-6,1.61-3.9,4.47-6,6.53-4.75,6.53-10-3.62-7.91-6.53-10-4.47-3.38-4.47-6,1.61-3.9,4.47-6,6.53-4.75,6.53-10-3.62-7.91-6.53-10-4.47-3.38-4.47-6,1.61-3.9,4.47-6l.62-.45a49.75,49.75,0,0,1,13.5-7.21l.2-.07a1.75,1.75,0,0,1,1.6,3.06l-.86.63c-2.91,2.12-6.53,4.75-6.53,10S70.12,31.87,73,34s4.47,3.38,4.47,6-1.62,3.9-4.47,6S66.5,50.69,66.5,56,70.12,63.87,73,66s4.47,3.38,4.47,6-1.62,3.9-4.47,6S66.5,82.68,66.5,88s3.62,7.9,6.53,10,4.47,3.37,4.47,6-1.62,3.9-4.47,6-6.53,4.75-6.53,10,3.62,7.9,6.53,10,4.47,3.38,4.47,6-1.62,3.9-4.47,6-6.53,4.75-6.53,10,3.62,7.91,6.53,10,4.47,3.37,4.47,6-1.62,3.9-4.47,6-6.53,4.75-6.53,10,3.62,7.91,6.53,10C74.23,194.84,77.12,196.37,75.83,198.28ZM95.5,200a2.76,2.76,0,0,1-3.1,2.72c-2.61-.31-5.21-.74-7.79-1.26a2.85,2.85,0,0,1-2.25-2.58,12.81,12.81,0,0,0-.23-1.69c-1-3.5-3.81-5.54-6.16-7.25-2.86-2.08-4.47-3.38-4.47-6s1.61-3.9,4.47-6,6.53-4.74,6.53-10-3.62-7.9-6.53-10-4.47-3.38-4.47-6,1.61-3.9,4.47-6,6.53-4.75,6.53-10-3.62-7.91-6.53-10-4.47-3.37-4.47-6,1.61-3.9,4.47-6,6.53-4.75,6.53-10-3.62-7.9-6.53-10-4.47-3.38-4.47-6,1.61-3.9,4.47-6,6.53-4.75,6.53-10-3.62-7.91-6.53-10-4.47-3.38-4.47-6,1.61-3.9,4.47-6,6.53-4.75,6.53-10-3.62-7.91-6.53-10-4.47-3.38-4.47-6,1.61-3.9,4.47-6c2.13-1.55,4.65-3.38,5.84-6.32,0-.08.06-.16.09-.26a7,7,0,0,1,5.38-4.94c1.89-.33,3.78-.61,5.67-.82A2.27,2.27,0,0,1,95.5,7.93V8c0,2.6-1.62,3.9-4.47,6S84.5,18.69,84.5,24,88.12,31.87,91,34s4.47,3.38,4.47,6-1.62,3.9-4.47,6S84.5,50.69,84.5,56,88.12,63.87,91,66s4.47,3.38,4.47,6-1.62,3.9-4.47,6S84.5,82.68,84.5,88s3.62,7.9,6.53,10,4.47,3.37,4.47,6-1.62,3.9-4.47,6-6.53,4.75-6.53,10,3.62,7.9,6.53,10,4.47,3.38,4.47,6-1.62,3.9-4.47,6-6.53,4.75-6.53,10,3.62,7.91,6.53,10,4.47,3.37,4.47,6-1.62,3.9-4.47,6-6.53,4.75-6.53,10,3.62,7.91,6.53,10,4.47,3.38,4.47,6Zm18,0a3.24,3.24,0,0,1-3,3.21c-2.18.14-4.37.21-6.55.2A3.41,3.41,0,0,1,100.5,200v0c0-5.27-3.62-7.91-6.53-10s-4.47-3.38-4.47-6,1.61-3.9,4.47-6,6.53-4.74,6.53-10-3.62-7.9-6.53-10-4.47-3.38-4.47-6,1.61-3.9,4.47-6,6.53-4.75,6.53-10-3.62-7.91-6.53-10-4.47-3.37-4.47-6,1.61-3.9,4.47-6,6.53-4.75,6.53-10-3.62-7.9-6.53-10-4.47-3.38-4.47-6,1.61-3.9,4.47-6,6.53-4.75,6.53-10-3.62-7.91-6.53-10-4.47-3.38-4.47-6,1.61-3.9,4.47-6,6.53-4.75,6.53-10-3.62-7.91-6.53-10-4.47-3.38-4.47-6,1.61-3.9,4.47-6,6.53-4.74,6.53-10v0A2.86,2.86,0,0,1,103.28,5h.92c2.22,0,4.45.08,6.66.24a2.78,2.78,0,0,1,2.64,2.69V8c0,2.6-1.62,3.9-4.47,6s-6.53,4.75-6.53,10,3.62,7.91,6.53,10,4.47,3.38,4.47,6-1.62,3.9-4.47,6-6.53,4.75-6.53,10,3.62,7.91,6.53,10,4.47,3.38,4.47,6-1.62,3.9-4.47,6-6.53,4.75-6.53,10,3.62,7.9,6.53,10,4.47,3.37,4.47,6-1.62,3.9-4.47,6-6.53,4.75-6.53,10,3.62,7.9,6.53,10,4.47,3.38,4.47,6-1.62,3.9-4.47,6-6.53,4.75-6.53,10,3.62,7.91,6.53,10,4.47,3.37,4.47,6-1.62,3.9-4.47,6-6.53,4.75-6.53,10,3.62,7.91,6.53,10,4.47,3.38,4.47,6Zm14.16.62c-2.25.55-4.51,1-6.79,1.4a2,2,0,0,1-2.37-2v0c0-5.27-3.62-7.91-6.53-10s-4.47-3.38-4.47-6,1.61-3.9,4.47-6,6.53-4.74,6.53-10-3.62-7.9-6.53-10-4.47-3.38-4.47-6,1.61-3.9,4.47-6,6.53-4.75,6.53-10-3.62-7.91-6.53-10-4.47-3.37-4.47-6,1.61-3.9,4.47-6,6.53-4.75,6.53-10-3.62-7.9-6.53-10-4.47-3.38-4.47-6,1.61-3.9,4.47-6,6.53-4.75,6.53-10-3.62-7.91-6.53-10-4.47-3.38-4.47-6,1.61-3.9,4.47-6,6.53-4.75,6.53-10-3.62-7.91-6.53-10-4.47-3.38-4.47-6,1.61-3.9,4.47-6,6.53-4.74,6.53-10v0a1.64,1.64,0,0,1,1.89-1.62q3.14.52,6.24,1.24a3.26,3.26,0,0,1,1.21,5.78l-.81.6c-2.91,2.12-6.53,4.75-6.53,10s3.62,7.91,6.53,10,4.47,3.38,4.47,6-1.62,3.9-4.47,6-6.53,4.75-6.53,10,3.62,7.91,6.53,10,4.47,3.38,4.47,6-1.62,3.9-4.47,6-6.53,4.75-6.53,10,3.62,7.9,6.53,10,4.47,3.37,4.47,6-1.62,3.9-4.47,6-6.53,4.75-6.53,10,3.62,7.9,6.53,10,4.47,3.38,4.47,6-1.62,3.9-4.47,6-6.53,4.75-6.53,10,3.62,7.91,6.53,10,4.47,3.37,4.47,6-1.62,3.9-4.47,6-6.53,4.75-6.53,10,3.62,7.91,6.53,10c.7.51,1.32,1,1.87,1.43A3,3,0,0,1,127.66,200.6Zm13.48-4.29c-.68.27-1.35.53-2,.78a2.84,2.84,0,0,1-3.56-1.41c-1.26-2.62-3.59-4.31-5.58-5.76-2.86-2.08-4.47-3.38-4.47-6s1.61-3.9,4.47-6,6.53-4.74,6.53-10-3.62-7.9-6.53-10-4.47-3.38-4.47-6,1.61-3.9,4.47-6,6.53-4.75,6.53-10-3.62-7.91-6.53-10-4.47-3.37-4.47-6,1.61-3.9,4.47-6,6.53-4.75,6.53-10-3.62-7.9-6.53-10-4.47-3.38-4.47-6,1.61-3.9,4.47-6,6.53-4.75,6.53-10-3.62-7.91-6.53-10-4.47-3.38-4.47-6,1.61-3.9,4.47-6,6.53-4.75,6.53-10-3.62-7.91-6.53-10-4.47-3.38-4.47-6,1.61-3.9,4.47-6a17.94,17.94,0,0,0,5.16-5,3.6,3.6,0,0,1,4.4-1.47l.12.05A3.62,3.62,0,0,1,141,17.33,9.62,9.62,0,0,0,138.5,24c0,5.28,3.62,7.91,6.53,10s4.47,3.38,4.47,6-1.62,3.9-4.47,6-6.53,4.75-6.53,10,3.62,7.91,6.53,10,4.47,3.38,4.47,6-1.62,3.9-4.47,6-6.53,4.75-6.53,10,3.62,7.9,6.53,10,4.47,3.37,4.47,6-1.62,3.9-4.47,6-6.53,4.75-6.53,10,3.62,7.9,6.53,10,4.47,3.38,4.47,6-1.62,3.9-4.47,6-6.53,4.75-6.53,10,3.62,7.91,6.53,10,4.47,3.37,4.47,6-1.62,3.9-4.47,6-6.53,4.75-6.53,10a10,10,0,0,0,3.48,7.6l0,0A2.86,2.86,0,0,1,141.14,196.31ZM156.55,185a5.2,5.2,0,0,1-2.5,5l-.39.23a5.21,5.21,0,0,1-5.67-.31l0,0c-2.86-2.08-4.47-3.38-4.47-6s1.61-3.9,4.47-6,6.53-4.74,6.53-10-3.62-7.9-6.53-10-4.47-3.38-4.47-6,1.61-3.9,4.47-6,6.53-4.75,6.53-10-3.62-7.91-6.53-10-4.47-3.37-4.47-6,1.61-3.9,4.47-6,6.53-4.75,6.53-10-3.62-7.9-6.53-10-4.47-3.38-4.47-6,1.61-3.9,4.47-6,6.53-4.75,6.53-10-3.62-7.91-6.53-10-4.47-3.38-4.47-6,1.61-3.9,4.47-6,6.53-4.75,6.53-10-3.62-7.91-6.53-10-4.47-3.38-4.47-6,1.61-3.9,4.47-6l.74-.54a3,3,0,0,1,3.23-.25c1.11.61,2.21,1.25,3.3,1.9a3.06,3.06,0,0,1,1.4,3.15A10.42,10.42,0,0,0,156.5,24c0,5.28,3.62,7.91,6.53,10s4.47,3.38,4.47,6-1.62,3.9-4.47,6-6.53,4.75-6.53,10,3.62,7.91,6.53,10,4.47,3.38,4.47,6-1.62,3.9-4.47,6-6.53,4.75-6.53,10,3.62,7.9,6.53,10,4.47,3.37,4.47,6-1.62,3.9-4.47,6-6.53,4.75-6.53,10,3.62,7.9,6.53,10,4.47,3.38,4.47,6-1.62,3.9-4.47,6-6.53,4.75-6.53,10,3.62,7.91,6.53,10,4.47,3.37,4.47,6-1.62,3.9-4.47,6-6.53,4.75-6.53,10A9.08,9.08,0,0,0,156.55,185Zm45-62a1.44,1.44,0,0,1-2.44.71A4.89,4.89,0,0,1,197.5,120c0-2.15,1.1-3.41,3.1-5h0a1.29,1.29,0,0,1,2.06,1.18C202.4,118.44,202,120.7,201.6,123Zm.06-37.23q.59,3,1,6.12A1.22,1.22,0,0,1,200.69,93h0c-2.05-1.57-3.18-2.84-3.18-5a4.61,4.61,0,0,1,1-3A1.78,1.78,0,0,1,201.66,85.73ZM184,50a2.64,2.64,0,0,1,3.78.72,98.47,98.47,0,0,1,10.31,21.4A7.85,7.85,0,0,1,196,80.37l0,0A10,10,0,0,0,192.5,88c0,5.27,3.62,7.9,6.53,10,2.41,1.75,3.93,3,4.34,4.86,0,.73,0,1.45,0,2.17-.4,1.93-1.93,3.15-4.36,4.92-2.91,2.11-6.53,4.75-6.53,10a10,10,0,0,0,3.55,7.66l0,0a7.82,7.82,0,0,1,2.16,8.19,98.16,98.16,0,0,1-10.09,21.29,2.9,2.9,0,0,1-4.16.82l0,0c-2.86-2.07-4.47-3.38-4.47-6s1.61-3.9,4.47-6,6.53-4.75,6.53-10-3.62-7.91-6.53-10-4.47-3.37-4.47-6,1.61-3.9,4.47-6,6.53-4.75,6.53-10-3.62-7.9-6.53-10-4.47-3.38-4.47-6,1.61-3.9,4.47-6,6.53-4.75,6.53-10-3.62-7.91-6.53-10-4.47-3.38-4.47-6,1.61-3.9,4.47-6Zm-2.94-4,0,0c-2.91,2.11-6.53,4.75-6.53,10s3.62,7.91,6.53,10,4.47,3.38,4.47,6-1.62,3.9-4.47,6-6.53,4.75-6.53,10,3.62,7.9,6.53,10,4.47,3.37,4.47,6-1.62,3.9-4.47,6-6.53,4.75-6.53,10,3.62,7.9,6.53,10,4.47,3.38,4.47,6-1.62,3.9-4.47,6-6.53,4.75-6.53,10,3.62,7.91,6.53,10l0,0a3,3,0,0,1,.57,4.28,96.67,96.67,0,0,1-7.25,8.11,97.71,97.71,0,0,1-9.16,8.08,1.53,1.53,0,0,1-2-2.29l0,0A27.1,27.1,0,0,1,166,178c2.91-2.11,6.53-4.74,6.53-10s-3.62-7.9-6.53-10-4.47-3.38-4.47-6,1.61-3.9,4.47-6,6.53-4.75,6.53-10-3.62-7.91-6.53-10-4.47-3.37-4.47-6,1.61-3.9,4.47-6,6.53-4.75,6.53-10-3.62-7.9-6.53-10-4.47-3.38-4.47-6,1.61-3.9,4.47-6,6.53-4.75,6.53-10-3.62-7.91-6.53-10-4.47-3.38-4.47-6,1.61-3.9,4.47-6,6.53-4.75,6.53-10-3.55-8-6.53-10a13.07,13.07,0,0,1-3.66-3.39A1.15,1.15,0,0,1,164,25c.32.23.63.47.94.71a96.43,96.43,0,0,1,16.67,16.37A2.68,2.68,0,0,1,181.05,45.92Z"/></g></g></svg>