<svg xmlns="http://www.w3.org/2000/svg" viewBox="0 0 208.4 208.4"><defs><style>.cls-1{fill:#ddb190;}.cls-2{fill:#fff5e7;}</style></defs><title>Asset 6</title><g id="Layer_2" data-name="Layer 2"><g id="Layer_2-2" data-name="Layer 2"><path class="cls-1" d="M108.14,195.18c-3-2.2-7.14-5.2-7.14-11.24s4.13-9,7.14-11.23c2.8-2,3.86-3,3.86-4.77s-1.06-2.73-3.86-4.76c-3-2.19-7.14-5.2-7.14-11.24s4.13-9,7.14-11.23c2.8-2,3.86-3,3.86-4.76s-1.06-2.73-3.85-4.77C105.13,129,101,126,101,120s4.13-9,7.15-11.24c2.79-2,3.85-3,3.85-4.76s-1.06-2.73-3.85-4.76C105.13,97,101,94,101,88s4.13-9,7.14-11.24c2.8-2,3.86-3,3.86-4.76s-1.06-2.73-3.86-4.77C105.13,65,101,62,101,56s4.13-9,7.14-11.24c2.8-2,3.86-3,3.86-4.76s-1.06-2.73-3.85-4.76C105.13,33,101,30,101,24s4.13-9,7.14-11.23c2.8-2,3.86-3,3.86-4.77v0a2.81,2.81,0,0,0-2.64-2.78c-1.72-.09-3.44-.15-5.16-.15h0A2.17,2.17,0,0,0,102,7.27c0,.22,0,.46,0,.69,0,6-4.13,9-7.15,11.24-2.8,2-3.85,3-3.85,4.76s1,2.73,3.85,4.77c3,2.19,7.15,5.19,7.15,11.23s-4.13,9-7.15,11.24c-2.8,2-3.85,3-3.85,4.76s1,2.73,3.85,4.76c3,2.2,7.15,5.2,7.15,11.24s-4.13,9-7.15,11.23c-2.8,2-3.85,3-3.85,4.77s1,2.73,3.85,4.76c3,2.19,7.15,5.2,7.15,11.23s-4.13,9-7.15,11.24c-2.8,2-3.85,3-3.85,4.76s1,2.73,3.85,4.76c3,2.2,7.15,5.2,7.15,11.24s-4.13,9-7.15,11.23c-2.8,2-3.85,3-3.85,4.76s1,2.74,3.85,4.77c3,2.19,7.15,5.2,7.15,11.23s-4.13,9-7.15,11.24c-2.8,2-3.85,3-3.85,4.76s1,2.73,3.85,4.77c3,2.19,7.15,5.19,7.15,11.23v0a3.33,3.33,0,0,0,3.3,3.4c1.11,0,2.21,0,3.31-.09a3.57,3.57,0,0,0,3-1.83,3.18,3.18,0,0,0,.35-1.52C112,198.15,110.94,197.21,108.14,195.18Z"/><path class="cls-1" d="M144.14,172.71c2.8-2,3.86-3,3.86-4.77s-1.06-2.73-3.86-4.76c-3-2.19-7.14-5.2-7.14-11.24s4.13-9,7.14-11.23c2.8-2,3.86-3,3.86-4.76s-1.06-2.73-3.85-4.77C141.13,129,137,126,137,120s4.13-9,7.15-11.24c2.79-2,3.85-3,3.85-4.76s-1.06-2.73-3.85-4.76C141.13,97,137,94,137,88s4.13-9,7.14-11.24c2.8-2,3.86-3,3.86-4.76s-1.06-2.73-3.86-4.77C141.13,65,137,62,137,56s4.13-9,7.14-11.24c2.8-2,3.86-3,3.86-4.76s-1.06-2.73-3.85-4.76C141.13,33,137,30,137,24a11.3,11.3,0,0,1,3.74-8.48,2.33,2.33,0,0,0-.78-3.84l-.06,0a2.37,2.37,0,0,0-3,1.23c-1.42,3-4,4.85-6.05,6.35-2.8,2-3.85,3-3.85,4.76s1.05,2.73,3.85,4.77c3,2.19,7.15,5.19,7.15,11.23s-4.13,9-7.15,11.24c-2.8,2-3.85,3-3.85,4.76s1.05,2.73,3.85,4.76c3,2.2,7.15,5.2,7.15,11.24s-4.13,9-7.15,11.23c-2.8,2-3.85,3-3.85,4.77s1.05,2.73,3.85,4.76c3,2.19,7.15,5.2,7.15,11.23s-4.13,9-7.15,11.24c-2.8,2-3.85,3-3.85,4.76s1.05,2.73,3.85,4.76c3,2.2,7.15,5.2,7.15,11.24s-4.13,9-7.15,11.23c-2.8,2-3.85,3-3.85,4.76s1.05,2.74,3.85,4.77c3,2.19,7.15,5.2,7.15,11.23s-4.13,9-7.15,11.24c-2.8,2-3.85,3-3.85,4.76s1.05,2.73,3.85,4.77c2.13,1.54,4.81,3.5,6.2,6.64a2.44,2.44,0,0,0,3.12,1.33l.07,0a2.42,2.42,0,0,0,.75-4,11.4,11.4,0,0,1-4-8.72C137,177.9,141.13,174.9,144.14,172.71Z"/><path class="cls-1" d="M162.14,163.18c-3-2.19-7.14-5.2-7.14-11.24s4.13-9,7.14-11.23c2.8-2,3.86-3,3.86-4.76s-1.06-2.73-3.85-4.77C159.13,129,155,126,155,120s4.13-9,7.15-11.24c2.79-2,3.85-3,3.85-4.76s-1.06-2.73-3.85-4.76C159.13,97,155,94,155,88s4.13-9,7.14-11.24c2.8-2,3.86-3,3.86-4.76s-1.06-2.73-3.86-4.77C159.13,65,155,62,155,56s4.13-9,7.14-11.24c2.8-2,3.86-3,3.86-4.76s-1.06-2.73-3.85-4.76C159.13,33,155,30,155,24a12,12,0,0,1,.26-2.54A2.81,2.81,0,0,0,154,18.35l-.69-.39a2.79,2.79,0,0,0-3.08.22l-1.36,1c-2.8,2-3.85,3-3.85,4.76s1.05,2.73,3.85,4.77c3,2.19,7.15,5.19,7.15,11.23s-4.13,9-7.15,11.24c-2.8,2-3.85,3-3.85,4.76s1.05,2.73,3.85,4.76c3,2.2,7.15,5.2,7.15,11.24s-4.13,9-7.15,11.23c-2.8,2-3.85,3-3.85,4.77s1.05,2.73,3.85,4.76c3,2.19,7.15,5.2,7.15,11.23s-4.13,9-7.15,11.24c-2.8,2-3.85,3-3.85,4.76s1.05,2.73,3.85,4.76c3,2.2,7.15,5.2,7.15,11.24s-4.13,9-7.15,11.23c-2.8,2-3.85,3-3.85,4.76s1.05,2.74,3.85,4.77c3,2.19,7.15,5.2,7.15,11.23s-4.13,9-7.15,11.24c-2.8,2-3.85,3-3.85,4.76s1.05,2.73,3.85,4.77c.49.35,1,.73,1.53,1.15a3.06,3.06,0,0,0,3.42.29l.08,0a3,3,0,0,0,1.46-3.31,11.62,11.62,0,0,1-.34-2.86c0-6,4.13-9,7.14-11.23,2.8-2,3.86-3,3.86-4.77S164.94,165.21,162.14,163.18Z"/><path class="cls-1" d="M126.14,195.18c-3-2.2-7.14-5.2-7.14-11.24s4.13-9,7.14-11.23c2.8-2,3.86-3,3.86-4.77s-1.06-2.73-3.86-4.76c-3-2.19-7.14-5.2-7.14-11.24s4.13-9,7.14-11.23c2.8-2,3.86-3,3.86-4.76s-1.06-2.73-3.85-4.77C123.13,129,119,126,119,120s4.13-9,7.15-11.24c2.79-2,3.85-3,3.85-4.76s-1.06-2.73-3.85-4.76C123.13,97,119,94,119,88s4.13-9,7.14-11.24c2.8-2,3.86-3,3.86-4.76s-1.06-2.73-3.86-4.77C123.13,65,119,62,119,56s4.13-9,7.14-11.24c2.8-2,3.86-3,3.86-4.76s-1.06-2.73-3.85-4.76C123.13,33,119,30,119,24s4.13-9,7.14-11.23a29.52,29.52,0,0,0,2.38-1.87,1.77,1.77,0,0,0-.75-3q-3.19-.76-6.43-1.34A1.16,1.16,0,0,0,120,7.68,2.62,2.62,0,0,1,120,8c0,6-4.13,9-7.15,11.24-2.8,2-3.85,3-3.85,4.76s1,2.73,3.85,4.77c3,2.19,7.15,5.19,7.15,11.23s-4.13,9-7.15,11.24c-2.8,2-3.85,3-3.85,4.76s1,2.73,3.85,4.76c3,2.2,7.15,5.2,7.15,11.24s-4.13,9-7.15,11.23c-2.8,2-3.85,3-3.85,4.77s1,2.73,3.85,4.76c3,2.19,7.15,5.2,7.15,11.23s-4.13,9-7.15,11.24c-2.8,2-3.85,3-3.85,4.76s1,2.73,3.85,4.76c3,2.2,7.15,5.2,7.15,11.24s-4.13,9-7.15,11.23c-2.8,2-3.85,3-3.85,4.76s1,2.74,3.85,4.77c3,2.19,7.15,5.2,7.15,11.23s-4.13,9-7.15,11.24c-2.8,2-3.85,3-3.85,4.76s1,2.73,3.85,4.77c3,2.19,7.15,5.19,7.15,11.23v0a1.77,1.77,0,0,0,2.06,1.8c1.56-.28,3.11-.6,4.66-1a2.53,2.53,0,0,0,1-4.42C127.3,196,126.77,195.63,126.14,195.18Z"/><path class="cls-1" d="M200.49,117A3.67,3.67,0,0,0,199,120a3.24,3.24,0,0,0,.86,2.26,1.16,1.16,0,0,0,2-.57c.21-1.19.39-2.38.56-3.57A1.17,1.17,0,0,0,200.49,117Z"/><path class="cls-1" d="M170,29.86c-.76-.68-1.54-1.35-2.33-2-.42-.35-1.17-1.35-1.78-.8-.8.71.59,1.36,1,1.67,3,2.19,7.15,5.19,7.15,11.23s-4.13,9-7.15,11.24c-2.8,2-3.85,3-3.85,4.76s1.05,2.73,3.85,4.76c3,2.2,7.15,5.2,7.15,11.24s-4.13,9-7.15,11.23c-2.8,2-3.85,3-3.85,4.77s1.05,2.73,3.85,4.76c3,2.19,7.15,5.2,7.15,11.23s-4.13,9-7.15,11.24c-2.8,2-3.85,3-3.85,4.76s1.05,2.73,3.85,4.76c3,2.2,7.15,5.2,7.15,11.24s-4.13,9-7.15,11.23c-2.8,2-3.85,3-3.85,4.76s1.05,2.74,3.85,4.77c3,2.19,7.15,5.2,7.15,11.23s-4.13,9-7.15,11.24c-.47.34-2.79,1.59-2.06,2.32s1.55.1,2.11-.35q1.28-1.05,2.52-2.13,2.57-2.24,5-4.64,3.36-3.36,6.31-7a2.92,2.92,0,0,0-.51-4.21l0,0c-3-2.19-7.14-5.2-7.14-11.24s4.13-9,7.14-11.23c2.8-2,3.86-3,3.86-4.76s-1.06-2.73-3.85-4.77C177.13,129,173,126,173,120s4.13-9,7.15-11.24c2.79-2,3.85-3,3.85-4.76s-1.06-2.73-3.85-4.76C177.13,97,173,94,173,88s4.13-9,7.14-11.24c2.8-2,3.86-3,3.86-4.76s-1.06-2.73-3.86-4.77C177.13,65,173,62,173,56s4.13-9,7.14-11.24h0a2.59,2.59,0,0,0,.47-3.78q-2.94-3.57-6.26-6.91Q172.24,31.88,170,29.86Z"/><path class="cls-1" d="M184.85,60.72c3,2.2,7.15,5.2,7.15,11.24s-4.13,9-7.15,11.23c-2.8,2-3.85,3-3.85,4.77s1.05,2.73,3.85,4.76c3,2.19,7.15,5.2,7.15,11.23s-4.13,9-7.15,11.24c-2.8,2-3.85,3-3.85,4.76s1.05,2.73,3.85,4.76c3,2.2,7.15,5.2,7.15,11.24s-4.13,9-7.15,11.23c-2.8,2-3.85,3-3.85,4.76s1.05,2.74,3.85,4.77l0,0a2.8,2.8,0,0,0,4-.81c.73-1.21,1.42-2.42,2.1-3.65,0-.11,0-.21,0-.33a11.68,11.68,0,0,1,4.5-9.18,1.1,1.1,0,0,0,.31-.43c1.19-2.87,2.25-5.77,3.16-8.72a2.19,2.19,0,0,0-.81-2.42h0C195.13,129,191,126,191,120s4.13-9,7.15-11.24c2.79-2,3.85-3,3.85-4.76s-1.06-2.73-3.85-4.76C195.13,97,191,94,191,88s4.13-9,7.14-11.24h0a2,2,0,0,0,.73-2.2c-1-3.13-2.14-6.22-3.43-9.26a1.28,1.28,0,0,0-.29-.4A11.55,11.55,0,0,1,191,56.4a1.15,1.15,0,0,0-.14-.52q-1.11-2-2.32-4a2.55,2.55,0,0,0-3.68-.72l0,0c-2.8,2-3.85,3-3.85,4.76S182.05,58.69,184.85,60.72Z"/><path class="cls-1" d="M202.33,89.74c-.16-1.12-.34-2.23-.54-3.35a1.18,1.18,0,0,0-2.09-.51A3.19,3.19,0,0,0,199,88a3.56,3.56,0,0,0,1.36,2.79A1.17,1.17,0,0,0,202.33,89.74Z"/><path class="cls-1" d="M90.14,195.18C87.13,193,83,190,83,183.94s4.13-9,7.14-11.23c2.8-2,3.86-3,3.86-4.77s-1.06-2.73-3.86-4.76C87.13,161,83,158,83,151.94s4.13-9,7.14-11.23c2.8-2,3.86-3,3.86-4.76s-1.06-2.73-3.85-4.77C87.13,129,83,126,83,120s4.13-9,7.15-11.24c2.79-2,3.85-3,3.85-4.76s-1.06-2.73-3.85-4.76C87.13,97,83,94,83,88s4.13-9,7.14-11.24c2.8-2,3.86-3,3.86-4.76s-1.06-2.73-3.86-4.77C87.13,65,83,62,83,56s4.13-9,7.14-11.24c2.8-2,3.86-3,3.86-4.76s-1.06-2.73-3.85-4.76C87.13,33,83,30,83,24s4.13-9,7.14-11.23c2.8-2,3.86-3,3.86-4.77v0a2.09,2.09,0,0,0-2.38-2.12c-1.54.19-3.08.42-4.61.69a3.82,3.82,0,0,0-3.14,3.21v0c-.71,4.87-4.31,7.49-7,9.46S73,22.17,73,24s1,2.73,3.85,4.77C79.87,30.92,84,33.92,84,40s-4.13,9-7.15,11.24c-2.8,2-3.85,3-3.85,4.76s1,2.73,3.85,4.76c3,2.2,7.15,5.2,7.15,11.24s-4.13,9-7.15,11.23c-2.8,2-3.85,3-3.85,4.77s1,2.73,3.85,4.76c3,2.19,7.15,5.2,7.15,11.23s-4.13,9-7.15,11.24c-2.8,2-3.85,3-3.85,4.76s1,2.73,3.85,4.76c3,2.2,7.15,5.2,7.15,11.24s-4.13,9-7.15,11.23c-2.8,2-3.85,3-3.85,4.76s1,2.74,3.85,4.77c3,2.19,7.15,5.2,7.15,11.23s-4.13,9-7.15,11.24c-2.8,2-3.85,3-3.85,4.76s1,2.73,3.85,4.77c3,2.19,7.15,5.19,7.15,11.23v0a1.61,1.61,0,0,0,1.28,1.62q3.27.63,6.55,1a1.58,1.58,0,0,0,1.45-.58,3.18,3.18,0,0,0,.72-2.09C94,198.15,92.94,197.21,90.14,195.18Z"/><path class="cls-2" d="M58,167.94c0-1.79-1.06-2.73-3.86-4.76C51.13,161,47,158,47,151.94s4.13-9,7.14-11.23c2.8-2,3.86-3,3.86-4.76s-1.06-2.73-3.85-4.77C51.13,129,47,126,47,120s4.13-9,7.15-11.24c2.79-2,3.85-3,3.85-4.76s-1.06-2.73-3.85-4.76C51.13,97,47,94,47,88s4.13-9,7.14-11.24c2.8-2,3.86-3,3.86-4.76s-1.06-2.73-3.86-4.77C51.13,65,47,62,47,56s4.13-9,7.14-11.24c2.8-2,3.86-3,3.86-4.76s-1.06-2.73-3.85-4.76C51.13,33,47,30,47,24c0-.3,0-.58,0-.87a99.14,99.14,0,0,0,0,162.25,12.56,12.56,0,0,1-.08-1.4c0-6,4.13-9,7.14-11.23C56.94,170.67,58,169.74,58,167.94Z"/><path class="cls-1" d="M72.14,195.18C69.13,193,65,190,65,183.94s4.13-9,7.14-11.23c2.8-2,3.86-3,3.86-4.77s-1.06-2.73-3.86-4.76C69.13,161,65,158,65,151.94s4.13-9,7.14-11.23c2.8-2,3.86-3,3.86-4.76s-1.06-2.73-3.85-4.77C69.13,129,65,126,65,120s4.13-9,7.15-11.24c2.79-2,3.85-3,3.85-4.76s-1.06-2.73-3.85-4.76C69.13,97,65,94,65,88s4.13-9,7.14-11.24c2.8-2,3.86-3,3.86-4.76s-1.06-2.73-3.86-4.77C69.13,65,65,62,65,56s4.13-9,7.14-11.24c2.8-2,3.86-3,3.86-4.76s-1.06-2.73-3.85-4.76C69.13,33,65,30,65,24s4.13-9,7.14-11.23l.07-.05a1.16,1.16,0,0,0-1.09-2c-.78.28-1.56.56-2.34.86A15.09,15.09,0,0,0,63,15.64a25.56,25.56,0,0,1-4.18,3.56c-2.8,2-3.85,3-3.85,4.76s1,2.73,3.85,4.77C61.87,30.92,66,33.92,66,40s-4.13,9-7.15,11.24c-2.8,2-3.85,3-3.85,4.76s1,2.73,3.85,4.76c3,2.2,7.15,5.2,7.15,11.24s-4.13,9-7.15,11.23c-2.8,2-3.85,3-3.85,4.77s1,2.73,3.85,4.76c3,2.19,7.15,5.2,7.15,11.23s-4.13,9-7.15,11.24c-2.8,2-3.85,3-3.85,4.76s1,2.73,3.85,4.76c3,2.2,7.15,5.2,7.15,11.24s-4.13,9-7.15,11.23c-2.8,2-3.85,3-3.85,4.76s1,2.74,3.85,4.77c3,2.19,7.15,5.2,7.15,11.23s-4.13,9-7.15,11.24c-2.8,2-3.85,3-3.85,4.76s1,2.73,3.85,4.77a22.81,22.81,0,0,1,4.63,4.1A13.5,13.5,0,0,0,69.16,197c1.08.41,2.16.79,3.24,1.16a1.16,1.16,0,0,0,1.09-2C73.1,195.88,72.65,195.54,72.14,195.18Z"/><path d="M30.49,30.49a104.25,104.25,0,1,0,147.43,0A104.36,104.36,0,0,0,30.49,30.49ZM47,183.94a12.56,12.56,0,0,0,.08,1.4A99.13,99.13,0,0,1,47,23.09c0,.29,0,.57,0,.87,0,6,4.13,9,7.15,11.24,2.79,2,3.85,3,3.85,4.76s-1.06,2.73-3.86,4.76C51.13,46.92,47,49.92,47,56s4.13,9,7.14,11.23c2.8,2,3.86,3,3.86,4.77s-1.06,2.73-3.86,4.76C51.13,78.92,47,81.92,47,88s4.13,9,7.15,11.23c2.79,2,3.85,3,3.85,4.76s-1.06,2.73-3.85,4.76c-3,2.2-7.15,5.2-7.15,11.24s4.13,9,7.15,11.23c2.79,2,3.85,3,3.85,4.77s-1.06,2.73-3.86,4.76c-3,2.19-7.14,5.2-7.14,11.23s4.13,9.05,7.14,11.24c2.8,2,3.86,3,3.86,4.76s-1.06,2.73-3.86,4.77C51.13,174.9,47,177.9,47,183.94ZM72.4,198.2c-1.08-.37-2.16-.75-3.24-1.16a13.5,13.5,0,0,1-5.68-4.23,22.81,22.81,0,0,0-4.63-4.1c-2.8-2-3.85-3-3.85-4.77s1-2.73,3.85-4.76c3-2.2,7.15-5.2,7.15-11.24s-4.13-9-7.15-11.23c-2.8-2-3.85-3-3.85-4.77s1-2.73,3.85-4.76C61.87,145,66,142,66,136s-4.13-9-7.15-11.24c-2.8-2-3.85-3-3.85-4.76s1-2.73,3.85-4.76C61.87,113,66,110,66,104s-4.13-9-7.15-11.23c-2.8-2-3.85-3-3.85-4.76s1-2.73,3.85-4.77C61.87,81,66,78,66,72s-4.13-9-7.15-11.24c-2.8-2-3.85-3-3.85-4.76s1-2.73,3.85-4.76C61.87,49,66,46,66,40s-4.13-9-7.15-11.23c-2.8-2-3.85-3-3.85-4.77s1-2.73,3.85-4.76A25.56,25.56,0,0,0,63,15.64a15.09,15.09,0,0,1,5.75-4.13c.78-.3,1.56-.58,2.34-.86a1.16,1.16,0,0,1,1.09,2l-.07.05C69.13,14.92,65,17.93,65,24s4.13,9,7.15,11.24c2.79,2,3.85,3,3.85,4.76s-1.06,2.73-3.86,4.76C69.13,46.92,65,49.92,65,56s4.13,9,7.14,11.23c2.8,2,3.86,3,3.86,4.77s-1.06,2.73-3.86,4.76C69.13,78.92,65,81.92,65,88s4.13,9,7.15,11.23c2.79,2,3.85,3,3.85,4.76s-1.06,2.73-3.85,4.76c-3,2.2-7.15,5.2-7.15,11.24s4.13,9,7.15,11.23c2.79,2,3.85,3,3.85,4.77s-1.06,2.73-3.86,4.76c-3,2.19-7.14,5.2-7.14,11.23s4.13,9.05,7.14,11.24c2.8,2,3.86,3,3.86,4.76s-1.06,2.73-3.86,4.77c-3,2.19-7.14,5.19-7.14,11.23s4.13,9,7.14,11.24c.51.36,1,.7,1.35,1A1.16,1.16,0,0,1,72.4,198.2ZM93.28,202a1.58,1.58,0,0,1-1.45.58q-3.28-.41-6.55-1A1.61,1.61,0,0,1,84,200v0c0-6-4.13-9-7.15-11.23-2.8-2-3.85-3-3.85-4.77s1-2.73,3.85-4.76c3-2.2,7.15-5.2,7.15-11.24s-4.13-9-7.15-11.23c-2.8-2-3.85-3-3.85-4.77s1-2.73,3.85-4.76C79.87,145,84,142,84,136s-4.13-9-7.15-11.24c-2.8-2-3.85-3-3.85-4.76s1-2.73,3.85-4.76C79.87,113,84,110,84,104s-4.13-9-7.15-11.23c-2.8-2-3.85-3-3.85-4.76s1-2.73,3.85-4.77C79.87,81,84,78,84,72s-4.13-9-7.15-11.24c-2.8-2-3.85-3-3.85-4.76s1-2.73,3.85-4.76C79.87,49,84,46,84,40s-4.13-9-7.15-11.23c-2.8-2-3.85-3-3.85-4.77s1-2.73,3.85-4.76,6.31-4.59,7-9.46v0A3.82,3.82,0,0,1,87,6.51c1.53-.27,3.07-.5,4.61-.69A2.09,2.09,0,0,1,94,7.94V8c0,1.8-1.06,2.73-3.86,4.77C87.13,14.92,83,17.93,83,24s4.13,9,7.15,11.24c2.79,2,3.85,3,3.85,4.76s-1.06,2.73-3.86,4.76C87.13,46.92,83,49.92,83,56s4.13,9,7.14,11.23c2.8,2,3.86,3,3.86,4.77s-1.06,2.73-3.86,4.76C87.13,78.92,83,81.92,83,88s4.13,9,7.15,11.23c2.79,2,3.85,3,3.85,4.76s-1.06,2.73-3.85,4.76c-3,2.2-7.15,5.2-7.15,11.24s4.13,9,7.15,11.23c2.79,2,3.85,3,3.85,4.77s-1.06,2.73-3.86,4.76c-3,2.19-7.14,5.2-7.14,11.23s4.13,9.05,7.14,11.24c2.8,2,3.86,3,3.86,4.76s-1.06,2.73-3.86,4.77c-3,2.19-7.14,5.19-7.14,11.23s4.13,9,7.14,11.24c2.8,2,3.86,3,3.86,4.76A3.18,3.18,0,0,1,93.28,202Zm18.37-.57a3.57,3.57,0,0,1-3,1.83c-1.1.05-2.2.07-3.31.09A3.33,3.33,0,0,1,102,200v0c0-6-4.13-9-7.15-11.23-2.8-2-3.85-3-3.85-4.77s1-2.73,3.85-4.76c3-2.2,7.15-5.2,7.15-11.24s-4.13-9-7.15-11.23c-2.8-2-3.85-3-3.85-4.77s1-2.73,3.85-4.76C97.87,145,102,142,102,136s-4.13-9-7.15-11.24c-2.8-2-3.85-3-3.85-4.76s1-2.73,3.85-4.76C97.87,113,102,110,102,104s-4.13-9-7.15-11.23c-2.8-2-3.85-3-3.85-4.76s1-2.73,3.85-4.77C97.87,81,102,78,102,72s-4.13-9-7.15-11.24c-2.8-2-3.85-3-3.85-4.76s1-2.73,3.85-4.76C97.87,49,102,46,102,40s-4.13-9-7.15-11.23c-2.8-2-3.85-3-3.85-4.77s1-2.73,3.85-4.76C97.87,17,102,14,102,8c0-.23,0-.47,0-.69A2.17,2.17,0,0,1,104.18,5h0c1.72,0,3.44.06,5.16.15A2.81,2.81,0,0,1,112,7.93V8c0,1.8-1.06,2.73-3.86,4.77-3,2.19-7.14,5.2-7.14,11.23s4.13,9,7.15,11.24c2.79,2,3.85,3,3.85,4.76s-1.06,2.73-3.86,4.76c-3,2.2-7.14,5.2-7.14,11.24s4.13,9,7.14,11.23c2.8,2,3.86,3,3.86,4.77s-1.06,2.73-3.86,4.76c-3,2.2-7.14,5.2-7.14,11.24s4.13,9,7.15,11.23c2.79,2,3.85,3,3.85,4.76s-1.06,2.73-3.85,4.76c-3,2.2-7.15,5.2-7.15,11.24s4.13,9,7.15,11.23c2.79,2,3.85,3,3.85,4.77s-1.06,2.73-3.86,4.76c-3,2.19-7.14,5.2-7.14,11.23s4.13,9.05,7.14,11.24c2.8,2,3.86,3,3.86,4.76s-1.06,2.73-3.86,4.77c-3,2.19-7.14,5.19-7.14,11.23s4.13,9,7.14,11.24c2.8,2,3.86,3,3.86,4.76A3.18,3.18,0,0,1,111.65,201.46Zm15.07-.65c-1.55.36-3.1.68-4.66,1A1.77,1.77,0,0,1,120,200v0c0-6-4.13-9-7.15-11.23-2.8-2-3.85-3-3.85-4.77s1-2.73,3.85-4.76c3-2.2,7.15-5.2,7.15-11.24s-4.13-9-7.15-11.23c-2.8-2-3.85-3-3.85-4.77s1-2.73,3.85-4.76C115.87,145,120,142,120,136s-4.13-9-7.15-11.24c-2.8-2-3.85-3-3.85-4.76s1-2.73,3.85-4.76c3-2.2,7.15-5.2,7.15-11.24s-4.13-9-7.15-11.23c-2.8-2-3.85-3-3.85-4.76s1-2.73,3.85-4.77C115.87,81,120,78,120,72s-4.13-9-7.15-11.24c-2.8-2-3.85-3-3.85-4.76s1-2.73,3.85-4.76C115.87,49,120,46,120,40s-4.13-9-7.15-11.23c-2.8-2-3.85-3-3.85-4.77s1-2.73,3.85-4.76C115.87,17,120,14,120,8a2.62,2.62,0,0,0,0-.28,1.16,1.16,0,0,1,1.35-1.18q3.24.57,6.43,1.34a1.77,1.77,0,0,1,.75,3,29.52,29.52,0,0,1-2.38,1.87c-3,2.19-7.14,5.2-7.14,11.23s4.13,9,7.15,11.24c2.79,2,3.85,3,3.85,4.76s-1.06,2.73-3.86,4.76c-3,2.2-7.14,5.2-7.14,11.24s4.13,9,7.14,11.23c2.8,2,3.86,3,3.86,4.77s-1.06,2.73-3.86,4.76c-3,2.2-7.14,5.2-7.14,11.24s4.13,9,7.15,11.23c2.79,2,3.85,3,3.85,4.76s-1.06,2.73-3.85,4.76c-3,2.2-7.15,5.2-7.15,11.24s4.13,9,7.15,11.23c2.79,2,3.85,3,3.85,4.77s-1.06,2.73-3.86,4.76c-3,2.19-7.14,5.2-7.14,11.23s4.13,9.05,7.14,11.24c2.8,2,3.86,3,3.86,4.76s-1.06,2.73-3.86,4.77c-3,2.19-7.14,5.19-7.14,11.23s4.13,9,7.14,11.24c.63.45,1.16.84,1.62,1.21A2.53,2.53,0,0,1,126.72,200.81ZM141,192.66a2.42,2.42,0,0,1-.75,4l-.07,0a2.44,2.44,0,0,1-3.12-1.33c-1.39-3.14-4.07-5.1-6.2-6.64-2.8-2-3.85-3-3.85-4.77s1.05-2.73,3.85-4.76c3-2.2,7.15-5.2,7.15-11.24s-4.13-9-7.15-11.23c-2.8-2-3.85-3-3.85-4.77s1.05-2.73,3.85-4.76C133.87,145,138,142,138,136s-4.13-9-7.15-11.24c-2.8-2-3.85-3-3.85-4.76s1.05-2.73,3.85-4.76c3-2.2,7.15-5.2,7.15-11.24s-4.13-9-7.15-11.23c-2.8-2-3.85-3-3.85-4.76s1.05-2.73,3.85-4.77C133.87,81,138,78,138,72s-4.13-9-7.15-11.24c-2.8-2-3.85-3-3.85-4.76s1.05-2.73,3.85-4.76C133.87,49,138,46,138,40s-4.13-9-7.15-11.23c-2.8-2-3.85-3-3.85-4.77s1.05-2.73,3.85-4.76c2.06-1.5,4.63-3.38,6.05-6.35a2.37,2.37,0,0,1,3-1.23l.06,0a2.33,2.33,0,0,1,.78,3.84A11.3,11.3,0,0,0,137,24c0,6,4.13,9,7.15,11.24,2.79,2,3.85,3,3.85,4.76s-1.06,2.73-3.86,4.76c-3,2.2-7.14,5.2-7.14,11.24s4.13,9,7.14,11.23c2.8,2,3.86,3,3.86,4.77s-1.06,2.73-3.86,4.76c-3,2.2-7.14,5.2-7.14,11.24s4.13,9,7.15,11.23c2.79,2,3.85,3,3.85,4.76s-1.06,2.73-3.85,4.76c-3,2.2-7.15,5.2-7.15,11.24s4.13,9,7.15,11.23c2.79,2,3.85,3,3.85,4.77s-1.06,2.73-3.86,4.76c-3,2.19-7.14,5.2-7.14,11.23s4.13,9.05,7.14,11.24c2.8,2,3.86,3,3.86,4.76s-1.06,2.73-3.86,4.77c-3,2.19-7.14,5.19-7.14,11.23A11.4,11.4,0,0,0,141,192.66Zm21.15-19.95c-3,2.19-7.14,5.19-7.14,11.23a11.62,11.62,0,0,0,.34,2.86,3,3,0,0,1-1.46,3.31l-.08,0a3.06,3.06,0,0,1-3.42-.29c-.53-.42-1-.8-1.53-1.15-2.8-2-3.85-3-3.85-4.77s1.05-2.73,3.85-4.76c3-2.2,7.15-5.2,7.15-11.24s-4.13-9-7.15-11.23c-2.8-2-3.85-3-3.85-4.77s1.05-2.73,3.85-4.76C151.87,145,156,142,156,136s-4.13-9-7.15-11.24c-2.8-2-3.85-3-3.85-4.76s1.05-2.73,3.85-4.76c3-2.2,7.15-5.2,7.15-11.24s-4.13-9-7.15-11.23c-2.8-2-3.85-3-3.85-4.76s1.05-2.73,3.85-4.77C151.87,81,156,78,156,72s-4.13-9-7.15-11.24c-2.8-2-3.85-3-3.85-4.76s1.05-2.73,3.85-4.76C151.87,49,156,46,156,40s-4.13-9-7.15-11.23c-2.8-2-3.85-3-3.85-4.77s1.05-2.73,3.85-4.76l1.36-1a2.79,2.79,0,0,1,3.08-.22l.69.39a2.81,2.81,0,0,1,1.28,3.07A12,12,0,0,0,155,24c0,6,4.13,9,7.15,11.24,2.79,2,3.85,3,3.85,4.76s-1.06,2.73-3.86,4.76c-3,2.2-7.14,5.2-7.14,11.24s4.13,9,7.14,11.23c2.8,2,3.86,3,3.86,4.77s-1.06,2.73-3.86,4.76c-3,2.2-7.14,5.2-7.14,11.24s4.13,9,7.15,11.23c2.79,2,3.85,3,3.85,4.76s-1.06,2.73-3.85,4.76c-3,2.2-7.15,5.2-7.15,11.24s4.13,9,7.15,11.23c2.79,2,3.85,3,3.85,4.77s-1.06,2.73-3.86,4.76c-3,2.19-7.14,5.2-7.14,11.23s4.13,9.05,7.14,11.24c2.8,2,3.86,3,3.86,4.76S164.94,170.67,162.14,172.71Zm39.72-51.07a1.16,1.16,0,0,1-2,.57A3.24,3.24,0,0,1,199,120a3.67,3.67,0,0,1,1.49-2.92,1.17,1.17,0,0,1,1.93,1C202.25,119.26,202.07,120.45,201.86,121.64ZM199.7,85.88a1.18,1.18,0,0,1,2.09.51c.2,1.12.38,2.23.54,3.35a1.17,1.17,0,0,1-2,1A3.56,3.56,0,0,1,199,88,3.19,3.19,0,0,1,199.7,85.88ZM184.85,51.2l0,0a2.55,2.55,0,0,1,3.68.72q1.22,2,2.32,4a1.15,1.15,0,0,1,.14.52,11.55,11.55,0,0,0,4.16,8.45,1.28,1.28,0,0,1,.29.4c1.29,3,2.45,6.13,3.43,9.26a2,2,0,0,1-.73,2.2h0c-3,2.2-7.14,5.2-7.14,11.24s4.13,9,7.15,11.23c2.79,2,3.85,3,3.85,4.76s-1.06,2.73-3.85,4.76c-3,2.2-7.15,5.2-7.15,11.24s4.13,9,7.15,11.23h0a2.19,2.19,0,0,1,.81,2.42c-.91,2.95-2,5.85-3.16,8.72a1.1,1.1,0,0,1-.31.43,11.68,11.68,0,0,0-4.5,9.18c0,.12,0,.22,0,.33-.68,1.23-1.37,2.44-2.1,3.65a2.8,2.8,0,0,1-4,.81l0,0c-2.8-2-3.85-3-3.85-4.77s1.05-2.73,3.85-4.76C187.87,145,192,142,192,136s-4.13-9-7.15-11.24c-2.8-2-3.85-3-3.85-4.76s1.05-2.73,3.85-4.76c3-2.2,7.15-5.2,7.15-11.24s-4.13-9-7.15-11.23c-2.8-2-3.85-3-3.85-4.76s1.05-2.73,3.85-4.77C187.87,81,192,78,192,72s-4.13-9-7.15-11.24c-2.8-2-3.85-3-3.85-4.76S182.05,53.23,184.85,51.2Zm-4.68-6.49h0c-3,2.2-7.14,5.2-7.14,11.24s4.13,9,7.14,11.23c2.8,2,3.86,3,3.86,4.77s-1.06,2.73-3.86,4.76c-3,2.2-7.14,5.2-7.14,11.24s4.13,9,7.15,11.23c2.79,2,3.85,3,3.85,4.76s-1.06,2.73-3.85,4.76c-3,2.2-7.15,5.2-7.15,11.24s4.13,9,7.15,11.23c2.79,2,3.85,3,3.85,4.77s-1.06,2.73-3.86,4.76c-3,2.19-7.14,5.2-7.14,11.23s4.13,9.05,7.14,11.24l0,0a2.92,2.92,0,0,1,.51,4.21q-3,3.6-6.31,7-2.4,2.4-5,4.64-1.24,1.08-2.52,2.13c-.56.45-1.43,1-2.11.35s1.59-2,2.06-2.32c3-2.2,7.15-5.2,7.15-11.24s-4.13-9-7.15-11.23c-2.8-2-3.85-3-3.85-4.77s1.05-2.73,3.85-4.76C169.87,145,174,142,174,136s-4.13-9-7.15-11.24c-2.8-2-3.85-3-3.85-4.76s1.05-2.73,3.85-4.76c3-2.2,7.15-5.2,7.15-11.24s-4.13-9-7.15-11.23c-2.8-2-3.85-3-3.85-4.76s1.05-2.73,3.85-4.77C169.87,81,174,78,174,72s-4.13-9-7.15-11.24c-2.8-2-3.85-3-3.85-4.76s1.05-2.73,3.85-4.76C169.87,49,174,46,174,40s-4.13-9-7.15-11.23c-.42-.31-1.81-1-1-1.67.61-.55,1.36.45,1.78.8.79.65,1.57,1.32,2.33,2q2.28,2,4.43,4.16,3.33,3.33,6.26,6.91A2.59,2.59,0,0,1,180.17,44.71Z"/></g></g></svg>