<svg xmlns="http://www.w3.org/2000/svg" viewBox="0 0 208.4 208.4"><defs><style>.cls-1{fill:#ddb190;}.cls-2{fill:#fff5e7;}.cls-3{fill:#9c9bcc;}</style></defs><title>Asset 9</title><g id="Layer_2" data-name="Layer 2"><g id="Layer_2-2" data-name="Layer 2"><path class="cls-1" d="M108.37,179.48l1.1-.16a20.07,20.07,0,0,1,3-.34l2.26-.11c.58,0,1.2-.05,1.53,0h15l.37,0a3.09,3.09,0,0,1,.45,0,15,15,0,0,0,10-4.36h0a15.1,15.1,0,0,0,.8-20.38h0a14.77,14.77,0,0,0-9.61-5.16l-.18,0a4.17,4.17,0,0,0-.56,0c-.3,0-.6,0-.9-.05l-.82,0H115.65l-3.83-.19h-.1A43.81,43.81,0,0,1,72,104.35h0v0h0a43.76,43.76,0,0,1,40.94-43h0c2.22-.13,3.64-.13,5-.12h13.45l.85,0h.15a5,5,0,0,0,1.1-.1l.19,0a15,15,0,0,0,9.48-5.42v0a14.63,14.63,0,0,0,3.25-10.42,15.09,15.09,0,0,0-4.66-9.9h0a15,15,0,0,0-10.12-4.11l-15.34,0c-.35,0-.7,0-1.26,0l-.55,0c-1.09-.05-2.22-.1-3.36-.2l-.18,0-3.8-.58-.12,0A44,44,0,0,1,80.27,12.86c-.48-.66-.94-1.33-1.38-2A3.43,3.43,0,0,0,75,9.38l-.06,0a3.4,3.4,0,0,0-1.88,5.08c.52.82,1.07,1.62,1.64,2.4a50.89,50.89,0,0,0,31,20.05c1.6.28,3.2.52,4.76.73s3,.2,4.69.26c.63,0,.91,0,1.18,0l15.25,0A7.92,7.92,0,0,1,137,40.17l0,0a8.06,8.06,0,0,1,2.51,5.33,7.83,7.83,0,0,1-1.76,5.69h0a8.08,8.08,0,0,1-5,2.9,3.75,3.75,0,0,1-1.06.11,3,3,0,0,1-.6,0l-16.33,0-2.4.11a50.63,50.63,0,0,0-47.34,49.79v0a50.69,50.69,0,0,0,45.91,51.13c1.57.11,3.18.19,4.79.23H131.5a3,3,0,0,1,.42,0,3.27,3.27,0,0,1,.65,0,7.92,7.92,0,0,1,5.11,2.8h0a8.29,8.29,0,0,1-.45,11.09h0A8,8,0,0,1,132,171.9a3.18,3.18,0,0,1-.74,0H116.05c-.17,0-.73,0-1.89.06l-2.44.13a27.45,27.45,0,0,0-3.38.4l-1.24.19h0a50.71,50.71,0,0,0-31.54,19.12c-.56.72-1.1,1.46-1.61,2.22a3.41,3.41,0,0,0,1.83,5.19l.07,0a3.41,3.41,0,0,0,3.79-1.36Q80.3,197,81,196a43.81,43.81,0,0,1,27.27-16.53Z"/><path class="cls-1" d="M161,138.61a38.51,38.51,0,0,0-24.89-13.33c-.87-.12-1.7-.16-2.57-.2l-1.14,0-1.53,0H115.56c-.5,0-1-.07-1.49-.08h-.17a20.08,20.08,0,0,1-18.15-20.2h0a19.72,19.72,0,0,1,5.51-13.51A20.11,20.11,0,0,1,114.35,85h0c.78-.09,2.28-.09,4.46-.09h12.94l1.83-.08a24.58,24.58,0,0,0,3.49-.34,38.83,38.83,0,0,0,24.6-14l0,0a38.3,38.3,0,0,0,8.46-26.91A38.72,38.72,0,0,0,164.59,26a5.91,5.91,0,0,0-1.49-1.62,98.85,98.85,0,0,0-37.54-17h-9.22l-2.59-.11-.32,0c-.49-.09-1-.17-1.46-.23l-.2,0a19.15,19.15,0,0,1-4.47-1.51,3.51,3.51,0,0,0-1.53-.36h-.07a3.43,3.43,0,0,0-1.49,6.51,26.11,26.11,0,0,0,6.19,2.09h0a37.17,37.17,0,0,0,8.06.53h13.31a31.78,31.78,0,0,1,21.56,8.72h0a31.92,31.92,0,0,1,3,43.18h0a31.91,31.91,0,0,1-20.2,11.54,56.7,56.7,0,0,1-8.39.37c-1,0-1.92,0-2.87,0-1.32,0-2.63,0-3.94,0-2.28,0-4.64,0-6.92.09a26.9,26.9,0,0,0-25.13,26.42v0a27,27,0,0,0,24.33,27.16c3.31.17,6.73.15,10,.13,3.89,0,7.91,0,11.9.23a31.83,31.83,0,0,1,20.61,11h0a32,32,0,0,1-1.7,43.26h0a31.88,31.88,0,0,1-21.32,9.28c-2.4.08-4.82.07-7.16.06h-3.87c-.9,0-1.82,0-2.74,0a41.12,41.12,0,0,0-7.77.42h0a26.33,26.33,0,0,0-8.87,3.25,2.15,2.15,0,0,0,1.09,4A99.1,99.1,0,0,0,162,184.88a16.6,16.6,0,0,0,5.9-7.73,37.89,37.89,0,0,0,2.32-11.82,38.61,38.61,0,0,0-9.22-26.7Z"/><path class="cls-1" d="M110.28,191.2h0a45.67,45.67,0,0,1,8.67-.5c.89,0,1.78,0,2.66,0h3.94c2.29,0,4.67,0,7-.06a26.76,26.76,0,0,0,17.95-7.82h0A27,27,0,0,0,152,146.33h0a26.62,26.62,0,0,0-17.24-9.25c-3.71-.25-7.63-.23-11.43-.21-3.38,0-6.88,0-10.35-.14h-.1a32,32,0,0,1-28.93-32.2h0v0h0a31.9,31.9,0,0,1,29.84-31.36h0C116.17,73,118.6,73,121,73c1.28,0,2.56,0,3.84,0q1.49,0,3,0a51.81,51.81,0,0,0,7.65-.32,26.91,26.91,0,0,0,17-9.72v0a26.57,26.57,0,0,0,5.86-18.66A26.85,26.85,0,0,0,150,26.58v0a26.73,26.73,0,0,0-18.14-7.35H118.52a42.13,42.13,0,0,1-9.1-.63h0a32.12,32.12,0,0,1-18.25-11A3.37,3.37,0,0,0,88,6.33h-.07a3.34,3.34,0,0,0-2,5.36,38.3,38.3,0,0,0,2.73,3.2A39,39,0,0,0,108,25.29l3.64.56c1,.08,2,.13,3.08.18l.56,0c.46,0,.74,0,1,0l15.38,0a19.72,19.72,0,0,1,13.54,5.47h0a20.15,20.15,0,0,1,6.22,13.19,19.61,19.61,0,0,1-4.36,13.92h0v0h0a20.11,20.11,0,0,1-12.58,7.21,10.16,10.16,0,0,1-2,.19l-.75,0c-.2,0-.58,0-1,0H118c-1.3,0-2.63,0-4.69.11h0A38.77,38.77,0,0,0,77,104.38v0a38.83,38.83,0,0,0,35.13,39.15l3.7.18H131.7l.42,0,.56,0a9.75,9.75,0,0,1,1.23.09,19.86,19.86,0,0,1,12.8,6.89h0A20.09,20.09,0,0,1,145.65,178h0a20.07,20.07,0,0,1-13.4,5.82h-.2l-.76,0h-15.1c-.33,0-.8,0-1.25,0l-2.29.12a18.07,18.07,0,0,0-2.38.27l-1.14.18h0a38.82,38.82,0,0,0-19.77,9.81c-.56.53-1.41,1.47-2.29,2.49a3.36,3.36,0,0,0,2.06,5.51l.08,0a3.32,3.32,0,0,0,2.94-1,32,32,0,0,1,18.13-10Z"/><path class="cls-2" d="M106.26,167.8h.07l1.23-.19a32.85,32.85,0,0,1,4-.46l2.42-.12c1.69-.07,2.13-.07,2.3-.07h15.13a2.48,2.48,0,0,1,.27,0,3,3,0,0,0,2.12-.91h0a3.23,3.23,0,0,0,.15-4.23h0a2.91,2.91,0,0,0-1.92-1.09h-.06a3.36,3.36,0,0,1-.66,0H115.77c-1.76-.05-3.45-.13-5.09-.24h-.05a55.69,55.69,0,0,1-50.49-56.17h0v0h0A55.63,55.63,0,0,1,112.2,49.43h0l4.38-.15h14.63l.45,0h.14l.16,0a3.14,3.14,0,0,0,2-1.14,2.82,2.82,0,0,0,.66-2.17,3.09,3.09,0,0,0-1-2.07,3,3,0,0,0-2.09-.87l-15.21,0c-.32,0-.65,0-1.4,0-1.79-.07-3.4-.14-5.06-.3s-3.42-.48-5.1-.77h-.06a55.89,55.89,0,0,1-34.07-22,52,52,0,0,1-4.44-7.28,99.25,99.25,0,0,0,.63,183.62,53.56,53.56,0,0,1,4.76-7.34A55.72,55.72,0,0,1,106.26,167.8Z"/><path class="cls-1" d="M131.9,54.24a.76.76,0,0,0,.16,0h0l-.16,0Z"/><path class="cls-1" d="M199.94,93.91a36.87,36.87,0,0,0-1.6,10.47v0a37.88,37.88,0,0,0,1.48,11.06,1.51,1.51,0,0,0,3-.24,100.37,100.37,0,0,0,.11-21A1.51,1.51,0,0,0,199.94,93.91Z"/><path class="cls-1" d="M174.56,38.4a45,45,0,0,1,.58,4.77,43.32,43.32,0,0,1-9.57,30.4h0v0h0A43.74,43.74,0,0,1,137.86,89.4a29.15,29.15,0,0,1-4.1.41l-1.88.08H118.8c-1.4,0-3.33,0-3.89.06h-.13a15.1,15.1,0,0,0-9.89,4.63,14.92,14.92,0,0,0-4.14,10.1v0a15.08,15.08,0,0,0,13.6,15.18c.51,0,1,0,1.53.08l16.75.05,1.1,0a28.56,28.56,0,0,1,3,.23,43.54,43.54,0,0,1,28.06,15v0h0a43.64,43.64,0,0,1,10.42,30.14,39.82,39.82,0,0,1-.42,4.63,1.46,1.46,0,0,0,2.51,1.18c.38-.41.73-.79,1-1.12a14.47,14.47,0,0,0,3.6-11A51.06,51.06,0,0,0,170,130.92l0,0a50.32,50.32,0,0,0-32.52-17.41c-1.23-.17-2.41-.22-3.66-.28l-3-.09H115.78a2,2,0,0,1-.43-.06H115a8.19,8.19,0,0,1-7.33-8.13h0v-.06h0a8.11,8.11,0,0,1,7.68-8,3.38,3.38,0,0,1,.64,0h15.89l2.38-.1a34.12,34.12,0,0,0,4.59-.46,50.58,50.58,0,0,0,32.1-18.31h0a50.16,50.16,0,0,0,11.19-31.56,10,10,0,0,0-2.38-6.5c-1.1-1.3-1.45-1.72-2.63-3A1.6,1.6,0,0,0,174.56,38.4Z"/><path class="cls-1" d="M186.47,104.21v0A50.5,50.5,0,0,0,193.69,131a3.42,3.42,0,0,0,6.26-.85l0-.08a3.48,3.48,0,0,0-.41-2.67,43.9,43.9,0,0,1-6.23-23.08h0s0,0,0,0h0A43.1,43.1,0,0,1,199.83,82a3.42,3.42,0,0,0,.43-2.66.29.29,0,0,0,0-.09,3.4,3.4,0,0,0-6.2-.9A50.61,50.61,0,0,0,186.47,104.21Z"/><path class="cls-1" d="M117,101.46a2.26,2.26,0,0,1-.64.26A2.15,2.15,0,0,0,117,101.46Z"/><path class="cls-3" d="M174.81,81a55.63,55.63,0,0,1-35.22,20.12,38.85,38.85,0,0,1-5.18.51l-2.45.1-16,0a3.27,3.27,0,0,1-.54,0h0a3.21,3.21,0,0,0-2.85,3v0a3.18,3.18,0,0,0,2.76,3.23,4.21,4.21,0,0,1,.62.05l16.9,0,1.12.06c1.31.06,2.67.12,4.06.31a55.31,55.31,0,0,1,35.7,19.12h0a55.16,55.16,0,0,1,12.14,24.7,2.51,2.51,0,0,0,4.65.73c1.24-2.19,2.39-4.43,3.45-6.69a7.11,7.11,0,0,0-.9-7.43c-.68-.86-1.36-1.73-1.82-2.4a55.59,55.59,0,0,1-9.84-32.37h0v0h0a55.18,55.18,0,0,1,11-32.41A10.43,10.43,0,0,0,193.54,61c-1.09-2.27-2.28-4.5-3.55-6.69a1.92,1.92,0,0,0-3.57.68,55,55,0,0,1-1.84,7.86A55.78,55.78,0,0,1,174.81,81Z"/><polygon class="cls-1" points="115.38 98.77 115.39 99.33 115.39 98.8 115.38 98.77"/><path d="M30.49,30.49a104.25,104.25,0,1,0,147.43,0A104.36,104.36,0,0,0,30.49,30.49ZM66.83,196.15A99.23,99.23,0,0,1,66.2,12.53a52,52,0,0,0,4.44,7.28,55.89,55.89,0,0,0,34.07,22h.06c1.68.29,3.37.55,5.1.77s3.27.23,5.06.3c.75,0,1.08,0,1.4,0l15.21,0a3,3,0,0,1,2.09.87,3.09,3.09,0,0,1,1,2.07,2.82,2.82,0,0,1-.66,2.17,3.14,3.14,0,0,1-2,1.14l-.16,0h-.14l-.45,0H116.61l-4.38.15h0a55.63,55.63,0,0,0-52.06,54.72h0v0h0a55.69,55.69,0,0,0,50.49,56.17h.05c1.64.11,3.33.19,5.09.24h15.47a3.36,3.36,0,0,0,.66,0H132a2.91,2.91,0,0,1,1.92,1.09h0a3.23,3.23,0,0,1-.15,4.23h0a3,3,0,0,1-2.12.91,2.48,2.48,0,0,0-.27,0H116.23c-.17,0-.61,0-2.3.07l-2.42.12a32.85,32.85,0,0,0-4,.46l-1.23.19h-.07a55.72,55.72,0,0,0-34.67,21A53.56,53.56,0,0,0,66.83,196.15ZM132.06,54.21a.76.76,0,0,1-.16,0h0l.16,0ZM81,196q-.72.93-1.38,1.89a3.41,3.41,0,0,1-3.79,1.36l-.07,0A3.41,3.41,0,0,1,74,194.07c.51-.76,1-1.5,1.61-2.22a50.71,50.71,0,0,1,31.54-19.12h0l1.24-.19a27.45,27.45,0,0,1,3.38-.4l2.44-.13c1.16,0,1.72-.06,1.89-.06h15.18a3.18,3.18,0,0,0,.74,0,8,8,0,0,0,5.25-2.31h0a8.29,8.29,0,0,0,.45-11.09h0a7.92,7.92,0,0,0-5.11-2.8,3.27,3.27,0,0,0-.65,0,3,3,0,0,0-.42,0H115.84c-1.61,0-3.22-.12-4.79-.23a50.69,50.69,0,0,1-45.91-51.13v0a50.63,50.63,0,0,1,47.34-49.79l2.4-.11,16.33,0a3,3,0,0,0,.6,0,3.75,3.75,0,0,0,1.06-.11,8.08,8.08,0,0,0,5-2.9h0a7.83,7.83,0,0,0,1.76-5.69,8.06,8.06,0,0,0-2.51-5.33l0,0A7.92,7.92,0,0,0,131.55,38l-15.25,0c-.27,0-.55,0-1.18,0-1.71-.06-3.25-.13-4.69-.26s-3.16-.45-4.76-.73a50.89,50.89,0,0,1-31-20c-.57-.78-1.12-1.58-1.64-2.4A3.4,3.4,0,0,1,74.93,9.4l.06,0a3.43,3.43,0,0,1,3.9,1.46c.44.69.9,1.36,1.38,2A44,44,0,0,0,107.06,30.2l.12,0,3.8.58.18,0c1.14.1,2.27.15,3.36.2l.55,0c.56,0,.91,0,1.26,0l15.34,0a15,15,0,0,1,10.12,4.11h0a15.09,15.09,0,0,1,4.66,9.9,14.63,14.63,0,0,1-3.25,10.42v0A15,15,0,0,1,133.71,61l-.19,0a5,5,0,0,1-1.1.1h-.15l-.85,0H118c-1.38,0-2.8,0-5,.12h0a43.76,43.76,0,0,0-40.94,43h0v0h0a43.81,43.81,0,0,0,39.71,44.19h.1l3.83.19h15.19l.82,0c.3,0,.6,0,.9.05a4.17,4.17,0,0,1,.56,0l.18,0a14.77,14.77,0,0,1,9.61,5.16h0a15.1,15.1,0,0,1-.8,20.38h0a15,15,0,0,1-10,4.36,3.09,3.09,0,0,0-.45,0l-.37,0h-15c-.33,0-1,0-1.53,0l-2.26.11a20.07,20.07,0,0,0-3,.34l-1.1.16-.08,0A43.81,43.81,0,0,0,81,196Zm11.13,5.18a3.32,3.32,0,0,1-2.94,1l-.08,0a3.36,3.36,0,0,1-2.06-5.51c.88-1,1.73-2,2.29-2.49a38.82,38.82,0,0,1,19.77-9.81h0l1.14-.18a18.07,18.07,0,0,1,2.38-.27l2.29-.12c.45,0,.92,0,1.25,0h15.1l.76,0h.2a20.07,20.07,0,0,0,13.4-5.82h0a20.09,20.09,0,0,0,1.06-27.16h0a19.86,19.86,0,0,0-12.8-6.89,9.75,9.75,0,0,0-1.23-.09l-.56,0-.42,0H115.84l-3.7-.18A38.83,38.83,0,0,1,77,104.41v0a38.77,38.77,0,0,1,36.24-38.11h0c2.06-.12,3.39-.12,4.69-.11h12.84c.39,0,.77,0,1,0l.75,0a10.16,10.16,0,0,0,2-.19,20.11,20.11,0,0,0,12.58-7.21h0v0h0a19.61,19.61,0,0,0,4.36-13.92,20.15,20.15,0,0,0-6.22-13.19h0a19.72,19.72,0,0,0-13.54-5.47l-15.38,0c-.26,0-.54,0-1,0l-.56,0c-1.06-.05-2.07-.1-3.08-.18L108,25.29A39,39,0,0,1,88.58,14.9a38.3,38.3,0,0,1-2.73-3.2,3.34,3.34,0,0,1,2-5.36H88a3.37,3.37,0,0,1,3.17,1.19,32.12,32.12,0,0,0,18.25,11h0a42.13,42.13,0,0,0,9.1.63H131.8a26.73,26.73,0,0,1,18.14,7.35v0a26.85,26.85,0,0,1,8.35,17.73A26.57,26.57,0,0,1,152.44,63v0a26.91,26.91,0,0,1-17,9.72,51.81,51.81,0,0,1-7.65.32q-1.48,0-3,0c-1.28,0-2.56,0-3.84,0-2.36,0-4.79,0-7.22.1h0a31.9,31.9,0,0,0-29.84,31.36h0v0h0a32,32,0,0,0,28.93,32.2h.1c3.47.18,7,.16,10.35.14,3.8,0,7.72,0,11.43.21a26.62,26.62,0,0,1,17.24,9.25h0a27,27,0,0,1-1.43,36.48h0a26.76,26.76,0,0,1-17.95,7.82c-2.31.08-4.69.07-7,.06h-3.94c-.88,0-1.77,0-2.66,0a45.67,45.67,0,0,0-8.67.5h0A32,32,0,0,0,92.15,201.21Zm78-35.88a37.89,37.89,0,0,1-2.32,11.82,16.6,16.6,0,0,1-5.9,7.73,99.1,99.1,0,0,1-58.61,18.49,2.15,2.15,0,0,1-1.09-4,26.33,26.33,0,0,1,8.87-3.25h0a41.12,41.12,0,0,1,7.77-.42c.92,0,1.84,0,2.74,0h3.87c2.34,0,4.76,0,7.16-.06A31.88,31.88,0,0,0,154,186.36h0a32,32,0,0,0,1.7-43.26h0a31.83,31.83,0,0,0-20.61-11c-4-.27-8-.25-11.9-.23-3.29,0-6.71,0-10-.13a27,27,0,0,1-24.33-27.16v0A26.9,26.9,0,0,1,114,78.12c2.28-.12,4.64-.1,6.92-.09,1.31,0,2.62,0,3.94,0,.95,0,1.91,0,2.87,0a56.7,56.7,0,0,0,8.39-.37,31.91,31.91,0,0,0,20.2-11.54h0a31.92,31.92,0,0,0-3-43.18h0a31.78,31.78,0,0,0-21.56-8.72H118.5a37.17,37.17,0,0,1-8.06-.53h0a26.11,26.11,0,0,1-6.19-2.09,3.43,3.43,0,0,1,1.49-6.51h.07a3.51,3.51,0,0,1,1.53.36,19.15,19.15,0,0,0,4.47,1.51l.2,0c.49.06,1,.14,1.46.23l.32,0,2.59.11h9.22a98.85,98.85,0,0,1,37.54,17A5.91,5.91,0,0,1,164.59,26a38.72,38.72,0,0,1,5.56,17.56,38.3,38.3,0,0,1-8.46,26.91l0,0a38.83,38.83,0,0,1-24.6,14,24.58,24.58,0,0,1-3.49.34l-1.83.08H118.81c-2.18,0-3.68,0-4.46.09h0a20.11,20.11,0,0,0-13.09,6.16,19.72,19.72,0,0,0-5.51,13.51h0a20.08,20.08,0,0,0,18.15,20.2h.17c.5,0,1,0,1.49.08h15.28l1.53,0,1.14,0c.87,0,1.7.08,2.57.2A38.51,38.51,0,0,1,161,138.61v0A38.61,38.61,0,0,1,170.2,165.33Zm32.68-71.11a100.37,100.37,0,0,1-.11,21,1.51,1.51,0,0,1-3,.24,37.88,37.88,0,0,1-1.48-11.06v0a36.87,36.87,0,0,1,1.6-10.47A1.51,1.51,0,0,1,202.88,94.22Zm-2.64-15a.29.29,0,0,1,0,.09,3.42,3.42,0,0,1-.43,2.66,43.1,43.1,0,0,0-6.48,22.3h0s0,0,0,0h0a43.9,43.9,0,0,0,6.23,23.08,3.48,3.48,0,0,1,.41,2.67l0,.08a3.42,3.42,0,0,1-6.26.85,50.5,50.5,0,0,1-7.22-26.78v0A50.61,50.61,0,0,1,194,78.37,3.4,3.4,0,0,1,200.24,79.27ZM186.42,55a1.92,1.92,0,0,1,3.57-.68c1.27,2.19,2.46,4.42,3.55,6.69a10.43,10.43,0,0,1-1.08,10.77,55.18,55.18,0,0,0-11,32.41h0v0h0a55.59,55.59,0,0,0,9.84,32.37c.46.67,1.14,1.54,1.82,2.4a7.11,7.11,0,0,1,.9,7.43c-1.06,2.26-2.21,4.5-3.45,6.69a2.51,2.51,0,0,1-4.65-.73,55.16,55.16,0,0,0-12.14-24.7h0a55.31,55.31,0,0,0-35.7-19.12c-1.39-.19-2.75-.25-4.06-.31l-1.12-.06-16.9,0a4.21,4.21,0,0,0-.62-.05,3.18,3.18,0,0,1-2.76-3.23v0a3.21,3.21,0,0,1,2.85-3h0a3.27,3.27,0,0,0,.54,0l16,0,2.45-.1a38.85,38.85,0,0,0,5.18-.51A55.63,55.63,0,0,0,174.81,81h0a55.78,55.78,0,0,0,9.77-18.21A55,55,0,0,0,186.42,55Zm-71,43.81,0,0v.53Zm.94,3a2.26,2.26,0,0,0,.64-.26A2.15,2.15,0,0,1,116.31,101.72Zm65.8-55.39a50.13,50.13,0,0,1-11.19,31.56h0a50.58,50.58,0,0,1-32.1,18.31,34.12,34.12,0,0,1-4.59.46l-2.38.1H116a3.38,3.38,0,0,0-.64,0,8.11,8.11,0,0,0-7.68,8h0v.06h0a8.19,8.19,0,0,0,7.33,8.13h.39a2,2,0,0,0,.43.06h15.06l3,.09c1.25.06,2.43.11,3.66.28A50.32,50.32,0,0,1,170,130.9l0,0a51.06,51.06,0,0,1,11.89,28.33,14.47,14.47,0,0,1-3.6,11c-.28.33-.63.71-1,1.12a1.46,1.46,0,0,1-2.51-1.18,39.82,39.82,0,0,0,.42-4.63,43.64,43.64,0,0,0-10.42-30.14h0v0a43.54,43.54,0,0,0-28.06-15,28.56,28.56,0,0,0-3-.23l-1.1,0L115.88,120c-.51,0-1-.06-1.53-.08a15.08,15.08,0,0,1-13.6-15.18v0a14.92,14.92,0,0,1,4.14-10.1A15.1,15.1,0,0,1,114.78,90h.13c.56-.06,2.49-.06,3.89-.06h13.08l1.88-.08a29.15,29.15,0,0,0,4.1-.41,43.74,43.74,0,0,0,27.69-15.81h0v0h0a43.32,43.32,0,0,0,9.57-30.4,45,45,0,0,0-.58-4.77,1.6,1.6,0,0,1,2.54-1.54c1.18,1.25,1.53,1.67,2.63,3A10,10,0,0,1,182.11,46.33Z"/></g></g></svg>