<svg xmlns="http://www.w3.org/2000/svg" viewBox="0 0 208.4 208.4"><defs><style>.cls-1{fill:#ddb190;}.cls-2{fill:#fff5e7;}</style></defs><title>Asset 8</title><g id="Layer_2" data-name="Layer 2"><g id="Layer_2-2" data-name="Layer 2"><path class="cls-1" d="M148,172.51l8.73-9L148,154.41a2.51,2.51,0,0,1,0-3.47l8.73-9.05-8.73-9a2.52,2.52,0,0,1,0-3.48l8.73-9-8.73-9a2.51,2.51,0,0,1,0-3.47l8.73-9-8.73-9a2.51,2.51,0,0,1,0-3.47l8.73-9-8.73-9a2.51,2.51,0,0,1,0-3.47l8.73-9-8.73-9a2.51,2.51,0,0,1,0-3.47l8.73-9.05L148,25a2.51,2.51,0,0,1,0-3.47l1.46-1.51a2.89,2.89,0,0,0-.78-4.58l-.06,0a2.92,2.92,0,0,0-3.43.58l-7,7.27,8.72,9a2.49,2.49,0,0,1,0,3.47l-8.72,9,8.72,9a2.49,2.49,0,0,1,0,3.47l-8.72,9,8.72,9a2.49,2.49,0,0,1,0,3.47l-8.72,9L146.89,97a2.49,2.49,0,0,1,0,3.47l-8.72,9,8.72,9a2.49,2.49,0,0,1,0,3.47l-8.72,9.05,8.72,9a2.49,2.49,0,0,1,0,3.47l-8.72,9,8.72,9.05a2.49,2.49,0,0,1,0,3.47l-8.72,9.05,8.72,9a2.49,2.49,0,0,1,0,3.47l-8.72,9.05a2.48,2.48,0,0,0,2.68.6l.54-.22a38.47,38.47,0,0,0,13.32-9.08l2-2.08L148,176A2.51,2.51,0,0,1,148,172.51Z"/><path class="cls-1" d="M132.89,194.08l8.73-9.05L132.89,176a2.51,2.51,0,0,1,0-3.47l8.73-9-8.73-9.05a2.51,2.51,0,0,1,0-3.47l8.73-9.05-8.72-9a2.51,2.51,0,0,1,0-3.48l8.73-9-8.73-9a2.51,2.51,0,0,1,0-3.47l8.73-9-8.73-9a2.51,2.51,0,0,1,0-3.47l8.73-9-8.73-9a2.51,2.51,0,0,1,0-3.47l8.73-9-8.72-9a2.49,2.49,0,0,1,0-3.47l8.72-9.05-8.72-9a2.49,2.49,0,0,1,0-3.47l5.61-5.82a3,3,0,0,0-1.08-4.89c-1.8-.69-3.8-1.42-5.15-1.81a.83.83,0,0,0-.84,1.37l.36.37a2.51,2.51,0,0,1,0,3.47l-8.73,9,8.73,9a2.51,2.51,0,0,1,0,3.47l-8.73,9,8.73,9a2.51,2.51,0,0,1,0,3.47l-8.73,9,8.73,9a2.51,2.51,0,0,1,0,3.47l-8.73,9L131.8,97a2.51,2.51,0,0,1,0,3.47l-8.73,9,8.73,9a2.51,2.51,0,0,1,0,3.47l-8.73,9.05,8.73,9a2.51,2.51,0,0,1,0,3.47l-8.73,9,8.73,9.05a2.51,2.51,0,0,1,0,3.47l-8.73,9.05,8.73,9a2.51,2.51,0,0,1,0,3.47l-8.73,9.05,2.87,3a4.34,4.34,0,0,0,4.3,1.15c.73-.2,1.47-.41,2.2-.63a1.06,1.06,0,0,0,.45-1.76A2.51,2.51,0,0,1,132.89,194.08Z"/><path class="cls-2" d="M102.7,197.55a2.51,2.51,0,0,1,0-3.47l8.73-9.05L102.7,176a2.51,2.51,0,0,1,0-3.47l8.73-9-8.73-9.05a2.51,2.51,0,0,1,0-3.47l8.73-9.05-8.73-9a2.52,2.52,0,0,1,0-3.48l8.73-9-8.73-9a2.51,2.51,0,0,1,0-3.47l8.73-9-8.73-9a2.51,2.51,0,0,1,0-3.47l8.73-9-8.73-9a2.51,2.51,0,0,1,0-3.47l8.73-9-8.73-9a2.51,2.51,0,0,1,0-3.47l8.73-9.05-8.73-9a2.51,2.51,0,0,1,0-3.47l8.73-9-6.25-6.47a3.39,3.39,0,0,0-2.49-1,99.2,99.2,0,0,0-.19,198.37,2.45,2.45,0,0,0,1.82-4.15Z"/><path class="cls-1" d="M117.8,197.55a2.49,2.49,0,0,1,0-3.47l8.72-9.05L117.8,176a2.49,2.49,0,0,1,0-3.47l8.72-9-8.72-9.05a2.49,2.49,0,0,1,0-3.47l8.72-9.05-8.72-9a2.5,2.5,0,0,1,0-3.48l8.72-9-8.72-9a2.49,2.49,0,0,1,0-3.47l8.72-9-8.72-9a2.49,2.49,0,0,1,0-3.47l8.72-9-8.72-9a2.49,2.49,0,0,1,0-3.47l8.72-9-8.72-9a2.49,2.49,0,0,1,0-3.47l8.72-9.05-8.72-9a2.49,2.49,0,0,1,0-3.47l8.72-9-5.25-5.45a2.91,2.91,0,0,0-1.65-.86l-.52-.08a2.76,2.76,0,0,0-2.4,4.65,2.49,2.49,0,0,1,0,3.47l-8.72,9,8.72,9a2.49,2.49,0,0,1,0,3.47l-8.72,9,8.72,9a2.49,2.49,0,0,1,0,3.47l-8.72,9,8.72,9a2.49,2.49,0,0,1,0,3.47L108,88,116.7,97a2.49,2.49,0,0,1,0,3.47l-8.72,9,8.72,9a2.49,2.49,0,0,1,0,3.47L108,131.12l8.72,9a2.49,2.49,0,0,1,0,3.47l-8.72,9,8.72,9.05a2.49,2.49,0,0,1,0,3.47L108,174.24l8.73,9a2.49,2.49,0,0,1,0,3.47L108,195.81l5.77,6a2.88,2.88,0,0,0,2.43.88h.08a2.91,2.91,0,0,0,1.74-4.91Z"/><path class="cls-1" d="M201.34,106.67l-2.79,2.88,2.58,2.68a1.17,1.17,0,0,0,2-.74c.1-1.32.17-2.65.21-4A1.16,1.16,0,0,0,201.34,106.67Z"/><path class="cls-1" d="M163.09,176a2.49,2.49,0,0,1,0-3.47l8.72-9-8.72-9.05a2.49,2.49,0,0,1,0-3.47l8.72-9.05-8.72-9a2.5,2.5,0,0,1,0-3.48l8.72-9-8.72-9a2.49,2.49,0,0,1,0-3.47l8.72-9-8.72-9a2.49,2.49,0,0,1,0-3.47l8.72-9-8.72-9a2.49,2.49,0,0,1,0-3.47l8.72-9-8.72-9a2.51,2.51,0,0,1,0-3.47l8.72-9.05-8.72-9-.23-.27a7.73,7.73,0,0,0-1.76-1.89c-.84-.58-1.68-1.14-2.53-1.69a2.88,2.88,0,0,0-3.66.41l-1.65,1.71,8.73,9a2.51,2.51,0,0,1,0,3.47l-8.73,9,8.73,9a2.51,2.51,0,0,1,0,3.47l-8.73,9,8.73,9a2.51,2.51,0,0,1,0,3.47l-8.73,9L162,97a2.51,2.51,0,0,1,0,3.47l-8.73,9,8.73,9a2.51,2.51,0,0,1,0,3.47l-8.73,9.05,8.73,9a2.51,2.51,0,0,1,0,3.47l-8.73,9,8.73,9.05a2.51,2.51,0,0,1,0,3.47l-8.73,9.05,8.73,9c.32.33,2.09.07,2.81-.49a3.17,3.17,0,0,0,.33-4.7Z"/><path class="cls-1" d="M174.43,38.57l-6.07,6.29,8.73,9a2.51,2.51,0,0,1,0,3.47l-8.73,9,8.73,9a2.51,2.51,0,0,1,0,3.47l-8.73,9L177.09,97a2.51,2.51,0,0,1,0,3.47l-8.73,9,8.73,9a2.51,2.51,0,0,1,0,3.47l-8.73,9.05,8.73,9a2.51,2.51,0,0,1,0,3.47l-8.73,9,8.73,9.05a2.51,2.51,0,0,1,0,3.47l-8.73,9.05.53.56a3.52,3.52,0,0,0,5,.08c.17-.16.33-.33.5-.5a99.52,99.52,0,0,0,9.29-10.74,2.92,2.92,0,0,0-.22-3.77l-5.27-5.46a2.51,2.51,0,0,1,0-3.47l8.73-9.05-8.72-9a2.51,2.51,0,0,1,0-3.48l8.73-9-8.73-9a2.51,2.51,0,0,1,0-3.47l8.73-9-8.73-9a2.51,2.51,0,0,1,0-3.47l8.73-9-8.72-9a2.49,2.49,0,0,1,0-3.47l8.72-9-8.72-9a2.49,2.49,0,0,1,0-3.47l.46-.48a2.92,2.92,0,0,0,.09-3.95l0,0A2.91,2.91,0,0,0,174.43,38.57Z"/><path class="cls-1" d="M192.18,75.47a2.49,2.49,0,0,1,0,3.47l-8.72,9L192.18,97a2.49,2.49,0,0,1,0,3.47l-8.72,9,8.72,9a2.49,2.49,0,0,1,0,3.47l-8.72,9.05,8.72,9a2.49,2.49,0,0,1,0,3.47l-8.72,9,1.91,2a2.91,2.91,0,0,0,4.6-.55,99.18,99.18,0,0,0,5.87-11.82,7.78,7.78,0,0,0-1.55-8.39l-1-1a2.52,2.52,0,0,1,0-3.48l8.73-9-8.73-9a2.51,2.51,0,0,1,0-3.47l8.73-9-8.73-9a2.51,2.51,0,0,1,0-3.47l4.21-4.36a6.77,6.77,0,0,0,1.6-6.66l0,0a6.47,6.47,0,0,0-1.54-2.61l-4.25-4.41a2.51,2.51,0,0,1,0-3.47,2.78,2.78,0,0,0,.53-3.13c0-.1-.09-.19-.13-.29a2.82,2.82,0,0,0-4.56-.72l-5.66,5.87Z"/><path class="cls-1" d="M200.87,90.39a.85.85,0,0,0,1.45-.72c-.15-1-.31-2.09-.5-3.13a.85.85,0,0,0-1.45-.44L198.55,88Z"/><path d="M30.49,30.49a104.25,104.25,0,1,0,147.43,0A104.36,104.36,0,0,0,30.49,30.49Zm72,172.89A99.2,99.2,0,0,1,102.69,5a3.39,3.39,0,0,1,2.49,1l6.25,6.47-8.73,9a2.51,2.51,0,0,0,0,3.47l8.73,9-8.73,9.05a2.51,2.51,0,0,0,0,3.47l8.73,9-8.73,9a2.51,2.51,0,0,0,0,3.47l8.73,9-8.73,9a2.51,2.51,0,0,0,0,3.47l8.73,9-8.73,9a2.51,2.51,0,0,0,0,3.47l8.73,9-8.73,9a2.52,2.52,0,0,0,0,3.48l8.73,9-8.73,9.05a2.51,2.51,0,0,0,0,3.47l8.73,9.05-8.73,9a2.51,2.51,0,0,0,0,3.47l8.73,9.05-8.73,9.05a2.51,2.51,0,0,0,0,3.47l1.62,1.68A2.45,2.45,0,0,1,102.5,203.38Zm13.75-.72h-.08a2.88,2.88,0,0,1-2.43-.88l-5.77-6,8.73-9.05a2.49,2.49,0,0,0,0-3.47l-8.73-9,8.73-9.05a2.49,2.49,0,0,0,0-3.47L108,152.67l8.72-9a2.49,2.49,0,0,0,0-3.47l-8.72-9,8.72-9.05a2.49,2.49,0,0,0,0-3.47l-8.72-9,8.72-9a2.49,2.49,0,0,0,0-3.47L108,88l8.72-9a2.49,2.49,0,0,0,0-3.47l-8.72-9,8.72-9a2.49,2.49,0,0,0,0-3.47l-8.72-9,8.72-9a2.49,2.49,0,0,0,0-3.47l-8.72-9,8.72-9a2.49,2.49,0,0,0,0-3.47,2.76,2.76,0,0,1,2.4-4.65l.52.08a2.91,2.91,0,0,1,1.65.86l5.25,5.45-8.72,9a2.49,2.49,0,0,0,0,3.47l8.72,9-8.72,9.05a2.49,2.49,0,0,0,0,3.47l8.72,9-8.72,9a2.49,2.49,0,0,0,0,3.47l8.72,9-8.72,9a2.49,2.49,0,0,0,0,3.47l8.72,9-8.72,9a2.49,2.49,0,0,0,0,3.47l8.72,9-8.72,9a2.5,2.5,0,0,0,0,3.48l8.72,9-8.72,9.05a2.49,2.49,0,0,0,0,3.47l8.72,9.05-8.72,9a2.49,2.49,0,0,0,0,3.47l8.72,9.05-8.72,9.05a2.49,2.49,0,0,0,0,3.47l.19.2A2.91,2.91,0,0,1,116.25,202.66Zm16.19-3.35c-.73.22-1.47.43-2.2.63a4.34,4.34,0,0,1-4.3-1.15l-2.87-3,8.73-9.05a2.51,2.51,0,0,0,0-3.47l-8.73-9,8.73-9.05a2.51,2.51,0,0,0,0-3.47l-8.73-9.05,8.73-9a2.51,2.51,0,0,0,0-3.47l-8.73-9,8.73-9.05a2.51,2.51,0,0,0,0-3.47l-8.73-9,8.73-9a2.51,2.51,0,0,0,0-3.47L123.07,88l8.73-9a2.51,2.51,0,0,0,0-3.47l-8.73-9,8.73-9a2.51,2.51,0,0,0,0-3.47l-8.73-9,8.73-9a2.51,2.51,0,0,0,0-3.47l-8.73-9,8.73-9a2.51,2.51,0,0,0,0-3.47l-.36-.37a.83.83,0,0,1,.84-1.37c1.35.39,3.35,1.12,5.15,1.81a3,3,0,0,1,1.08,4.89l-5.61,5.82a2.49,2.49,0,0,0,0,3.47l8.72,9-8.72,9.05a2.49,2.49,0,0,0,0,3.47l8.72,9-8.73,9a2.51,2.51,0,0,0,0,3.47l8.73,9-8.73,9a2.51,2.51,0,0,0,0,3.47l8.73,9-8.73,9a2.51,2.51,0,0,0,0,3.47l8.73,9-8.73,9a2.51,2.51,0,0,0,0,3.48l8.72,9-8.73,9.05a2.51,2.51,0,0,0,0,3.47l8.73,9.05-8.73,9a2.51,2.51,0,0,0,0,3.47l8.73,9.05-8.73,9.05a2.51,2.51,0,0,0,0,3.47A1.06,1.06,0,0,1,132.44,199.31Zm22.27-12.2a38.47,38.47,0,0,1-13.32,9.08l-.54.22a2.48,2.48,0,0,1-2.68-.6l8.72-9.05a2.49,2.49,0,0,0,0-3.47l-8.72-9,8.72-9.05a2.49,2.49,0,0,0,0-3.47l-8.72-9.05,8.72-9a2.49,2.49,0,0,0,0-3.47l-8.72-9,8.72-9.05a2.49,2.49,0,0,0,0-3.47l-8.72-9,8.72-9a2.49,2.49,0,0,0,0-3.47L138.17,88l8.72-9a2.49,2.49,0,0,0,0-3.47l-8.72-9,8.72-9a2.49,2.49,0,0,0,0-3.47l-8.72-9,8.72-9a2.49,2.49,0,0,0,0-3.47l-8.72-9,7-7.27a2.92,2.92,0,0,1,3.43-.58l.06,0a2.89,2.89,0,0,1,.78,4.58L148,21.57A2.51,2.51,0,0,0,148,25l8.73,9L148,43.13a2.51,2.51,0,0,0,0,3.47l8.73,9-8.73,9a2.51,2.51,0,0,0,0,3.47l8.73,9-8.73,9a2.51,2.51,0,0,0,0,3.47l8.73,9-8.73,9a2.51,2.51,0,0,0,0,3.47l8.73,9-8.73,9a2.52,2.52,0,0,0,0,3.48l8.73,9L148,150.94a2.51,2.51,0,0,0,0,3.47l8.73,9.05-8.73,9a2.51,2.51,0,0,0,0,3.47l8.73,9.05Zm10.09-4.31c-.72.56-2.49.82-2.81.49l-8.73-9,8.73-9.05a2.51,2.51,0,0,0,0-3.47l-8.73-9.05,8.73-9a2.51,2.51,0,0,0,0-3.47l-8.73-9,8.73-9.05a2.51,2.51,0,0,0,0-3.47l-8.73-9,8.73-9A2.51,2.51,0,0,0,162,97L153.26,88l8.73-9a2.51,2.51,0,0,0,0-3.47l-8.73-9,8.73-9a2.51,2.51,0,0,0,0-3.47l-8.73-9,8.73-9a2.51,2.51,0,0,0,0-3.47l-8.73-9,1.65-1.71a2.88,2.88,0,0,1,3.66-.41c.85.55,1.69,1.11,2.53,1.69a7.73,7.73,0,0,1,1.76,1.89l.23.27,8.72,9-8.72,9.05a2.51,2.51,0,0,0,0,3.47l8.72,9-8.72,9a2.49,2.49,0,0,0,0,3.47l8.72,9-8.72,9a2.49,2.49,0,0,0,0,3.47l8.72,9-8.72,9a2.49,2.49,0,0,0,0,3.47l8.72,9-8.72,9a2.5,2.5,0,0,0,0,3.48l8.72,9-8.72,9.05a2.49,2.49,0,0,0,0,3.47l8.72,9.05-8.72,9a2.49,2.49,0,0,0,0,3.47l2,2.12A3.17,3.17,0,0,1,164.8,182.8Zm38.54-75.28c0,1.32-.11,2.65-.21,4a1.17,1.17,0,0,1-2,.74l-2.58-2.68,2.79-2.88A1.16,1.16,0,0,1,203.34,107.52Zm-1.52-21c.19,1,.35,2.08.5,3.13a.85.85,0,0,1-1.45.72L198.55,88l1.82-1.89A.85.85,0,0,1,201.82,86.54Zm-8.14-25.27c0,.1.09.19.13.29a2.78,2.78,0,0,1-.53,3.13,2.51,2.51,0,0,0,0,3.47l4.25,4.41a6.47,6.47,0,0,1,1.54,2.61l0,0a6.77,6.77,0,0,1-1.6,6.66l-4.21,4.36a2.51,2.51,0,0,0,0,3.47l8.73,9-8.73,9a2.51,2.51,0,0,0,0,3.47l8.73,9-8.73,9a2.52,2.52,0,0,0,0,3.48l1,1a7.78,7.78,0,0,1,1.55,8.39A99.18,99.18,0,0,1,190,154.11a2.91,2.91,0,0,1-4.6.55l-1.91-2,8.72-9a2.49,2.49,0,0,0,0-3.47l-8.72-9,8.72-9.05a2.49,2.49,0,0,0,0-3.47l-8.72-9,8.72-9a2.49,2.49,0,0,0,0-3.47L183.46,88l8.72-9a2.49,2.49,0,0,0,0-3.47l-8.72-9,5.66-5.87A2.82,2.82,0,0,1,193.68,61.27ZM178.74,38.7a2.92,2.92,0,0,1-.09,3.95l-.46.48a2.49,2.49,0,0,0,0,3.47l8.72,9-8.72,9a2.49,2.49,0,0,0,0,3.47l8.72,9-8.73,9a2.51,2.51,0,0,0,0,3.47l8.73,9-8.73,9a2.51,2.51,0,0,0,0,3.47l8.73,9-8.73,9a2.51,2.51,0,0,0,0,3.48l8.72,9-8.73,9.05a2.51,2.51,0,0,0,0,3.47l5.27,5.46a2.92,2.92,0,0,1,.22,3.77,99.52,99.52,0,0,1-9.29,10.74c-.17.17-.33.34-.5.5a3.52,3.52,0,0,1-5-.08l-.53-.56,8.73-9.05a2.51,2.51,0,0,0,0-3.47l-8.73-9.05,8.73-9a2.51,2.51,0,0,0,0-3.47l-8.73-9,8.73-9.05a2.51,2.51,0,0,0,0-3.47l-8.73-9,8.73-9a2.51,2.51,0,0,0,0-3.47L168.36,88l8.73-9a2.51,2.51,0,0,0,0-3.47l-8.73-9,8.73-9a2.51,2.51,0,0,0,0-3.47l-8.73-9,6.07-6.29a2.91,2.91,0,0,1,4.27.09Z"/></g></g></svg>