<svg xmlns="http://www.w3.org/2000/svg" viewBox="0 0 208.4 208.4"><defs><style>.cls-1{fill:#ddb190;}.cls-2{fill:#f8ac59;}.cls-3{fill:#fff5e7;}</style></defs><title>Asset 10</title><g id="Layer_2" data-name="Layer 2"><g id="Layer_2-2" data-name="Layer 2"><path class="cls-1" d="M112.56,125.54c-3.12-6-5.57-10.79-5.57-21.33s2.45-15.3,5.57-21.34c3.42-6.63,7.68-14.89,7.68-30s-4.26-23.41-7.68-30c-2.42-4.68-4.44-8.61-5.22-15.06A3.13,3.13,0,0,0,104.23,5h-.68a3.21,3.21,0,0,0-3.14,3.61c.94,7.69,3.37,12.44,5.92,17.39,3.4,6.58,6.91,13.38,6.91,26.83s-3.51,20.26-6.91,26.84C103.07,86,100,92,100,104.21s3.08,18.21,6.34,24.54c3.4,6.58,6.91,13.38,6.91,26.83s-3.51,20.25-6.91,26.83c-2.51,4.89-4.92,9.58-5.88,17.08a3.45,3.45,0,0,0,3.42,3.89h.07a3.46,3.46,0,0,0,3.44-3c.81-6.27,2.8-10.14,5.18-14.75,3.42-6.64,7.68-14.89,7.68-30S116,132.18,112.56,125.54Z"/><path class="cls-2" d="M144.24,155.58c0-9.32-2-13.19-5-19-3.68-7.12-8.24-16-8.24-32.33s4.56-25.22,8.23-32.33c3-5.86,5-9.72,5-19s-2-13.19-5-19c-2.5-4.85-5.41-10.51-7-18.79a10,10,0,0,0-7.72-7.9q-3.84-.79-7.74-1.29a3.61,3.61,0,0,0-3.94,4.38c.85,3.84,2.32,6.7,4.18,10.3,3.67,7.12,8.24,16,8.24,32.34S120.67,78.05,117,85.16c-3,5.86-5,9.72-5,19s2,13.19,5,19c3.67,7.12,8.24,16,8.24,32.33s-4.57,25.22-8.24,32.33a40.69,40.69,0,0,0-4.18,10.3,3.61,3.61,0,0,0,3.94,4.38q3.9-.5,7.74-1.29a9.94,9.94,0,0,0,7.72-7.9c1.6-8.27,4.51-13.94,7-18.78C142.24,168.77,144.24,164.91,144.24,155.58Z"/><path class="cls-3" d="M96.24,155.58c0-9.32-2-13.19-5-19-3.68-7.12-8.24-16-8.24-32.33S87.55,79,91.22,71.88c3-5.86,5-9.72,5-19s-2-13.19-5-19C88,27.56,84.12,20,83.2,7.26a99.17,99.17,0,0,0,0,193.89c.92-12.74,4.82-20.31,8-26.53C94.24,168.77,96.24,164.91,96.24,155.58Z"/><path class="cls-1" d="M149.89,131c-3.39-6.58-6.9-13.38-6.9-26.83s3.51-20.26,6.9-26.84c3.26-6.32,6.35-12.3,6.35-24.54s-3.09-18.21-6.35-24.54a57.53,57.53,0,0,1-5.4-13.3,3.41,3.41,0,0,0-2-2.32l-.07,0a3.46,3.46,0,0,0-4.7,4,63.91,63.91,0,0,0,5.94,14.82c3.11,6,5.57,10.8,5.57,21.34s-2.46,15.3-5.57,21.34c-3.42,6.63-7.68,14.89-7.68,30s4.26,23.4,7.68,30c3.11,6,5.57,10.79,5.57,21.33s-2.46,15.3-5.57,21.33a64,64,0,0,0-6,15,3.36,3.36,0,0,0,4.52,3.94l.34-.14a3.33,3.33,0,0,0,1.94-2.27,57.17,57.17,0,0,1,5.41-13.33c3.26-6.33,6.35-12.3,6.35-24.54S153.15,137.37,149.89,131Z"/><path class="cls-1" d="M108.24,155.58c0-12.24-3.09-18.21-6.35-24.54-3.39-6.58-6.9-13.38-6.9-26.83S98.5,84,101.89,77.37c3.26-6.32,6.35-12.3,6.35-24.54s-3.09-18.21-6.35-24.54C99.16,23,96.36,17.55,95.37,8.62a3.21,3.21,0,0,0-3.6-2.83l-.58.08a3.22,3.22,0,0,0-2.77,3.57c1.17,10.27,4.48,16.69,7.25,22,3.11,6,5.57,10.8,5.57,21.34s-2.46,15.3-5.57,21.34C92.25,80.8,88,89.06,88,104.21s4.26,23.4,7.68,30c3.11,6,5.57,10.79,5.57,21.33s-2.46,15.3-5.57,21.33c-2.74,5.32-6,11.68-7.22,21.8a3.49,3.49,0,0,0,3,3.86h.08a3.46,3.46,0,0,0,3.88-3.06c1-8.77,3.79-14.16,6.49-19.4C105.15,173.79,108.24,167.82,108.24,155.58Z"/><path class="cls-1" d="M192.67,134.25l0,.07a3.37,3.37,0,0,0,6.21-.55c0-.12.08-.24.11-.36a3.42,3.42,0,0,0-.22-2.53c-.73-1.42-1.87-3.7-2.43-4.92C194,120.64,192,114.3,192,104.21c0-11,2.34-17.54,5-23.15.4-.82,1.2-2.4,1.77-3.52A3.4,3.4,0,0,0,199,75c0-.12-.08-.24-.11-.35a3.37,3.37,0,0,0-6.22-.56l0,.08c-3.42,6.63-7.68,14.89-7.68,30S189.25,127.61,192.67,134.25Z"/><path class="cls-1" d="M155,104.21c0-10.54,2.45-15.3,5.57-21.34,3.42-6.63,7.68-14.89,7.68-30s-4.49-23.29-7.68-30c-.7-1.48-3.27-2.74-4.76-3.36-2.16-.9-4.34,1-3.26,3.08L154.33,26c3.4,6.58,6.91,13.38,6.91,26.83s-3.51,20.26-6.91,26.84C151.07,86,148,92,148,104.21s3.08,18.21,6.34,24.54c3.4,6.58,6.91,13.38,6.91,26.83s-3.51,20.25-6.91,26.83l-1.75,3.4a2.37,2.37,0,0,0,3,3.26,15,15,0,0,0,4.95-3.45c3.42-6.64,7.68-14.89,7.68-30s-4.26-23.4-7.68-30C157.44,119.51,155,114.75,155,104.21Z"/><path class="cls-2" d="M174.33,34a1.86,1.86,0,0,0-3.1,1.81,67.46,67.46,0,0,1,2,17c0,16.36-4.57,25.22-8.24,32.33-3,5.86-5,9.72-5,19s2,13.19,5,19c3.67,7.12,8.24,16,8.24,32.33a67.32,67.32,0,0,1-2,17,1.86,1.86,0,0,0,3.1,1.81l0-.05a98.35,98.35,0,0,0,15-19.21,15.89,15.89,0,0,0,.77-14.84c-.57-1.22-1.21-2.45-1.89-3.79-3.68-7.12-8.24-16-8.24-32.33s4.56-25.22,8.23-32.33c.69-1.34,1.33-2.58,1.9-3.8a15.89,15.89,0,0,0-.76-14.84,99.15,99.15,0,0,0-15-19.22Z"/><path class="cls-1" d="M199.39,120.08a1.43,1.43,0,0,0,2.76-.25,99.8,99.8,0,0,0,0-31.24,1.43,1.43,0,0,0-2.75-.26A46.42,46.42,0,0,0,197,104.21,46.63,46.63,0,0,0,199.39,120.08Z"/><path d="M30.49,30.49a104.25,104.25,0,1,0,147.43,0A104.36,104.36,0,0,0,30.49,30.49ZM34,174.38A99.16,99.16,0,0,1,83.2,7.26c.92,12.74,4.82,20.3,8,26.53,3,5.85,5,9.71,5,19s-2,13.19-5,19C87.55,79,83,87.85,83,104.21s4.56,25.21,8.24,32.33c3,5.85,5,9.72,5,19s-2,13.19-5,19c-3.2,6.22-7.1,13.79-8,26.53A98.63,98.63,0,0,1,34,174.38Zm57.5,28.2h-.08a3.49,3.49,0,0,1-3-3.86c1.2-10.12,4.48-16.48,7.22-21.8,3.11-6,5.57-10.79,5.57-21.33s-2.46-15.3-5.57-21.33c-3.42-6.64-7.68-14.89-7.68-30s4.26-23.41,7.68-30c3.11-6,5.57-10.8,5.57-21.34s-2.46-15.3-5.57-21.34c-2.77-5.36-6.08-11.78-7.25-22a3.22,3.22,0,0,1,2.77-3.57l.58-.08a3.21,3.21,0,0,1,3.6,2.83c1,8.93,3.79,14.38,6.52,19.67,3.26,6.33,6.35,12.3,6.35,24.54s-3.09,18.22-6.35,24.54C98.5,84,95,90.76,95,104.21s3.51,20.25,6.9,26.83c3.26,6.33,6.35,12.3,6.35,24.54s-3.09,18.21-6.35,24.54c-2.7,5.24-5.47,10.63-6.49,19.4A3.46,3.46,0,0,1,91.52,202.58Zm15.86-2.21a3.46,3.46,0,0,1-3.44,3h-.07a3.45,3.45,0,0,1-3.42-3.89c1-7.5,3.37-12.19,5.88-17.08,3.4-6.58,6.91-13.38,6.91-26.83s-3.51-20.25-6.91-26.83c-3.26-6.33-6.34-12.3-6.34-24.54s3.08-18.22,6.34-24.54c3.4-6.58,6.91-13.39,6.91-26.84S109.73,32.58,106.33,26c-2.55-4.95-5-9.7-5.92-17.39A3.21,3.21,0,0,1,103.55,5h.68a3.13,3.13,0,0,1,3.11,2.73c.78,6.45,2.8,10.38,5.22,15.06,3.42,6.63,7.68,14.89,7.68,30s-4.26,23.41-7.68,30c-3.12,6-5.57,10.8-5.57,21.34s2.45,15.3,5.57,21.33c3.42,6.64,7.68,14.89,7.68,30s-4.26,23.4-7.68,30C110.18,190.23,108.19,194.1,107.38,200.37Zm17.12.93q-3.84.8-7.74,1.29a3.61,3.61,0,0,1-3.94-4.38,40.69,40.69,0,0,1,4.18-10.3c3.67-7.11,8.24-16,8.24-32.33s-4.57-25.21-8.24-32.33c-3-5.85-5-9.72-5-19s2-13.19,5-19c3.67-7.11,8.24-16,8.24-32.33S120.67,27.61,117,20.49c-1.86-3.6-3.33-6.46-4.18-10.3a3.61,3.61,0,0,1,3.94-4.38q3.9.5,7.74,1.29a10,10,0,0,1,7.72,7.9c1.6,8.28,4.51,13.94,7,18.79,3,5.85,5,9.71,5,19s-2,13.19-5,19c-3.67,7.11-8.23,16-8.23,32.33s4.56,25.21,8.24,32.33c3,5.85,5,9.72,5,19s-2,13.19-5,19c-2.49,4.84-5.4,10.51-7,18.78A9.94,9.94,0,0,1,124.5,201.3Zm20-7.85a3.33,3.33,0,0,1-1.94,2.27l-.34.14a3.36,3.36,0,0,1-4.52-3.94,64,64,0,0,1,6-15c3.11-6,5.57-10.79,5.57-21.33s-2.46-15.3-5.57-21.33c-3.42-6.64-7.68-14.89-7.68-30s4.26-23.41,7.68-30c3.11-6,5.57-10.8,5.57-21.34s-2.46-15.3-5.57-21.34a63.91,63.91,0,0,1-5.94-14.82,3.46,3.46,0,0,1,4.7-4l.07,0a3.41,3.41,0,0,1,2,2.32,57.53,57.53,0,0,0,5.4,13.3c3.26,6.33,6.35,12.3,6.35,24.54s-3.09,18.22-6.35,24.54C146.5,84,143,90.76,143,104.21s3.51,20.25,6.9,26.83c3.26,6.33,6.35,12.3,6.35,24.54s-3.09,18.21-6.35,24.54A57.17,57.17,0,0,0,144.48,193.45Zm16.08-7.83a15,15,0,0,1-4.95,3.45,2.37,2.37,0,0,1-3-3.26l1.75-3.4c3.4-6.58,6.91-13.38,6.91-26.83s-3.51-20.25-6.91-26.83c-3.26-6.33-6.34-12.3-6.34-24.54s3.08-18.22,6.34-24.54c3.4-6.58,6.91-13.39,6.91-26.84S157.73,32.58,154.33,26l-1.79-3.49c-1.08-2.09,1.1-4,3.26-3.08,1.49.62,4.06,1.88,4.76,3.36,3.19,6.75,7.68,14.89,7.68,30s-4.26,23.41-7.68,30c-3.12,6-5.57,10.8-5.57,21.34s2.45,15.3,5.57,21.33c3.42,6.64,7.68,14.89,7.68,30S164,179,160.56,185.62Zm41.59-97a99.8,99.8,0,0,1,0,31.24,1.43,1.43,0,0,1-2.76.25,46.63,46.63,0,0,1-2.4-15.87,46.42,46.42,0,0,1,2.41-15.88A1.43,1.43,0,0,1,202.15,88.59Zm-9.44-14.5a3.37,3.37,0,0,1,6.22.56c0,.11.07.23.11.35a3.4,3.4,0,0,1-.24,2.54c-.57,1.12-1.37,2.7-1.77,3.52-2.7,5.61-5,12.17-5,23.15,0,10.09,2,16.43,4.39,21.75.56,1.22,1.7,3.5,2.43,4.92a3.42,3.42,0,0,1,.22,2.53c0,.12-.07.24-.11.36a3.37,3.37,0,0,1-6.21.55l0-.07c-3.42-6.64-7.68-14.89-7.68-30s4.26-23.41,7.68-30Zm-2.59-6c-.57,1.22-1.21,2.46-1.9,3.8-3.67,7.11-8.23,16-8.23,32.33s4.56,25.21,8.24,32.33c.68,1.34,1.32,2.57,1.89,3.79a15.89,15.89,0,0,1-.77,14.84,98.35,98.35,0,0,1-15,19.21l0,.05a1.86,1.86,0,0,1-3.1-1.81,67.32,67.32,0,0,0,2-17c0-16.36-4.57-25.21-8.24-32.33-3-5.85-5-9.72-5-19s2-13.19,5-19c3.67-7.11,8.24-16,8.24-32.33a67.46,67.46,0,0,0-2-17,1.86,1.86,0,0,1,3.1-1.81l0,.05a99.15,99.15,0,0,1,15,19.22A15.89,15.89,0,0,1,190.12,68.08Z"/></g></g></svg>