<svg xmlns="http://www.w3.org/2000/svg" viewBox="0 0 205 205"><defs><style>.cls-1{fill:#fff5e7;}.cls-2{fill:#dfb291;}.cls-3{fill:#d4d2e9;}.cls-4{fill:none;stroke:#000;stroke-miterlimit:10;stroke-width:5px;}</style></defs><title>Asset 14</title><g id="Layer_2" data-name="Layer 2"><g id="Layer_2-2" data-name="Layer 2"><circle class="cls-1" cx="102.99" cy="103.85" r="100.16"/><path class="cls-2" d="M191.5,102.5a89,89,0,1,1-89-89A89,89,0,0,1,191.5,102.5Zm-89-100a100,100,0,1,0,100,100A100,100,0,0,0,102.5,2.5Z"/><path class="cls-3" d="M102.5,13.5v89l-68.37-57a89,89,0,1,0,68.37-32Z"/><circle class="cls-4" cx="102.5" cy="102.5" r="89"/><circle class="cls-4" cx="102.5" cy="102.5" r="100"/><path d="M115.1,30.32,104.67,12.25a2.51,2.51,0,0,0-4.34,0L89.91,30.31a2.61,2.61,0,0,0,.62,3.4,2.51,2.51,0,0,0,3.64-.77l3.27-5.67A1.37,1.37,0,0,1,100,28V90.7A3,3,0,0,1,95.06,93L47.13,52.83a1.38,1.38,0,0,1,1.12-2.41l6.21,1.08A2.5,2.5,0,0,0,57.39,49a2.56,2.56,0,0,0-2.16-2.41L34.63,43a2.5,2.5,0,0,0-2.78,3.33L39.08,66a2.49,2.49,0,0,0,3.43,1.39,2.57,2.57,0,0,0,1.22-3.22l-2.29-6.27a1.37,1.37,0,0,1,2.17-1.52l57.28,48a2.53,2.53,0,0,0,1.61.58,2.48,2.48,0,0,0,2.5-2.57V28a1.37,1.37,0,0,1,2.56-.69l3.27,5.67a2.51,2.51,0,0,0,3.59.81A2.61,2.61,0,0,0,115.1,30.32Z"/></g></g></svg>