<svg xmlns="http://www.w3.org/2000/svg" viewBox="0 0 205 205"><defs><style>.cls-1{fill:#fff5e7;}.cls-2{fill:#dfb291;}.cls-3{fill:#d4d2e9;}.cls-4{fill:none;stroke:#000;stroke-miterlimit:10;stroke-width:5px;}</style></defs><title>Asset 15</title><g id="Layer_2" data-name="Layer 2"><g id="Layer_2-2" data-name="Layer 2"><circle class="cls-1" cx="103.47" cy="103.85" r="96.83"/><path class="cls-2" d="M192.5,102.5a89,89,0,1,1-89-89A89,89,0,0,1,192.5,102.5Zm-89-100a100,100,0,1,0,100,100A100,100,0,0,0,103.5,2.5Z"/><path class="cls-3" d="M103.5,13.5v89L188,130.65A89.08,89.08,0,0,0,103.5,13.5Z"/><circle class="cls-4" cx="102.5" cy="102.5" r="89"/><circle class="cls-4" cx="102.5" cy="102.5" r="100"/><path d="M189,128.42l-14-15.62a2.5,2.5,0,0,0-3.71,0,2.6,2.6,0,0,0,.09,3.46l5.34,6a1.07,1.07,0,0,1-1.12,1.73l-61.79-20.36A12.73,12.73,0,0,1,105,91.48V26.81a1.07,1.07,0,0,1,2-.53l3.84,6.66a2.51,2.51,0,0,0,3.59.81,2.61,2.61,0,0,0,.68-3.43L104.67,12.25a2.51,2.51,0,0,0-4.34,0L89.91,30.31a2.61,2.61,0,0,0,.62,3.4,2.51,2.51,0,0,0,3.64-.77L98,26.28a1.07,1.07,0,0,1,2,.53V102.5a2.48,2.48,0,0,0,1.72,2.37l71.52,23.57a1.06,1.06,0,0,1-.11,2.05l-7,1.48a2.56,2.56,0,0,0-2.08,2.53,2.51,2.51,0,0,0,2.5,2.44,2.37,2.37,0,0,0,.52-.06l19.36-4.09.27.08.05-.15.86-.18a2.52,2.52,0,0,0,1.86-1.67A2.49,2.49,0,0,0,189,128.42Z"/></g></g></svg>