<svg xmlns="http://www.w3.org/2000/svg" viewBox="0 0 205 205"><defs><style>.cls-1{fill:#fff5e7;}.cls-2{fill:#dfb291;}.cls-3{fill:#d4d2e9;}.cls-4{fill:none;stroke:#000;stroke-miterlimit:10;stroke-width:5px;}</style></defs><title>Asset 16</title><g id="Layer_2" data-name="Layer 2"><g id="Layer_2-2" data-name="Layer 2"><circle class="cls-1" cx="102.54" cy="103.85" r="100.16"/><path class="cls-2" d="M191.5,102.5a89,89,0,1,1-89-89A89,89,0,0,1,191.5,102.5Zm-89-100a100,100,0,1,0,100,100A100,100,0,0,0,102.5,2.5Z"/><path class="cls-3" d="M102.5,13.5v89l40.87-79.08A88.58,88.58,0,0,0,102.5,13.5Z"/><circle class="cls-4" cx="102.5" cy="102.5" r="89"/><circle class="cls-4" cx="102.5" cy="102.5" r="100"/><path d="M145.86,23.32a2.5,2.5,0,0,0-3.84-2L124.46,32.59a2.61,2.61,0,0,0-1,3.31,2.51,2.51,0,0,0,3.59,1l6.47-4.15A1.06,1.06,0,0,1,135,34.11l-27.92,54a1.12,1.12,0,0,1-2.11-.51V26.81a1.07,1.07,0,0,1,2-.53l3.84,6.66a2.51,2.51,0,0,0,3.59.81,2.61,2.61,0,0,0,.68-3.43L104.67,12.25a2.51,2.51,0,0,0-4.34,0L89.91,30.31a2.61,2.61,0,0,0,.62,3.4,2.51,2.51,0,0,0,3.64-.77L98,26.28a1.07,1.07,0,0,1,2,.53v75.61a2.49,2.49,0,0,0,2.5,2.58,2.51,2.51,0,0,0,2.22-1.35l34.75-67.24a1.07,1.07,0,0,1,2,.44l.35,7.68a2.5,2.5,0,0,0,2.5,2.38h.12a2.5,2.5,0,0,0,2.38-2.61Z"/></g></g></svg>